<svg width="1920" height="180" viewBox="0 0 1920 180" fill="none" xmlns="http://www.w3.org/2000/svg">
<rect width="1920" height="180" fill="#FBF8FF"/>
<path d="M378.432 84.3636V85.6136H372.818V96H371.409V84.3636H378.432ZM379.658 96V94.75H379.976C380.237 94.75 380.455 94.6989 380.629 94.5966C380.804 94.4905 380.944 94.3068 381.05 94.0455C381.16 93.7803 381.243 93.4129 381.3 92.9432C381.36 92.4697 381.404 91.8674 381.43 91.1364L381.589 87.2727H387.408V96H386.067V88.5227H382.862L382.726 91.6364C382.696 92.3523 382.631 92.983 382.533 93.5284C382.438 94.0701 382.292 94.5246 382.095 94.892C381.902 95.2595 381.644 95.536 381.322 95.7216C381 95.9072 380.597 96 380.112 96H379.658ZM392.436 96.2045C391.883 96.2045 391.381 96.1004 390.93 95.892C390.48 95.6799 390.122 95.375 389.857 94.9773C389.591 94.5758 389.459 94.0909 389.459 93.5227C389.459 93.0227 389.557 92.6174 389.754 92.3068C389.951 91.9924 390.214 91.7462 390.544 91.5682C390.874 91.3902 391.237 91.2576 391.635 91.1705C392.036 91.0795 392.44 91.0076 392.845 90.9545C393.375 90.8864 393.805 90.8352 394.135 90.8011C394.468 90.7633 394.711 90.7008 394.862 90.6136C395.018 90.5265 395.095 90.375 395.095 90.1591V90.1136C395.095 89.553 394.942 89.1174 394.635 88.8068C394.332 88.4962 393.872 88.3409 393.254 88.3409C392.614 88.3409 392.112 88.4811 391.749 88.7614C391.385 89.0417 391.129 89.3409 390.982 89.6591L389.709 89.2045C389.936 88.6742 390.239 88.2614 390.618 87.9659C391 87.6667 391.417 87.4583 391.868 87.3409C392.322 87.2197 392.769 87.1591 393.209 87.1591C393.489 87.1591 393.811 87.1932 394.175 87.2614C394.542 87.3258 394.896 87.4602 395.237 87.6648C395.582 87.8693 395.868 88.178 396.095 88.5909C396.322 89.0038 396.436 89.5568 396.436 90.25V96H395.095V94.8182H395.027C394.936 95.0076 394.785 95.2102 394.572 95.4261C394.36 95.642 394.078 95.8258 393.726 95.9773C393.374 96.1288 392.944 96.2045 392.436 96.2045ZM392.641 95C393.171 95 393.618 94.8958 393.982 94.6875C394.349 94.4792 394.625 94.2102 394.811 93.8807C395 93.5511 395.095 93.2045 395.095 92.8409V91.6136C395.038 91.6818 394.913 91.7443 394.72 91.8011C394.531 91.8542 394.311 91.9015 394.061 91.9432C393.815 91.9811 393.574 92.0152 393.339 92.0455C393.108 92.072 392.921 92.0947 392.777 92.1136C392.429 92.1591 392.103 92.233 391.8 92.3352C391.5 92.4337 391.258 92.5833 391.072 92.7841C390.891 92.9811 390.8 93.25 390.8 93.5909C390.8 94.0568 390.972 94.4091 391.317 94.6477C391.665 94.8826 392.107 95 392.641 95ZM398.884 96V87.2727H402.452C403.391 87.2727 404.137 87.4848 404.69 87.9091C405.243 88.3333 405.52 88.8939 405.52 89.5909C405.52 90.1212 405.363 90.5322 405.048 90.8239C404.734 91.1117 404.33 91.3068 403.838 91.4091C404.16 91.4545 404.473 91.5682 404.776 91.75C405.082 91.9318 405.336 92.1818 405.537 92.5C405.738 92.8144 405.838 93.2008 405.838 93.6591C405.838 94.1061 405.724 94.5057 405.497 94.858C405.27 95.2102 404.944 95.4886 404.52 95.6932C404.096 95.8977 403.588 96 402.997 96H398.884ZM400.156 94.7727H402.997C403.459 94.7727 403.821 94.6629 404.082 94.4432C404.344 94.2235 404.474 93.9242 404.474 93.5455C404.474 93.0947 404.344 92.7405 404.082 92.483C403.821 92.2216 403.459 92.0909 402.997 92.0909H400.156V94.7727ZM400.156 90.9318H402.452C402.812 90.9318 403.12 90.8826 403.378 90.7841C403.635 90.6818 403.832 90.5379 403.969 90.3523C404.109 90.1629 404.179 89.9394 404.179 89.6818C404.179 89.3144 404.026 89.0265 403.719 88.8182C403.412 88.6061 402.99 88.5 402.452 88.5H400.156V90.9318ZM413.709 91.0227V92.2727H408.891V91.0227H413.709ZM409.209 87.2727V96H407.868V87.2727H409.209ZM414.732 87.2727V96H413.391V87.2727H414.732ZM419.749 96.2045C419.196 96.2045 418.694 96.1004 418.243 95.892C417.792 95.6799 417.434 95.375 417.169 94.9773C416.904 94.5758 416.771 94.0909 416.771 93.5227C416.771 93.0227 416.87 92.6174 417.067 92.3068C417.264 91.9924 417.527 91.7462 417.857 91.5682C418.186 91.3902 418.55 91.2576 418.947 91.1705C419.349 91.0795 419.752 91.0076 420.158 90.9545C420.688 90.8864 421.118 90.8352 421.447 90.8011C421.781 90.7633 422.023 90.7008 422.175 90.6136C422.33 90.5265 422.408 90.375 422.408 90.1591V90.1136C422.408 89.553 422.254 89.1174 421.947 88.8068C421.644 88.4962 421.184 88.3409 420.567 88.3409C419.927 88.3409 419.425 88.4811 419.061 88.7614C418.697 89.0417 418.442 89.3409 418.294 89.6591L417.021 89.2045C417.249 88.6742 417.552 88.2614 417.93 87.9659C418.313 87.6667 418.73 87.4583 419.18 87.3409C419.635 87.2197 420.082 87.1591 420.521 87.1591C420.802 87.1591 421.124 87.1932 421.487 87.2614C421.855 87.3258 422.209 87.4602 422.55 87.6648C422.894 87.8693 423.18 88.178 423.408 88.5909C423.635 89.0038 423.749 89.5568 423.749 90.25V96H422.408V94.8182H422.339C422.249 95.0076 422.097 95.2102 421.885 95.4261C421.673 95.642 421.391 95.8258 421.038 95.9773C420.686 96.1288 420.256 96.2045 419.749 96.2045ZM419.953 95C420.483 95 420.93 94.8958 421.294 94.6875C421.661 94.4792 421.938 94.2102 422.124 93.8807C422.313 93.5511 422.408 93.2045 422.408 92.8409V91.6136C422.351 91.6818 422.226 91.7443 422.033 91.8011C421.843 91.8542 421.624 91.9015 421.374 91.9432C421.127 91.9811 420.887 92.0152 420.652 92.0455C420.421 92.072 420.233 92.0947 420.089 92.1136C419.741 92.1591 419.415 92.233 419.112 92.3352C418.813 92.4337 418.571 92.5833 418.385 92.7841C418.203 92.9811 418.112 93.25 418.112 93.5909C418.112 94.0568 418.285 94.4091 418.629 94.6477C418.978 94.8826 419.419 95 419.953 95ZM431.446 96V88.5H429.128C428.605 88.5 428.194 88.6212 427.895 88.8636C427.596 89.1061 427.446 89.4394 427.446 89.8636C427.446 90.2803 427.58 90.608 427.849 90.8466C428.122 91.0852 428.495 91.2045 428.969 91.2045H431.787V92.4545H428.969C428.378 92.4545 427.868 92.3504 427.44 92.142C427.012 91.9337 426.683 91.6364 426.452 91.25C426.221 90.8598 426.105 90.3977 426.105 89.8636C426.105 89.3258 426.226 88.8636 426.469 88.4773C426.711 88.0909 427.058 87.7936 427.509 87.5852C427.963 87.3769 428.503 87.2727 429.128 87.2727H432.719V96H431.446ZM425.628 96L428.105 91.6591H429.56L427.082 96H425.628Z" fill="#020105"/>
<path d="M484.114 84.3636V96H482.705V85.6136H476.841V96H475.432V84.3636H484.114ZM486.774 99.2727V87.2727H488.07V88.6591H488.229C488.327 88.5076 488.464 88.3144 488.638 88.0795C488.816 87.8409 489.07 87.6288 489.399 87.4432C489.732 87.2538 490.183 87.1591 490.751 87.1591C491.486 87.1591 492.134 87.3428 492.695 87.7102C493.255 88.0777 493.693 88.5985 494.007 89.2727C494.321 89.947 494.479 90.7424 494.479 91.6591C494.479 92.5833 494.321 93.3845 494.007 94.0625C493.693 94.7367 493.257 95.2595 492.7 95.6307C492.143 95.9981 491.501 96.1818 490.774 96.1818C490.214 96.1818 489.765 96.089 489.428 95.9034C489.09 95.714 488.831 95.5 488.649 95.2614C488.467 95.0189 488.327 94.8182 488.229 94.6591H488.115V99.2727H486.774ZM488.092 91.6364C488.092 92.2955 488.189 92.8769 488.382 93.3807C488.575 93.8807 488.857 94.2727 489.229 94.5568C489.6 94.8371 490.054 94.9773 490.592 94.9773C491.153 94.9773 491.621 94.8295 491.996 94.5341C492.375 94.2348 492.659 93.8333 492.848 93.3295C493.041 92.822 493.138 92.2576 493.138 91.6364C493.138 91.0227 493.043 90.4697 492.854 89.9773C492.668 89.4811 492.386 89.089 492.007 88.8011C491.632 88.5095 491.161 88.3636 490.592 88.3636C490.047 88.3636 489.589 88.5019 489.217 88.7784C488.846 89.0511 488.566 89.4337 488.376 89.9261C488.187 90.4148 488.092 90.9848 488.092 91.6364ZM500.07 96.1818C499.282 96.1818 498.59 95.9943 497.996 95.6193C497.405 95.2443 496.943 94.7197 496.609 94.0455C496.28 93.3712 496.115 92.5833 496.115 91.6818C496.115 90.7727 496.28 89.9792 496.609 89.3011C496.943 88.6231 497.405 88.0966 497.996 87.7216C498.59 87.3466 499.282 87.1591 500.07 87.1591C500.857 87.1591 501.547 87.3466 502.138 87.7216C502.732 88.0966 503.195 88.6231 503.524 89.3011C503.857 89.9792 504.024 90.7727 504.024 91.6818C504.024 92.5833 503.857 93.3712 503.524 94.0455C503.195 94.7197 502.732 95.2443 502.138 95.6193C501.547 95.9943 500.857 96.1818 500.07 96.1818ZM500.07 94.9773C500.668 94.9773 501.161 94.8239 501.547 94.517C501.933 94.2102 502.219 93.8068 502.405 93.3068C502.59 92.8068 502.683 92.2652 502.683 91.6818C502.683 91.0985 502.59 90.5549 502.405 90.0511C502.219 89.5473 501.933 89.1402 501.547 88.8295C501.161 88.5189 500.668 88.3636 500.07 88.3636C499.471 88.3636 498.979 88.5189 498.592 88.8295C498.206 89.1402 497.92 89.5473 497.734 90.0511C497.549 90.5549 497.456 91.0985 497.456 91.6818C497.456 92.2652 497.549 92.8068 497.734 93.3068C497.92 93.8068 498.206 94.2102 498.592 94.517C498.979 94.8239 499.471 94.9773 500.07 94.9773ZM509.73 96.1818C508.889 96.1818 508.164 95.9962 507.554 95.625C506.948 95.25 506.48 94.7273 506.151 94.0568C505.825 93.3826 505.662 92.5985 505.662 91.7045C505.662 90.8106 505.825 90.0227 506.151 89.3409C506.48 88.6553 506.938 88.1212 507.526 87.7386C508.116 87.3523 508.806 87.1591 509.594 87.1591C510.048 87.1591 510.497 87.2348 510.94 87.3864C511.384 87.5379 511.787 87.7841 512.151 88.125C512.514 88.4621 512.804 88.9091 513.02 89.4659C513.236 90.0227 513.344 90.7083 513.344 91.5227V92.0909H506.616V90.9318H511.98C511.98 90.4394 511.882 90 511.685 89.6136C511.491 89.2273 511.215 88.9223 510.855 88.6989C510.499 88.4754 510.079 88.3636 509.594 88.3636C509.06 88.3636 508.598 88.4962 508.207 88.7614C507.821 89.0227 507.524 89.3636 507.315 89.7841C507.107 90.2045 507.003 90.6553 507.003 91.1364V91.9091C507.003 92.5682 507.116 93.1269 507.344 93.5852C507.575 94.0398 507.895 94.3864 508.304 94.625C508.713 94.8598 509.188 94.9773 509.73 94.9773C510.082 94.9773 510.401 94.928 510.685 94.8295C510.973 94.7273 511.221 94.5758 511.429 94.375C511.637 94.1705 511.798 93.9167 511.912 93.6136L513.207 93.9773C513.071 94.4167 512.842 94.803 512.52 95.1364C512.198 95.4659 511.8 95.7235 511.327 95.9091C510.853 96.0909 510.321 96.1818 509.73 96.1818ZM515.384 96V87.2727H516.724V91.0682H517.611L520.747 87.2727H522.474L518.952 91.4773L522.52 96H520.793L517.929 92.3182H516.724V96H515.384ZM523.477 88.5227V87.2727H530.568V88.5227H527.705V96H526.364V88.5227H523.477ZM533.683 90.4318H536.183C537.206 90.4318 537.988 90.6913 538.53 91.2102C539.071 91.7292 539.342 92.3864 539.342 93.1818C539.342 93.7045 539.221 94.1799 538.979 94.608C538.736 95.0322 538.38 95.3712 537.911 95.625C537.441 95.875 536.865 96 536.183 96H532.524V87.2727H533.865V94.75H536.183C536.714 94.75 537.149 94.6098 537.49 94.3295C537.831 94.0492 538.001 93.6894 538.001 93.25C538.001 92.7879 537.831 92.411 537.49 92.1193C537.149 91.8277 536.714 91.6818 536.183 91.6818H533.683V90.4318ZM540.729 96V87.2727H542.07V96H540.729Z" fill="#020105"/>
<path d="M563.825 88.0874L559.003 92.9099L554.18 88.0874" stroke="#020105" stroke-miterlimit="10" stroke-linecap="round" stroke-linejoin="round"/>
<path d="M618.773 88H617.364C617.28 87.5947 617.134 87.2386 616.926 86.9318C616.722 86.625 616.472 86.3674 616.176 86.1591C615.884 85.947 615.561 85.7879 615.205 85.6818C614.848 85.5758 614.477 85.5227 614.091 85.5227C613.386 85.5227 612.748 85.7008 612.176 86.0568C611.608 86.4129 611.155 86.9375 610.818 87.6307C610.485 88.3239 610.318 89.1742 610.318 90.1818C610.318 91.1894 610.485 92.0398 610.818 92.733C611.155 93.4261 611.608 93.9508 612.176 94.3068C612.748 94.6629 613.386 94.8409 614.091 94.8409C614.477 94.8409 614.848 94.7879 615.205 94.6818C615.561 94.5758 615.884 94.4186 616.176 94.2102C616.472 93.9981 616.722 93.7386 616.926 93.4318C617.134 93.1212 617.28 92.7652 617.364 92.3636H618.773C618.667 92.9583 618.473 93.4905 618.193 93.9602C617.913 94.4299 617.564 94.8295 617.148 95.1591C616.731 95.4848 616.263 95.733 615.744 95.9034C615.229 96.0739 614.678 96.1591 614.091 96.1591C613.098 96.1591 612.216 95.9167 611.443 95.4318C610.67 94.947 610.063 94.2576 609.619 93.3636C609.176 92.4697 608.955 91.4091 608.955 90.1818C608.955 88.9545 609.176 87.8939 609.619 87C610.063 86.1061 610.67 85.4167 611.443 84.9318C612.216 84.447 613.098 84.2045 614.091 84.2045C614.678 84.2045 615.229 84.2898 615.744 84.4602C616.263 84.6307 616.731 84.8807 617.148 85.2102C617.564 85.536 617.913 85.9337 618.193 86.4034C618.473 86.8693 618.667 87.4015 618.773 88ZM624.527 96.1818C623.686 96.1818 622.961 95.9962 622.351 95.625C621.745 95.25 621.277 94.7273 620.947 94.0568C620.622 93.3826 620.459 92.5985 620.459 91.7045C620.459 90.8106 620.622 90.0227 620.947 89.3409C621.277 88.6553 621.735 88.1212 622.322 87.7386C622.913 87.3523 623.603 87.1591 624.391 87.1591C624.845 87.1591 625.294 87.2348 625.737 87.3864C626.18 87.5379 626.584 87.7841 626.947 88.125C627.311 88.4621 627.601 88.9091 627.817 89.4659C628.033 90.0227 628.141 90.7083 628.141 91.5227V92.0909H621.413V90.9318H626.777C626.777 90.4394 626.679 90 626.482 89.6136C626.288 89.2273 626.012 88.9223 625.652 88.6989C625.296 88.4754 624.875 88.3636 624.391 88.3636C623.857 88.3636 623.394 88.4962 623.004 88.7614C622.618 89.0227 622.321 89.3636 622.112 89.7841C621.904 90.2045 621.8 90.6553 621.8 91.1364V91.9091C621.8 92.5682 621.913 93.1269 622.141 93.5852C622.372 94.0398 622.692 94.3864 623.101 94.625C623.51 94.8598 623.985 94.9773 624.527 94.9773C624.879 94.9773 625.197 94.928 625.482 94.8295C625.769 94.7273 626.018 94.5758 626.226 94.375C626.434 94.1705 626.595 93.9167 626.709 93.6136L628.004 93.9773C627.868 94.4167 627.639 94.803 627.317 95.1364C626.995 95.4659 626.597 95.7235 626.124 95.9091C625.65 96.0909 625.118 96.1818 624.527 96.1818ZM630.18 99.2727V87.2727H631.476V88.6591H631.635C631.733 88.5076 631.87 88.3144 632.044 88.0795C632.222 87.8409 632.476 87.6288 632.805 87.4432C633.139 87.2538 633.589 87.1591 634.158 87.1591C634.893 87.1591 635.54 87.3428 636.101 87.7102C636.661 88.0777 637.099 88.5985 637.413 89.2727C637.728 89.947 637.885 90.7424 637.885 91.6591C637.885 92.5833 637.728 93.3845 637.413 94.0625C637.099 94.7367 636.663 95.2595 636.107 95.6307C635.55 95.9981 634.908 96.1818 634.18 96.1818C633.62 96.1818 633.171 96.089 632.834 95.9034C632.497 95.714 632.237 95.5 632.055 95.2614C631.874 95.0189 631.733 94.8182 631.635 94.6591H631.521V99.2727H630.18ZM631.499 91.6364C631.499 92.2955 631.595 92.8769 631.788 93.3807C631.982 93.8807 632.264 94.2727 632.635 94.5568C633.006 94.8371 633.461 94.9773 633.999 94.9773C634.559 94.9773 635.027 94.8295 635.402 94.5341C635.781 94.2348 636.065 93.8333 636.254 93.3295C636.447 92.822 636.544 92.2576 636.544 91.6364C636.544 91.0227 636.449 90.4697 636.26 89.9773C636.074 89.4811 635.792 89.089 635.413 88.8011C635.038 88.5095 634.567 88.3636 633.999 88.3636C633.453 88.3636 632.995 88.5019 632.624 88.7784C632.252 89.0511 631.972 89.4337 631.783 89.9261C631.593 90.4148 631.499 90.9848 631.499 91.6364ZM639.93 96V87.2727H643.499C644.438 87.2727 645.184 87.4848 645.737 87.9091C646.29 88.3333 646.567 88.8939 646.567 89.5909C646.567 90.1212 646.41 90.5322 646.095 90.8239C645.781 91.1117 645.377 91.3068 644.885 91.4091C645.207 91.4545 645.519 91.5682 645.822 91.75C646.129 91.9318 646.383 92.1818 646.584 92.5C646.785 92.8144 646.885 93.2008 646.885 93.6591C646.885 94.1061 646.771 94.5057 646.544 94.858C646.317 95.2102 645.991 95.4886 645.567 95.6932C645.143 95.8977 644.635 96 644.044 96H639.93ZM641.203 94.7727H644.044C644.506 94.7727 644.868 94.6629 645.129 94.4432C645.391 94.2235 645.521 93.9242 645.521 93.5455C645.521 93.0947 645.391 92.7405 645.129 92.483C644.868 92.2216 644.506 92.0909 644.044 92.0909H641.203V94.7727ZM641.203 90.9318H643.499C643.858 90.9318 644.167 90.8826 644.425 90.7841C644.682 90.6818 644.879 90.5379 645.016 90.3523C645.156 90.1629 645.226 89.9394 645.226 89.6818C645.226 89.3144 645.072 89.0265 644.766 88.8182C644.459 88.6061 644.036 88.5 643.499 88.5H641.203V90.9318ZM650.256 94.0227L654.46 87.2727H656.006V96H654.665V89.25L650.483 96H648.915V87.2727H650.256V94.0227ZM662.007 96.1818C661.189 96.1818 660.484 95.9886 659.893 95.6023C659.303 95.2159 658.848 94.6837 658.53 94.0057C658.212 93.3277 658.053 92.553 658.053 91.6818C658.053 90.7955 658.215 90.0133 658.541 89.3352C658.871 88.6534 659.329 88.1212 659.916 87.7386C660.507 87.3523 661.196 87.1591 661.984 87.1591C662.598 87.1591 663.151 87.2727 663.643 87.5C664.136 87.7273 664.539 88.0455 664.854 88.4545C665.168 88.8636 665.363 89.3409 665.439 89.8864H664.098C663.996 89.4886 663.768 89.1364 663.416 88.8295C663.068 88.5189 662.598 88.3636 662.007 88.3636C661.484 88.3636 661.026 88.5 660.632 88.7727C660.242 89.0417 659.937 89.4223 659.717 89.9148C659.501 90.4034 659.393 90.9773 659.393 91.6364C659.393 92.3106 659.5 92.8977 659.712 93.3977C659.928 93.8977 660.231 94.286 660.621 94.5625C661.015 94.839 661.477 94.9773 662.007 94.9773C662.356 94.9773 662.672 94.9167 662.956 94.7955C663.24 94.6742 663.481 94.5 663.678 94.2727C663.875 94.0455 664.015 93.7727 664.098 93.4545H665.439C665.363 93.9697 665.176 94.4337 664.876 94.8466C664.581 95.2557 664.189 95.5814 663.7 95.8239C663.215 96.0625 662.651 96.1818 662.007 96.1818ZM668.558 90.4318H671.058C672.081 90.4318 672.863 90.6913 673.405 91.2102C673.946 91.7292 674.217 92.3864 674.217 93.1818C674.217 93.7045 674.096 94.1799 673.854 94.608C673.611 95.0322 673.255 95.3712 672.786 95.625C672.316 95.875 671.74 96 671.058 96H667.399V87.2727H668.74V94.75H671.058C671.589 94.75 672.024 94.6098 672.365 94.3295C672.706 94.0492 672.876 93.6894 672.876 93.25C672.876 92.7879 672.706 92.411 672.365 92.1193C672.024 91.8277 671.589 91.6818 671.058 91.6818H668.558V90.4318ZM675.604 96V87.2727H676.945V96H675.604Z" fill="#020105"/>
<path d="M698.825 88.0874L694.003 92.9099L689.18 88.0874" stroke="#020105" stroke-miterlimit="10" stroke-linecap="round" stroke-linejoin="round"/>
<path d="M751.25 96L747.25 90.6591H745.818V96H744.409V84.3636H745.818V89.4091H746.432L751.091 84.3636H752.773L748.068 89.4773L752.932 96H751.25ZM757.476 96.1818C756.688 96.1818 755.997 95.9943 755.402 95.6193C754.811 95.2443 754.349 94.7197 754.016 94.0455C753.686 93.3712 753.521 92.5833 753.521 91.6818C753.521 90.7727 753.686 89.9792 754.016 89.3011C754.349 88.6231 754.811 88.0966 755.402 87.7216C755.997 87.3466 756.688 87.1591 757.476 87.1591C758.264 87.1591 758.953 87.3466 759.544 87.7216C760.139 88.0966 760.601 88.6231 760.93 89.3011C761.264 89.9792 761.43 90.7727 761.43 91.6818C761.43 92.5833 761.264 93.3712 760.93 94.0455C760.601 94.7197 760.139 95.2443 759.544 95.6193C758.953 95.9943 758.264 96.1818 757.476 96.1818ZM757.476 94.9773C758.074 94.9773 758.567 94.8239 758.953 94.517C759.339 94.2102 759.625 93.8068 759.811 93.3068C759.997 92.8068 760.089 92.2652 760.089 91.6818C760.089 91.0985 759.997 90.5549 759.811 90.0511C759.625 89.5473 759.339 89.1402 758.953 88.8295C758.567 88.5189 758.074 88.3636 757.476 88.3636C756.877 88.3636 756.385 88.5189 755.999 88.8295C755.612 89.1402 755.326 89.5473 755.141 90.0511C754.955 90.5549 754.862 91.0985 754.862 91.6818C754.862 92.2652 754.955 92.8068 755.141 93.3068C755.326 93.8068 755.612 94.2102 755.999 94.517C756.385 94.8239 756.877 94.9773 757.476 94.9773ZM769.318 91.0227V92.2727H764.5V91.0227H769.318ZM764.818 87.2727V96H763.477V87.2727H764.818ZM770.341 87.2727V96H769V87.2727H770.341ZM771.602 88.5227V87.2727H778.693V88.5227H775.83V96H774.489V88.5227H771.602ZM782.764 96.2045C782.211 96.2045 781.709 96.1004 781.259 95.892C780.808 95.6799 780.45 95.375 780.185 94.9773C779.92 94.5758 779.787 94.0909 779.787 93.5227C779.787 93.0227 779.885 92.6174 780.082 92.3068C780.279 91.9924 780.543 91.7462 780.872 91.5682C781.202 91.3902 781.565 91.2576 781.963 91.1705C782.365 91.0795 782.768 91.0076 783.173 90.9545C783.704 90.8864 784.134 90.8352 784.463 90.8011C784.796 90.7633 785.039 90.7008 785.19 90.6136C785.346 90.5265 785.423 90.375 785.423 90.1591V90.1136C785.423 89.553 785.27 89.1174 784.963 88.8068C784.66 88.4962 784.2 88.3409 783.582 88.3409C782.942 88.3409 782.44 88.4811 782.077 88.7614C781.713 89.0417 781.457 89.3409 781.31 89.6591L780.037 89.2045C780.264 88.6742 780.567 88.2614 780.946 87.9659C781.329 87.6667 781.745 87.4583 782.196 87.3409C782.651 87.2197 783.098 87.1591 783.537 87.1591C783.817 87.1591 784.139 87.1932 784.503 87.2614C784.87 87.3258 785.224 87.4602 785.565 87.6648C785.91 87.8693 786.196 88.178 786.423 88.5909C786.651 89.0038 786.764 89.5568 786.764 90.25V96H785.423V94.8182H785.355C785.264 95.0076 785.113 95.2102 784.901 95.4261C784.688 95.642 784.406 95.8258 784.054 95.9773C783.702 96.1288 783.272 96.2045 782.764 96.2045ZM782.969 95C783.499 95 783.946 94.8958 784.31 94.6875C784.677 94.4792 784.954 94.2102 785.139 93.8807C785.329 93.5511 785.423 93.2045 785.423 92.8409V91.6136C785.366 91.6818 785.241 91.7443 785.048 91.8011C784.859 91.8542 784.639 91.9015 784.389 91.9432C784.143 91.9811 783.902 92.0152 783.668 92.0455C783.437 92.072 783.249 92.0947 783.105 92.1136C782.757 92.1591 782.431 92.233 782.128 92.3352C781.829 92.4337 781.586 92.5833 781.401 92.7841C781.219 92.9811 781.128 93.25 781.128 93.5909C781.128 94.0568 781.3 94.4091 781.645 94.6477C781.993 94.8826 782.435 95 782.969 95ZM789.212 96V87.2727H790.553V91.0682H791.439L794.575 87.2727H796.303L792.78 91.4773L796.348 96H794.621L791.757 92.3182H790.553V96H789.212ZM797.305 88.5227V87.2727H804.396V88.5227H801.533V96H800.192V88.5227H797.305ZM807.511 90.4318H810.011C811.034 90.4318 811.816 90.6913 812.358 91.2102C812.9 91.7292 813.17 92.3864 813.17 93.1818C813.17 93.7045 813.049 94.1799 812.807 94.608C812.564 95.0322 812.208 95.3712 811.739 95.625C811.269 95.875 810.693 96 810.011 96H806.352V87.2727H807.693V94.75H810.011C810.542 94.75 810.977 94.6098 811.318 94.3295C811.659 94.0492 811.83 93.6894 811.83 93.25C811.83 92.7879 811.659 92.411 811.318 92.1193C810.977 91.8277 810.542 91.6818 810.011 91.6818H807.511V90.4318ZM814.557 96V87.2727H815.898V96H814.557Z" fill="#020105"/>
<path d="M1407.32 69.0909H1408.9L1412.61 78.1463H1412.73L1416.44 69.0909H1418.02V80H1416.78V71.7116H1416.67L1413.27 80H1412.07L1408.66 71.7116H1408.56V80H1407.32V69.0909ZM1421.58 74.7798H1423.93C1424.88 74.7798 1425.62 75.0231 1426.13 75.5096C1426.63 75.9961 1426.89 76.6122 1426.89 77.358C1426.89 77.848 1426.77 78.2937 1426.55 78.695C1426.32 79.0927 1425.99 79.4105 1425.55 79.6484C1425.1 79.8828 1424.56 80 1423.93 80H1420.5V71.8182H1421.75V78.8281H1423.93C1424.42 78.8281 1424.83 78.6967 1425.15 78.4339C1425.47 78.1712 1425.63 77.8338 1425.63 77.4219C1425.63 76.9886 1425.47 76.6353 1425.15 76.3619C1424.83 76.0884 1424.42 75.9517 1423.93 75.9517H1421.58V74.7798ZM1428.19 80V71.8182H1429.44V80H1428.19ZM1435.96 80V71.8182H1439.31C1440.19 71.8182 1440.89 72.017 1441.41 72.4148C1441.93 72.8125 1442.19 73.3381 1442.19 73.9915C1442.19 74.4886 1442.04 74.8739 1441.74 75.1474C1441.45 75.4173 1441.07 75.6001 1440.61 75.696C1440.91 75.7386 1441.2 75.8452 1441.49 76.0156C1441.78 76.1861 1442.01 76.4205 1442.2 76.7188C1442.39 77.0135 1442.48 77.3757 1442.48 77.8054C1442.48 78.2244 1442.38 78.5991 1442.16 78.9293C1441.95 79.2596 1441.65 79.5206 1441.25 79.7124C1440.85 79.9041 1440.37 80 1439.82 80H1435.96ZM1437.16 78.8494H1439.82C1440.25 78.8494 1440.59 78.7464 1440.84 78.5405C1441.08 78.3345 1441.21 78.054 1441.21 77.6989C1441.21 77.2763 1441.08 76.9442 1440.84 76.7028C1440.59 76.4577 1440.25 76.3352 1439.82 76.3352H1437.16V78.8494ZM1437.16 75.2486H1439.31C1439.65 75.2486 1439.94 75.2024 1440.18 75.1101C1440.42 75.0142 1440.6 74.8793 1440.73 74.7053C1440.86 74.5277 1440.93 74.3182 1440.93 74.0767C1440.93 73.7322 1440.78 73.4624 1440.5 73.267C1440.21 73.0682 1439.81 72.9688 1439.31 72.9688H1437.16V75.2486ZM1451.93 80.1705C1451.16 80.1705 1450.5 79.9893 1449.95 79.6271C1449.39 79.2649 1448.97 78.766 1448.67 78.1303C1448.37 77.4947 1448.22 76.7685 1448.22 75.9517C1448.22 75.1207 1448.37 74.3874 1448.68 73.7518C1448.99 73.1126 1449.42 72.6136 1449.97 72.255C1450.52 71.8928 1451.17 71.7116 1451.91 71.7116C1452.48 71.7116 1453 71.8182 1453.46 72.0312C1453.93 72.2443 1454.3 72.5426 1454.6 72.9261C1454.89 73.3097 1455.08 73.7571 1455.15 74.2685H1453.89C1453.79 73.8956 1453.58 73.5653 1453.25 73.2777C1452.92 72.9865 1452.48 72.8409 1451.93 72.8409C1451.44 72.8409 1451.01 72.9687 1450.64 73.2244C1450.27 73.4766 1449.99 73.8335 1449.78 74.2951C1449.58 74.7532 1449.48 75.2912 1449.48 75.9091C1449.48 76.5412 1449.58 77.0916 1449.78 77.5604C1449.98 78.0291 1450.26 78.3931 1450.63 78.6523C1451 78.9116 1451.43 79.0412 1451.93 79.0412C1452.26 79.0412 1452.55 78.9844 1452.82 78.8707C1453.09 78.7571 1453.31 78.5938 1453.5 78.3807C1453.68 78.1676 1453.81 77.9119 1453.89 77.6136H1455.15C1455.08 78.0966 1454.9 78.5316 1454.62 78.9187C1454.34 79.3022 1453.97 79.6076 1453.52 79.8349C1453.06 80.0586 1452.53 80.1705 1451.93 80.1705ZM1460.31 80.1705C1459.57 80.1705 1458.92 79.9947 1458.36 79.6431C1457.81 79.2915 1457.38 78.7997 1457.06 78.1676C1456.76 77.5355 1456.6 76.7969 1456.6 75.9517C1456.6 75.0994 1456.76 74.3555 1457.06 73.7198C1457.38 73.0842 1457.81 72.5906 1458.36 72.239C1458.92 71.8874 1459.57 71.7116 1460.31 71.7116C1461.05 71.7116 1461.69 71.8874 1462.25 72.239C1462.8 72.5906 1463.24 73.0842 1463.55 73.7198C1463.86 74.3555 1464.02 75.0994 1464.02 75.9517C1464.02 76.7969 1463.86 77.5355 1463.55 78.1676C1463.24 78.7997 1462.8 79.2915 1462.25 79.6431C1461.69 79.9947 1461.05 80.1705 1460.31 80.1705ZM1460.31 79.0412C1460.87 79.0412 1461.33 78.8974 1461.69 78.6097C1462.06 78.3221 1462.32 77.9439 1462.5 77.4751C1462.67 77.0064 1462.76 76.4986 1462.76 75.9517C1462.76 75.4048 1462.67 74.8952 1462.5 74.4229C1462.32 73.9506 1462.06 73.5689 1461.69 73.2777C1461.33 72.9865 1460.87 72.8409 1460.31 72.8409C1459.75 72.8409 1459.29 72.9865 1458.92 73.2777C1458.56 73.5689 1458.29 73.9506 1458.12 74.4229C1457.95 74.8952 1457.86 75.4048 1457.86 75.9517C1457.86 76.4986 1457.95 77.0064 1458.12 77.4751C1458.29 77.9439 1458.56 78.3221 1458.92 78.6097C1459.29 78.8974 1459.75 79.0412 1460.31 79.0412ZM1472.37 71.8182V78.8281H1473.52V82.642H1472.26V80H1465.93V71.8182H1467.19V78.8281H1471.11V71.8182H1472.37ZM1478.69 80.1705C1477.93 80.1705 1477.26 79.9893 1476.71 79.6271C1476.16 79.2649 1475.73 78.766 1475.43 78.1303C1475.13 77.4947 1474.98 76.7685 1474.98 75.9517C1474.98 75.1207 1475.14 74.3874 1475.44 73.7518C1475.75 73.1126 1476.18 72.6136 1476.73 72.255C1477.29 71.8928 1477.93 71.7116 1478.67 71.7116C1479.25 71.7116 1479.76 71.8182 1480.23 72.0312C1480.69 72.2443 1481.07 72.5426 1481.36 72.9261C1481.66 73.3097 1481.84 73.7571 1481.91 74.2685H1480.65C1480.56 73.8956 1480.34 73.5653 1480.01 73.2777C1479.69 72.9865 1479.25 72.8409 1478.69 72.8409C1478.2 72.8409 1477.77 72.9687 1477.4 73.2244C1477.04 73.4766 1476.75 73.8335 1476.55 74.2951C1476.34 74.7532 1476.24 75.2912 1476.24 75.9091C1476.24 76.5412 1476.34 77.0916 1476.54 77.5604C1476.74 78.0291 1477.03 78.3931 1477.39 78.6523C1477.76 78.9116 1478.2 79.0412 1478.69 79.0412C1479.02 79.0412 1479.32 78.9844 1479.58 78.8707C1479.85 78.7571 1480.07 78.5938 1480.26 78.3807C1480.44 78.1676 1480.57 77.9119 1480.65 77.6136H1481.91C1481.84 78.0966 1481.66 78.5316 1481.38 78.9187C1481.11 79.3022 1480.74 79.6076 1480.28 79.8349C1479.83 80.0586 1479.3 80.1705 1478.69 80.1705ZM1487.18 80.1705C1486.39 80.1705 1485.71 79.9964 1485.14 79.6484C1484.57 79.2969 1484.13 78.8068 1483.82 78.1783C1483.52 77.5462 1483.36 76.8111 1483.36 75.973C1483.36 75.1349 1483.52 74.3963 1483.82 73.7571C1484.13 73.1143 1484.56 72.6136 1485.11 72.255C1485.66 71.8928 1486.31 71.7116 1487.05 71.7116C1487.48 71.7116 1487.9 71.7827 1488.31 71.9247C1488.73 72.0668 1489.11 72.2976 1489.45 72.6172C1489.79 72.9332 1490.06 73.3523 1490.26 73.8743C1490.46 74.3963 1490.57 75.0391 1490.57 75.8026V76.3352H1484.26V75.2486H1489.29C1489.29 74.7869 1489.19 74.375 1489.01 74.0128C1488.83 73.6506 1488.57 73.3647 1488.23 73.1552C1487.9 72.9457 1487.5 72.8409 1487.05 72.8409C1486.55 72.8409 1486.12 72.9652 1485.75 73.2138C1485.39 73.4588 1485.11 73.7784 1484.91 74.1726C1484.72 74.5668 1484.62 74.9893 1484.62 75.4403V76.1648C1484.62 76.7827 1484.73 77.3065 1484.94 77.7362C1485.16 78.1623 1485.46 78.4872 1485.84 78.7109C1486.22 78.9311 1486.67 79.0412 1487.18 79.0412C1487.51 79.0412 1487.81 78.995 1488.07 78.9027C1488.34 78.8068 1488.58 78.6648 1488.77 78.4766C1488.97 78.2848 1489.12 78.0469 1489.22 77.7628L1490.44 78.1037C1490.31 78.5156 1490.09 78.8778 1489.79 79.1903C1489.49 79.4993 1489.12 79.7408 1488.67 79.9148C1488.23 80.0852 1487.73 80.1705 1487.18 80.1705ZM1491.72 72.9901V71.8182H1498.36V72.9901H1495.68V80H1494.42V72.9901H1491.72ZM1505.12 80V72.9688H1502.95C1502.46 72.9688 1502.07 73.0824 1501.79 73.3097C1501.51 73.5369 1501.37 73.8494 1501.37 74.2472C1501.37 74.6378 1501.5 74.945 1501.75 75.1687C1502 75.3924 1502.35 75.5043 1502.8 75.5043H1505.44V76.6761H1502.8C1502.24 76.6761 1501.77 76.5785 1501.36 76.3832C1500.96 76.1879 1500.65 75.9091 1500.44 75.5469C1500.22 75.1811 1500.11 74.7479 1500.11 74.2472C1500.11 73.7429 1500.23 73.3097 1500.45 72.9474C1500.68 72.5852 1501.01 72.3065 1501.43 72.1112C1501.85 71.9158 1502.36 71.8182 1502.95 71.8182H1506.31V80H1505.12ZM1499.66 80L1501.99 75.9304H1503.35L1501.03 80H1499.66ZM1509.56 71.8182L1511.52 75.1634L1513.48 71.8182H1514.93L1512.29 75.9091L1514.93 80H1513.48L1511.52 76.8253L1509.56 80H1508.11L1510.71 75.9091L1508.11 71.8182H1509.56ZM1517.64 80.0852C1517.37 80.0852 1517.15 79.9911 1516.96 79.8029C1516.77 79.6147 1516.68 79.3892 1516.68 79.1264C1516.68 78.8636 1516.77 78.6381 1516.96 78.4499C1517.15 78.2617 1517.37 78.1676 1517.64 78.1676C1517.9 78.1676 1518.13 78.2617 1518.31 78.4499C1518.5 78.6381 1518.6 78.8636 1518.6 79.1264C1518.6 79.3004 1518.55 79.4602 1518.46 79.6058C1518.38 79.7514 1518.26 79.8686 1518.12 79.9574C1517.97 80.0426 1517.81 80.0852 1517.64 80.0852ZM1517.64 74.0128C1517.37 74.0128 1517.15 73.9187 1516.96 73.7305C1516.77 73.5423 1516.68 73.3168 1516.68 73.054C1516.68 72.7912 1516.77 72.5657 1516.96 72.3775C1517.15 72.1893 1517.37 72.0952 1517.64 72.0952C1517.9 72.0952 1518.13 72.1893 1518.31 72.3775C1518.5 72.5657 1518.6 72.7912 1518.6 73.054C1518.6 73.228 1518.55 73.3878 1518.46 73.5334C1518.38 73.679 1518.26 73.7962 1518.12 73.8849C1517.97 73.9702 1517.81 74.0128 1517.64 74.0128Z" fill="#020105"/>
<path d="M1419.41 115H1416.03C1415.46 115 1415 114.543 1415 113.981V106.396H1413.03C1412.46 106.396 1412 105.939 1412 105.377V102.127C1412 101.565 1412.46 101.108 1413.03 101.108H1415V99.4807C1415 97.8668 1415.51 96.4938 1416.48 95.5102C1417.45 94.5221 1418.8 94 1420.39 94L1422.98 94.0042C1423.54 94.0051 1424 94.4621 1424 95.0228V98.0407C1424 98.6024 1423.54 99.0593 1422.97 99.0593L1421.24 99.06C1420.71 99.06 1420.57 99.1656 1420.54 99.1979C1420.49 99.2516 1420.44 99.4033 1420.44 99.8223V101.108H1422.84C1423.03 101.108 1423.2 101.153 1423.35 101.236C1423.68 101.417 1423.88 101.758 1423.88 102.127L1423.88 105.378C1423.88 105.939 1423.42 106.396 1422.85 106.396H1420.44V113.981C1420.44 114.543 1419.98 115 1419.41 115ZM1416.24 113.769H1419.2V105.845C1419.2 105.47 1419.51 105.165 1419.88 105.165H1422.64L1422.64 102.339H1419.88C1419.51 102.339 1419.2 102.034 1419.2 101.659V99.8223C1419.2 99.3413 1419.25 98.7943 1419.61 98.3832C1420.05 97.8862 1420.75 97.8289 1421.24 97.8289L1422.76 97.8282V95.235L1420.39 95.2311C1417.83 95.2311 1416.24 96.8596 1416.24 99.4807V101.659C1416.24 102.034 1415.93 102.339 1415.56 102.339H1413.24V105.165H1415.56C1415.93 105.165 1416.24 105.47 1416.24 105.845V113.769ZM1422.97 95.2353H1422.97H1422.97Z" fill="#020105"/>
<path d="M1467.95 100.88C1467.9 99.8174 1467.73 99.0868 1467.48 98.4537C1467.23 97.7818 1466.84 97.1802 1466.33 96.68C1465.83 96.1721 1465.22 95.7774 1464.56 95.5274C1463.92 95.2813 1463.19 95.1094 1462.13 95.0626C1461.06 95.0118 1460.72 95 1458 95C1455.29 95 1454.95 95.0118 1453.88 95.0586C1452.82 95.1055 1452.09 95.2775 1451.45 95.5235C1450.78 95.7774 1450.18 96.1681 1449.68 96.68C1449.17 97.1802 1448.78 97.7857 1448.53 98.4499C1448.28 99.0868 1448.11 99.8134 1448.06 100.876C1448.01 101.947 1448 102.287 1448 105.002C1448 107.717 1448.01 108.057 1448.06 109.124C1448.11 110.187 1448.28 110.917 1448.52 111.55C1448.78 112.222 1449.17 112.824 1449.68 113.324C1450.18 113.832 1450.79 114.227 1451.45 114.477C1452.09 114.723 1452.81 114.895 1453.88 114.941C1454.94 114.988 1455.28 115 1458 115C1460.72 115 1461.06 114.988 1462.12 114.941C1463.19 114.895 1463.92 114.723 1464.55 114.477C1465.89 113.957 1466.96 112.894 1467.48 111.55C1467.72 110.913 1467.89 110.187 1467.94 109.124C1467.99 108.057 1468 107.717 1468 105.002C1468 102.287 1468 101.947 1467.95 100.88ZM1466.15 109.046C1466.1 110.023 1465.94 110.55 1465.8 110.902C1465.47 111.773 1464.78 112.464 1463.9 112.8C1463.55 112.937 1463.02 113.101 1462.05 113.144C1460.99 113.191 1460.68 113.203 1458.01 113.203C1455.34 113.203 1455.02 113.191 1453.97 113.144C1452.99 113.101 1452.46 112.937 1452.11 112.8C1451.68 112.64 1451.28 112.386 1450.96 112.054C1450.63 111.73 1450.38 111.339 1450.22 110.906C1450.08 110.554 1449.91 110.023 1449.87 109.05C1449.82 107.995 1449.81 107.678 1449.81 105.01C1449.81 102.341 1449.82 102.021 1449.87 100.97C1449.91 99.9932 1450.08 99.4658 1450.22 99.1141C1450.38 98.6804 1450.63 98.2859 1450.97 97.9654C1451.29 97.6333 1451.68 97.3793 1452.11 97.2192C1452.47 97.0825 1453 96.9184 1453.97 96.8754C1455.03 96.8285 1455.34 96.8168 1458.01 96.8168C1460.68 96.8168 1461 96.8285 1462.05 96.8754C1463.03 96.9184 1463.56 97.0825 1463.91 97.2192C1464.34 97.3793 1464.74 97.6333 1465.06 97.9654C1465.39 98.2897 1465.64 98.6804 1465.8 99.1141C1465.94 99.4658 1466.1 99.997 1466.15 100.97C1466.19 102.025 1466.21 102.341 1466.21 105.01C1466.21 107.678 1466.19 107.991 1466.15 109.046Z" fill="#020105"/>
<path d="M1458 100C1455.24 100 1453 102.239 1453 105C1453 107.761 1455.24 110 1458 110C1460.76 110 1463 107.761 1463 105C1463 102.239 1460.76 100 1458 100ZM1458 108.243C1456.21 108.243 1454.76 106.791 1454.76 105C1454.76 103.209 1456.21 101.757 1458 101.757C1459.79 101.757 1461.24 103.209 1461.24 105C1461.24 106.791 1459.79 108.243 1458 108.243Z" fill="#020105"/>
<path d="M1465 99.5C1465 100.328 1464.33 101 1463.5 101C1462.67 101 1462 100.328 1462 99.5C1462 98.6715 1462.67 98 1463.5 98C1464.33 98 1465 98.6715 1465 99.5Z" fill="#020105"/>
<path d="M1508.66 96.4928C1508.39 96.175 1507.99 96 1507.53 96C1507.28 96 1507.01 96.0511 1506.74 96.1523L1488.11 103.027C1487.12 103.392 1486.99 103.939 1487 104.233C1487.01 104.527 1487.17 105.066 1488.18 105.376C1488.19 105.378 1488.19 105.379 1488.2 105.381L1492.06 106.45L1494.15 112.227C1494.44 113.015 1495.08 113.504 1495.82 113.504C1496.29 113.504 1496.75 113.314 1497.16 112.954L1499.55 110.826L1503.01 113.525C1503.01 113.525 1503.01 113.525 1503.01 113.526L1503.04 113.551C1503.05 113.554 1503.05 113.556 1503.05 113.558C1503.44 113.847 1503.86 114 1504.27 114H1504.27C1505.07 114 1505.71 113.426 1505.9 112.537L1508.95 97.9665C1509.07 97.3816 1508.97 96.8583 1508.66 96.4928ZM1493.36 106.247L1500.81 102.565L1496.17 107.334C1496.09 107.412 1496.04 107.507 1496.01 107.611L1495.12 111.116L1493.36 106.247ZM1496.28 112.037C1496.25 112.064 1496.22 112.089 1496.19 112.111L1497.02 108.86L1498.53 110.036L1496.28 112.037ZM1507.69 97.7189L1504.63 112.289C1504.61 112.429 1504.51 112.753 1504.27 112.753C1504.15 112.753 1504 112.69 1503.85 112.576L1499.92 109.519C1499.92 109.518 1499.92 109.518 1499.92 109.517L1497.58 107.698L1504.29 100.802C1504.51 100.581 1504.53 100.243 1504.34 100.001C1504.15 99.7581 1503.81 99.6818 1503.53 99.8198L1492.49 105.273L1488.58 104.189L1507.2 97.3169C1507.35 97.2588 1507.46 97.2466 1507.53 97.2466C1507.57 97.2466 1507.64 97.2511 1507.66 97.2821C1507.7 97.3226 1507.74 97.4604 1507.69 97.7189Z" fill="#020105"/>
<mask id="path-14-inside-1_3_197" fill="white">
<path fill-rule="evenodd" clip-rule="evenodd" d="M1547.84 96.5384C1548.91 96.8284 1549.76 97.6775 1550.05 98.7543C1550.59 100.722 1550.57 104.822 1550.57 104.822C1550.57 104.822 1550.57 108.902 1550.05 110.869C1549.76 111.946 1548.91 112.795 1547.84 113.085C1545.87 113.603 1538 113.603 1538 113.603C1538 113.603 1530.15 113.603 1528.16 113.064C1527.09 112.775 1526.24 111.925 1525.95 110.849C1525.43 108.902 1525.43 104.801 1525.43 104.801C1525.43 104.801 1525.43 100.722 1525.95 98.7543C1526.24 97.6775 1527.11 96.8077 1528.16 96.5177C1530.13 96 1538 96 1538 96C1538 96 1545.87 96 1547.84 96.5384ZM1542.04 104.658L1535.49 108.427V100.889L1542.04 104.658Z"/>
</mask>
<path d="M1550.05 98.7543L1548.89 99.0663L1548.9 99.0711L1550.05 98.7543ZM1547.84 96.5384L1547.52 97.6959L1547.52 97.6972L1547.84 96.5384ZM1550.57 104.822L1549.37 104.816V104.822H1550.57ZM1550.05 110.869L1551.21 111.181L1551.21 111.175L1550.05 110.869ZM1547.84 113.085L1548.14 114.246L1548.15 114.244L1547.84 113.085ZM1528.16 113.064L1528.48 111.906L1528.48 111.906L1528.16 113.064ZM1525.95 110.849L1524.79 111.157L1524.79 111.161L1525.95 110.849ZM1525.95 98.7543L1524.79 98.4424L1524.79 98.4489L1525.95 98.7543ZM1528.16 96.5177L1527.86 95.3572L1527.85 95.3605L1528.16 96.5177ZM1535.49 108.427H1534.29V110.503L1536.09 109.467L1535.49 108.427ZM1542.04 104.658L1542.64 105.698L1544.44 104.658L1542.64 103.618L1542.04 104.658ZM1535.49 100.889L1536.09 99.8488L1534.29 98.8127V100.889H1535.49ZM1551.21 98.4424C1550.81 96.9525 1549.64 95.7808 1548.15 95.3797L1547.52 97.6972C1548.19 97.8759 1548.72 98.4024 1548.89 99.0663L1551.21 98.4424ZM1550.57 104.822C1551.77 104.828 1551.77 104.828 1551.77 104.828C1551.77 104.828 1551.77 104.828 1551.77 104.828C1551.77 104.827 1551.77 104.827 1551.77 104.827C1551.77 104.826 1551.77 104.825 1551.77 104.824C1551.77 104.822 1551.77 104.818 1551.77 104.814C1551.77 104.805 1551.77 104.793 1551.77 104.776C1551.77 104.744 1551.77 104.697 1551.77 104.637C1551.77 104.517 1551.77 104.345 1551.77 104.132C1551.76 103.707 1551.74 103.12 1551.71 102.467C1551.65 101.2 1551.52 99.5627 1551.21 98.4376L1548.9 99.0711C1549.13 99.9133 1549.25 101.309 1549.32 102.585C1549.35 103.204 1549.36 103.764 1549.37 104.169C1549.37 104.372 1549.37 104.535 1549.37 104.647C1549.37 104.703 1549.37 104.746 1549.37 104.775C1549.37 104.789 1549.37 104.8 1549.37 104.807C1549.37 104.81 1549.37 104.813 1549.37 104.814C1549.37 104.815 1549.37 104.816 1549.37 104.816C1549.37 104.816 1549.37 104.816 1549.37 104.816C1549.37 104.816 1549.37 104.816 1549.37 104.816C1549.37 104.816 1549.37 104.816 1550.57 104.822ZM1551.21 111.175C1551.51 110.057 1551.64 108.431 1551.7 107.169C1551.74 106.521 1551.75 105.936 1551.76 105.514C1551.77 105.302 1551.77 105.131 1551.77 105.012C1551.77 104.952 1551.77 104.906 1551.77 104.873C1551.77 104.857 1551.77 104.845 1551.77 104.836C1551.77 104.832 1551.77 104.829 1551.77 104.826C1551.77 104.825 1551.77 104.824 1551.77 104.824C1551.77 104.823 1551.77 104.823 1551.77 104.823C1551.77 104.823 1551.77 104.822 1551.77 104.822C1551.77 104.822 1551.77 104.822 1550.57 104.822C1549.37 104.822 1549.37 104.822 1549.37 104.822C1549.37 104.822 1549.37 104.822 1549.37 104.822C1549.37 104.822 1549.37 104.822 1549.37 104.822C1549.37 104.823 1549.37 104.823 1549.37 104.824C1549.37 104.825 1549.37 104.828 1549.37 104.831C1549.37 104.838 1549.37 104.849 1549.37 104.863C1549.37 104.892 1549.37 104.935 1549.37 104.991C1549.37 105.102 1549.37 105.265 1549.36 105.467C1549.35 105.871 1549.34 106.429 1549.31 107.047C1549.24 108.316 1549.12 109.714 1548.89 110.564L1551.21 111.175ZM1548.15 114.244C1549.64 113.843 1550.81 112.671 1551.21 111.181L1548.89 110.557C1548.72 111.221 1548.19 111.748 1547.52 111.926L1548.15 114.244ZM1538 113.603C1538 114.803 1538 114.803 1538 114.803C1538 114.803 1538 114.803 1538 114.803C1538 114.803 1538 114.803 1538 114.803C1538 114.803 1538 114.803 1538.01 114.803C1538.01 114.803 1538.02 114.803 1538.02 114.803C1538.04 114.803 1538.06 114.803 1538.09 114.803C1538.15 114.803 1538.24 114.802 1538.35 114.802C1538.57 114.801 1538.89 114.799 1539.27 114.795C1540.05 114.787 1541.1 114.77 1542.22 114.738C1543.33 114.705 1544.52 114.656 1545.56 114.581C1546.56 114.509 1547.53 114.407 1548.14 114.246L1547.53 111.925C1547.16 112.022 1546.41 112.114 1545.38 112.188C1544.39 112.259 1543.24 112.307 1542.15 112.339C1541.05 112.371 1540.01 112.387 1539.25 112.395C1538.87 112.399 1538.55 112.401 1538.34 112.402C1538.23 112.402 1538.14 112.403 1538.09 112.403C1538.06 112.403 1538.04 112.403 1538.02 112.403C1538.01 112.403 1538.01 112.403 1538.01 112.403C1538 112.403 1538 112.403 1538 112.403C1538 112.403 1538 112.403 1538 112.403C1538 112.403 1538 112.403 1538 112.403C1538 112.403 1538 112.403 1538 113.603ZM1527.85 114.223C1528.47 114.391 1529.44 114.497 1530.45 114.572C1531.49 114.65 1532.68 114.701 1533.79 114.735C1534.91 114.769 1535.96 114.786 1536.73 114.794C1537.12 114.799 1537.43 114.801 1537.65 114.802C1537.76 114.802 1537.85 114.803 1537.91 114.803C1537.94 114.803 1537.96 114.803 1537.98 114.803C1537.98 114.803 1537.99 114.803 1537.99 114.803C1538 114.803 1538 114.803 1538 114.803C1538 114.803 1538 114.803 1538 114.803C1538 114.803 1538 114.803 1538 114.803C1538 114.803 1538 114.803 1538 113.603C1538 112.403 1538 112.403 1538 112.403C1538 112.403 1538 112.403 1538 112.403C1538 112.403 1538 112.403 1538 112.403C1538 112.403 1538 112.403 1537.99 112.403C1537.99 112.403 1537.99 112.403 1537.98 112.403C1537.96 112.403 1537.94 112.403 1537.91 112.403C1537.86 112.403 1537.77 112.402 1537.66 112.402C1537.45 112.401 1537.14 112.399 1536.76 112.395C1535.99 112.386 1534.96 112.37 1533.86 112.336C1532.77 112.303 1531.62 112.253 1530.63 112.179C1529.6 112.103 1528.85 112.007 1528.48 111.906L1527.85 114.223ZM1524.79 111.161C1525.19 112.65 1526.36 113.822 1527.85 114.223L1528.48 111.906C1527.81 111.727 1527.28 111.201 1527.11 110.537L1524.79 111.161ZM1525.43 104.801C1524.23 104.801 1524.23 104.802 1524.23 104.802C1524.23 104.802 1524.23 104.802 1524.23 104.802C1524.23 104.802 1524.23 104.802 1524.23 104.803C1524.23 104.803 1524.23 104.804 1524.23 104.806C1524.23 104.808 1524.23 104.811 1524.23 104.816C1524.23 104.824 1524.23 104.837 1524.23 104.853C1524.23 104.885 1524.23 104.932 1524.23 104.992C1524.23 105.112 1524.23 105.284 1524.24 105.496C1524.25 105.92 1524.26 106.506 1524.3 107.156C1524.36 108.42 1524.49 110.048 1524.79 111.157L1527.11 110.54C1526.88 109.703 1526.76 108.307 1526.69 107.034C1526.66 106.415 1526.65 105.855 1526.64 105.449C1526.63 105.247 1526.63 105.083 1526.63 104.971C1526.63 104.915 1526.63 104.872 1526.63 104.843C1526.63 104.829 1526.63 104.818 1526.63 104.811C1526.63 104.807 1526.63 104.805 1526.63 104.803C1526.63 104.802 1526.63 104.802 1526.63 104.802C1526.63 104.801 1526.63 104.801 1526.63 104.801C1526.63 104.801 1526.63 104.801 1526.63 104.801C1526.63 104.801 1526.63 104.801 1525.43 104.801ZM1524.79 98.4489C1524.49 99.5665 1524.36 101.192 1524.3 102.454C1524.26 103.103 1524.25 103.688 1524.24 104.11C1524.23 104.321 1524.23 104.493 1524.23 104.612C1524.23 104.671 1524.23 104.718 1524.23 104.75C1524.23 104.766 1524.23 104.779 1524.23 104.787C1524.23 104.792 1524.23 104.795 1524.23 104.797C1524.23 104.798 1524.23 104.799 1524.23 104.8C1524.23 104.8 1524.23 104.801 1524.23 104.801C1524.23 104.801 1524.23 104.801 1524.23 104.801C1524.23 104.801 1524.23 104.801 1525.43 104.801C1526.63 104.801 1526.63 104.802 1526.63 104.802C1526.63 104.802 1526.63 104.802 1526.63 104.802C1526.63 104.802 1526.63 104.801 1526.63 104.801C1526.63 104.801 1526.63 104.8 1526.63 104.8C1526.63 104.798 1526.63 104.796 1526.63 104.792C1526.63 104.785 1526.63 104.774 1526.63 104.76C1526.63 104.732 1526.63 104.689 1526.63 104.633C1526.63 104.521 1526.63 104.359 1526.64 104.157C1526.65 103.753 1526.66 103.194 1526.69 102.577C1526.76 101.307 1526.88 99.9095 1527.11 99.0597L1524.79 98.4489ZM1527.85 95.3605C1526.38 95.7636 1525.19 96.9561 1524.79 98.4424L1527.11 99.0663C1527.29 98.3988 1527.84 97.8518 1528.48 97.6749L1527.85 95.3605ZM1538 96C1538 94.8 1538 94.8 1538 94.8C1538 94.8 1538 94.8 1538 94.8C1538 94.8 1538 94.8 1538 94.8C1538 94.8 1538 94.8 1537.99 94.8C1537.99 94.8 1537.98 94.8 1537.98 94.8C1537.96 94.8 1537.94 94.8001 1537.91 94.8001C1537.85 94.8003 1537.76 94.8005 1537.65 94.801C1537.43 94.802 1537.11 94.8041 1536.73 94.8082C1535.95 94.8163 1534.9 94.8326 1533.78 94.8652C1532.67 94.8978 1531.48 94.947 1530.44 95.0215C1529.44 95.0937 1528.47 95.1955 1527.86 95.3572L1528.47 97.6782C1528.84 97.5811 1529.59 97.4888 1530.62 97.4153C1531.61 97.3443 1532.76 97.2963 1533.85 97.2642C1534.95 97.2321 1535.99 97.2161 1536.75 97.208C1537.13 97.204 1537.45 97.202 1537.66 97.201C1537.77 97.2005 1537.86 97.2002 1537.91 97.2001C1537.94 97.2001 1537.96 97.2 1537.98 97.2C1537.99 97.2 1537.99 97.2 1537.99 97.2C1538 97.2 1538 97.2 1538 97.2C1538 97.2 1538 97.2 1538 97.2C1538 97.2 1538 97.2 1538 97.2C1538 97.2 1538 97.2 1538 96ZM1548.15 95.381C1547.53 95.2117 1546.56 95.1055 1545.56 95.0305C1544.52 94.9529 1543.33 94.9018 1542.22 94.8679C1541.1 94.8339 1540.05 94.817 1539.27 94.8085C1538.89 94.8042 1538.57 94.8021 1538.35 94.8011C1538.24 94.8005 1538.15 94.8003 1538.09 94.8001C1538.06 94.8001 1538.04 94.8 1538.02 94.8C1538.02 94.8 1538.01 94.8 1538.01 94.8C1538 94.8 1538 94.8 1538 94.8C1538 94.8 1538 94.8 1538 94.8C1538 94.8 1538 94.8 1538 94.8C1538 94.8 1538 94.8 1538 96C1538 97.2 1538 97.2 1538 97.2C1538 97.2 1538 97.2 1538 97.2C1538 97.2 1538 97.2 1538 97.2C1538 97.2 1538 97.2 1538.01 97.2C1538.01 97.2 1538.01 97.2 1538.02 97.2C1538.04 97.2 1538.06 97.2001 1538.09 97.2001C1538.14 97.2003 1538.23 97.2005 1538.34 97.201C1538.55 97.2021 1538.87 97.2042 1539.25 97.2083C1540.01 97.2167 1541.05 97.2334 1542.14 97.2668C1543.24 97.3002 1544.39 97.35 1545.38 97.4238C1546.4 97.5002 1547.16 97.596 1547.52 97.6959L1548.15 95.381ZM1536.09 109.467L1542.64 105.698L1541.44 103.618L1534.9 107.387L1536.09 109.467ZM1534.29 100.889V108.427H1536.69V100.889H1534.29ZM1542.64 103.618L1536.09 99.8488L1534.9 101.929L1541.44 105.698L1542.64 103.618Z" fill="#020105" mask="url(#path-14-inside-1_3_197)"/>
</svg>
