<svg width="114" height="114" viewBox="0 0 114 114" fill="none" xmlns="http://www.w3.org/2000/svg">
<path d="M57 0L67.7223 27.5406L93.6389 13.3355L84.1499 41.325L113.134 47.1021L87.8737 62.4439L106.363 85.5L77.1514 81.0155L76.4951 110.562L57 88.35L37.5049 110.562L36.8486 81.0155L7.63655 85.5L26.1263 62.4439L0.865959 47.1021L29.8501 41.325L20.3611 13.3355L46.2777 27.5406L57 0Z" fill="#26D367"/>
<path d="M50.2 65.24C48.2 65.24 46.672 64.488 45.616 62.984C44.56 61.464 44.032 59.304 44.032 56.504C44.032 53.672 44.56 51.52 45.616 50.048C46.672 48.576 48.2 47.84 50.2 47.84C52.216 47.84 53.744 48.576 54.784 50.048C55.84 51.52 56.368 53.664 56.368 56.48C56.368 59.296 55.84 61.464 54.784 62.984C53.728 64.488 52.2 65.24 50.2 65.24ZM50.2 62.72C51.288 62.72 52.088 62.216 52.6 61.208C53.128 60.2 53.392 58.624 53.392 56.48C53.392 54.336 53.128 52.784 52.6 51.824C52.088 50.848 51.288 50.36 50.2 50.36C49.128 50.36 48.328 50.848 47.8 51.824C47.272 52.784 47.008 54.336 47.008 56.48C47.008 58.624 47.272 60.2 47.8 61.208C48.328 62.216 49.128 62.72 50.2 62.72ZM67.3026 65.192C66.8226 65.192 66.4466 65.064 66.1746 64.808C65.9026 64.536 65.7666 64.152 65.7666 63.656V61.784H59.8386C59.3426 61.784 58.9426 61.68 58.6386 61.472C58.3506 61.264 58.2066 60.944 58.2066 60.512C58.2066 60.24 58.2706 59.952 58.3986 59.648C58.5426 59.344 58.7906 58.944 59.1426 58.448L65.7186 48.92C65.9426 48.584 66.1906 48.328 66.4626 48.152C66.7346 47.976 67.0466 47.888 67.3986 47.888C67.8146 47.888 68.1586 48.016 68.4306 48.272C68.7026 48.512 68.8386 48.896 68.8386 49.424V59.24H70.0146C70.9426 59.24 71.4066 59.664 71.4066 60.512C71.4066 61.36 70.9426 61.784 70.0146 61.784H68.8386V63.656C68.8386 64.152 68.7026 64.536 68.4306 64.808C68.1586 65.064 67.7826 65.192 67.3026 65.192ZM65.7666 59.24V52.784L61.3506 59.24H65.7666Z" fill="white"/>
</svg>
