<svg width="122" height="122" viewBox="0 0 122 122" fill="none" xmlns="http://www.w3.org/2000/svg">
<path d="M61 0L73.5492 43.7275L119.014 42.15L81.3051 67.5975L96.8549 110.35L61 82.35L25.1451 110.35L40.6949 67.5975L2.98555 42.15L48.4508 43.7275L61 0Z" fill="#6868AC"/>
<path d="M54.2 69.24C52.2 69.24 50.672 68.488 49.616 66.984C48.56 65.464 48.032 63.304 48.032 60.504C48.032 57.672 48.56 55.52 49.616 54.048C50.672 52.576 52.2 51.84 54.2 51.84C56.216 51.84 57.744 52.576 58.784 54.048C59.84 55.52 60.368 57.664 60.368 60.48C60.368 63.296 59.84 65.464 58.784 66.984C57.728 68.488 56.2 69.24 54.2 69.24ZM54.2 66.72C55.288 66.72 56.088 66.216 56.6 65.208C57.128 64.2 57.392 62.624 57.392 60.48C57.392 58.336 57.128 56.784 56.6 55.824C56.088 54.848 55.288 54.36 54.2 54.36C53.128 54.36 52.328 54.848 51.8 55.824C51.272 56.784 51.008 58.336 51.008 60.48C51.008 62.624 51.272 64.2 51.8 65.208C52.328 66.216 53.128 66.72 54.2 66.72ZM64.5826 69C64.0706 69 63.6946 68.888 63.4546 68.664C63.2306 68.424 63.1186 68.08 63.1186 67.632C63.1186 67.36 63.1906 67.096 63.3346 66.84C63.4786 66.584 63.6866 66.312 63.9586 66.024L68.7826 60.888C69.5186 60.12 70.0466 59.424 70.3666 58.8C70.6866 58.16 70.8466 57.52 70.8466 56.88C70.8466 55.248 69.8626 54.432 67.8946 54.432C67.3506 54.432 66.8066 54.512 66.2626 54.672C65.7186 54.816 65.1666 55.072 64.6066 55.44C64.2546 55.68 63.9266 55.752 63.6226 55.656C63.3186 55.56 63.0866 55.368 62.9266 55.08C62.7666 54.776 62.7106 54.456 62.7586 54.12C62.8226 53.784 63.0306 53.496 63.3826 53.256C64.0706 52.792 64.8386 52.44 65.6866 52.2C66.5506 51.96 67.4146 51.84 68.2786 51.84C70.0866 51.84 71.4706 52.248 72.4306 53.064C73.4066 53.88 73.8946 55.048 73.8946 56.568C73.8946 57.592 73.6466 58.576 73.1506 59.52C72.6706 60.464 71.9106 61.48 70.8706 62.568L67.1506 66.456H73.4146C74.2946 66.456 74.7346 66.872 74.7346 67.704C74.7346 68.568 74.2946 69 73.4146 69H64.5826Z" fill="white"/>
</svg>
