<svg width="120" height="120" viewBox="0 0 120 120" fill="none" xmlns="http://www.w3.org/2000/svg">
<path d="M56.7004 2.89802C58.5878 1.24031 61.4122 1.24031 63.2995 2.89801L79.2584 16.9147C79.9436 17.5165 80.7803 17.9195 81.678 18.08L102.587 21.8178C105.06 22.2599 106.821 24.468 106.701 26.9772L105.693 48.1936C105.65 49.1045 105.856 50.0099 106.29 50.8119L116.405 69.4896C117.601 71.6985 116.972 74.452 114.936 75.9232L97.7196 88.3629C96.9804 88.897 96.4014 89.6231 96.0452 90.4626L87.7484 110.015C86.7672 112.328 84.2226 113.553 81.8028 112.879L61.3428 107.174C60.4644 106.929 59.5356 106.929 58.6572 107.174L38.1972 112.879C35.7774 113.553 33.2328 112.328 32.2516 110.015L23.9548 90.4626C23.5986 89.6231 23.0196 88.897 22.2804 88.3629L5.0639 75.9232C3.02778 74.452 2.3993 71.6985 3.59546 69.4896L13.7096 50.8119C14.1438 50.0099 14.3505 49.1045 14.3072 48.1936L13.2986 26.9772C13.1794 24.468 14.9403 22.2599 17.4131 21.8178L38.322 18.08C39.2197 17.9195 40.0564 17.5165 40.7416 16.9147L56.7004 2.89802Z" fill="#40BFF4"/>
<path d="M53.2 68.24C51.2 68.24 49.672 67.488 48.616 65.984C47.56 64.464 47.032 62.304 47.032 59.504C47.032 56.672 47.56 54.52 48.616 53.048C49.672 51.576 51.2 50.84 53.2 50.84C55.216 50.84 56.744 51.576 57.784 53.048C58.84 54.52 59.368 56.664 59.368 59.48C59.368 62.296 58.84 64.464 57.784 65.984C56.728 67.488 55.2 68.24 53.2 68.24ZM53.2 65.72C54.288 65.72 55.088 65.216 55.6 64.208C56.128 63.2 56.392 61.624 56.392 59.48C56.392 57.336 56.128 55.784 55.6 54.824C55.088 53.848 54.288 53.36 53.2 53.36C52.128 53.36 51.328 53.848 50.8 54.824C50.272 55.784 50.008 57.336 50.008 59.48C50.008 61.624 50.272 63.2 50.8 64.208C51.328 65.216 52.128 65.72 53.2 65.72ZM64.1346 68C63.2546 68 62.8146 67.568 62.8146 66.704C62.8146 65.872 63.2546 65.456 64.1346 65.456H66.8226V54.584L64.7826 55.808C64.3986 56.032 64.0466 56.088 63.7266 55.976C63.4226 55.864 63.1906 55.664 63.0306 55.376C62.8706 55.088 62.8226 54.776 62.8866 54.44C62.9506 54.088 63.1746 53.8 63.5586 53.576L66.8706 51.584C67.1906 51.392 67.5106 51.232 67.8306 51.104C68.1506 50.96 68.4466 50.888 68.7186 50.888C69.0546 50.888 69.3346 50.984 69.5586 51.176C69.7826 51.352 69.8946 51.648 69.8946 52.064V65.456H72.3426C73.2226 65.456 73.6626 65.872 73.6626 66.704C73.6626 67.568 73.2226 68 72.3426 68H64.1346Z" fill="white"/>
</svg>
