<svg width="1210" height="220" viewBox="0 0 1210 220" fill="none" xmlns="http://www.w3.org/2000/svg">
<rect x="800" width="380" height="182" rx="24" fill="url(#paint0_linear_3_113)"/>
<path d="M845.332 45.4063H831.188M834.667 54.3022H845.333M836.958 71.2813C837.945 73.6147 840.254 75.252 842.948 75.252C845.601 75.252 847.886 73.66 848.894 71.38M863.542 71.3751C864.478 73.8177 866.843 75.5511 869.614 75.5511C872.307 75.5511 874.616 73.9137 875.603 71.5804M831.115 36.448H863.112V64.8853H834.717M863.104 43.5626H873.776L880.886 54.2239V64.8879H855.104M874.208 54.2188H863.542" stroke="white" stroke-width="2" stroke-miterlimit="10" stroke-linecap="round" stroke-linejoin="round"/>
<g opacity="0.32">
<path d="M1098.47 120.301L1069.49 128.068M1081.5 144.389L1103.36 138.531M1095.52 177.927C1098.82 182.167 1104.46 184.255 1109.98 182.776C1115.41 181.319 1119.22 176.801 1120.04 171.575M1150.05 163.522C1153.31 168.014 1159.11 170.267 1164.79 168.745C1170.31 167.266 1174.14 162.643 1174.88 157.319M1064.42 109.749L1129.99 92.1779L1145.61 150.457L1087.42 166.05M1133.88 106.763L1155.75 100.902L1176.18 118.848L1182.03 140.703L1129.2 154.86M1162.49 122.504L1140.63 128.361" stroke="white" stroke-width="4" stroke-miterlimit="10" stroke-linecap="round" stroke-linejoin="round"/>
</g>
<path d="M829.72 124.2C829 124.2 828.253 124.107 827.48 123.92C826.707 123.733 826.033 123.453 825.46 123.08C825.127 122.853 824.927 122.6 824.86 122.32C824.793 122.027 824.827 121.767 824.96 121.54C825.093 121.3 825.293 121.14 825.56 121.06C825.84 120.98 826.153 121.033 826.5 121.22C827.047 121.513 827.573 121.727 828.08 121.86C828.587 121.98 829.107 122.04 829.64 122.04C831.44 122.04 832.34 121.333 832.34 119.92C832.34 119.253 832.113 118.76 831.66 118.44C831.22 118.107 830.573 117.94 829.72 117.94H828.44C828.067 117.94 827.78 117.847 827.58 117.66C827.393 117.473 827.3 117.213 827.3 116.88C827.3 116.547 827.393 116.287 827.58 116.1C827.78 115.913 828.067 115.82 828.44 115.82H829.48C830.227 115.82 830.82 115.64 831.26 115.28C831.7 114.907 831.92 114.393 831.92 113.74C831.92 113.127 831.713 112.66 831.3 112.34C830.9 112.02 830.313 111.86 829.54 111.86C829.047 111.86 828.58 111.92 828.14 112.04C827.713 112.147 827.24 112.353 826.72 112.66C826.413 112.847 826.133 112.9 825.88 112.82C825.627 112.727 825.427 112.567 825.28 112.34C825.147 112.1 825.107 111.84 825.16 111.56C825.213 111.28 825.4 111.04 825.72 110.84C826.893 110.08 828.24 109.7 829.76 109.7C831.227 109.7 832.367 110.033 833.18 110.7C833.993 111.353 834.4 112.267 834.4 113.44C834.4 114.2 834.207 114.867 833.82 115.44C833.433 116.013 832.907 116.427 832.24 116.68C833.053 116.907 833.687 117.327 834.14 117.94C834.593 118.54 834.82 119.273 834.82 120.14C834.82 121.393 834.367 122.387 833.46 123.12C832.553 123.84 831.307 124.2 829.72 124.2ZM838.492 124.1C838.039 124.1 837.672 123.96 837.392 123.68C837.126 123.4 836.992 123.04 836.992 122.6C836.992 122.173 837.126 121.827 837.392 121.56C837.672 121.28 838.039 121.14 838.492 121.14C838.959 121.14 839.319 121.28 839.572 121.56C839.839 121.827 839.972 122.173 839.972 122.6C839.972 123.04 839.839 123.4 839.572 123.68C839.319 123.96 838.959 124.1 838.492 124.1ZM849.123 124.16C848.349 124.16 847.963 123.76 847.963 122.96V110.94C847.963 110.14 848.363 109.74 849.163 109.74C849.496 109.74 849.756 109.807 849.943 109.94C850.143 110.06 850.323 110.273 850.483 110.58L855.103 119.12L859.723 110.58C859.883 110.273 860.056 110.06 860.243 109.94C860.429 109.807 860.689 109.74 861.023 109.74C861.796 109.74 862.183 110.14 862.183 110.94V122.96C862.183 123.76 861.796 124.16 861.023 124.16C860.249 124.16 859.863 123.76 859.863 122.96V114.5L856.103 121.36C855.969 121.587 855.829 121.753 855.683 121.86C855.536 121.967 855.336 122.02 855.083 122.02C854.829 122.02 854.623 121.967 854.463 121.86C854.303 121.74 854.163 121.573 854.043 121.36L850.283 114.54V122.96C850.283 123.76 849.896 124.16 849.123 124.16ZM868.266 124.2C867.559 124.2 866.926 124.067 866.366 123.8C865.819 123.52 865.386 123.147 865.066 122.68C864.759 122.213 864.606 121.687 864.606 121.1C864.606 120.38 864.793 119.813 865.166 119.4C865.539 118.973 866.146 118.667 866.986 118.48C867.826 118.293 868.953 118.2 870.366 118.2H871.066V117.78C871.066 117.113 870.919 116.633 870.626 116.34C870.333 116.047 869.839 115.9 869.146 115.9C868.759 115.9 868.339 115.947 867.886 116.04C867.446 116.133 866.979 116.293 866.486 116.52C866.166 116.667 865.899 116.687 865.686 116.58C865.473 116.46 865.326 116.28 865.246 116.04C865.179 115.787 865.193 115.533 865.286 115.28C865.393 115.027 865.599 114.84 865.906 114.72C866.519 114.467 867.106 114.287 867.666 114.18C868.239 114.073 868.759 114.02 869.226 114.02C870.653 114.02 871.713 114.353 872.406 115.02C873.099 115.673 873.446 116.693 873.446 118.08V122.88C873.446 123.733 873.059 124.16 872.286 124.16C871.499 124.16 871.106 123.733 871.106 122.88V122.44C870.879 122.987 870.519 123.42 870.026 123.74C869.533 124.047 868.946 124.2 868.266 124.2ZM868.786 122.48C869.439 122.48 869.979 122.253 870.406 121.8C870.846 121.347 871.066 120.773 871.066 120.08V119.64H870.386C869.133 119.64 868.259 119.74 867.766 119.94C867.286 120.127 867.046 120.473 867.046 120.98C867.046 121.42 867.199 121.78 867.506 122.06C867.813 122.34 868.239 122.48 868.786 122.48ZM877.224 124.16C876.397 124.16 875.984 123.733 875.984 122.88V115.32C875.984 114.48 876.39 114.06 877.204 114.06C878.017 114.06 878.424 114.48 878.424 115.32V115.74C878.757 115.18 879.204 114.753 879.764 114.46C880.337 114.167 880.977 114.02 881.684 114.02C883.99 114.02 885.144 115.36 885.144 118.04V122.88C885.144 123.733 884.73 124.16 883.904 124.16C883.064 124.16 882.644 123.733 882.644 122.88V118.16C882.644 117.4 882.497 116.847 882.204 116.5C881.924 116.153 881.484 115.98 880.884 115.98C880.15 115.98 879.564 116.213 879.124 116.68C878.697 117.133 878.484 117.74 878.484 118.5V122.88C878.484 123.733 878.064 124.16 877.224 124.16ZM888.283 124C887.936 124 887.676 123.893 887.503 123.68C887.329 123.453 887.256 123.187 887.283 122.88C887.309 122.573 887.449 122.28 887.703 122L892.403 116.1H888.163C887.523 116.1 887.203 115.787 887.203 115.16C887.203 114.533 887.523 114.22 888.163 114.22H894.083C894.483 114.22 894.776 114.327 894.963 114.54C895.163 114.753 895.249 115.013 895.223 115.32C895.209 115.613 895.076 115.9 894.823 116.18L890.063 122.12H894.543C895.183 122.12 895.503 122.433 895.503 123.06C895.503 123.687 895.183 124 894.543 124H888.283ZM898.395 112.22C897.929 112.22 897.562 112.107 897.295 111.88C897.042 111.64 896.915 111.313 896.915 110.9C896.915 110.473 897.042 110.147 897.295 109.92C897.562 109.693 897.929 109.58 898.395 109.58C899.382 109.58 899.875 110.02 899.875 110.9C899.875 111.78 899.382 112.22 898.395 112.22ZM898.395 124.14C897.995 124.14 897.689 124.02 897.475 123.78C897.262 123.54 897.155 123.207 897.155 122.78V115.44C897.155 114.533 897.569 114.08 898.395 114.08C899.235 114.08 899.655 114.533 899.655 115.44V122.78C899.655 123.207 899.549 123.54 899.335 123.78C899.122 124.02 898.809 124.14 898.395 124.14ZM905.593 124.2C903.366 124.2 902.253 122.953 902.253 120.46V111C902.253 110.16 902.666 109.74 903.493 109.74C904.333 109.74 904.753 110.16 904.753 111V120.34C904.753 121.54 905.253 122.14 906.253 122.14C906.36 122.14 906.46 122.14 906.553 122.14C906.646 122.127 906.74 122.113 906.833 122.1C907.02 122.073 907.146 122.127 907.213 122.26C907.28 122.38 907.313 122.633 907.313 123.02C907.313 123.353 907.246 123.613 907.113 123.8C906.98 123.987 906.76 124.1 906.453 124.14C906.173 124.18 905.886 124.2 905.593 124.2ZM909.88 112.22C909.413 112.22 909.047 112.107 908.78 111.88C908.527 111.64 908.4 111.313 908.4 110.9C908.4 110.473 908.527 110.147 908.78 109.92C909.047 109.693 909.413 109.58 909.88 109.58C910.867 109.58 911.36 110.02 911.36 110.9C911.36 111.78 910.867 112.22 909.88 112.22ZM909.88 124.14C909.48 124.14 909.173 124.02 908.96 123.78C908.747 123.54 908.64 123.207 908.64 122.78V115.44C908.64 114.533 909.053 114.08 909.88 114.08C910.72 114.08 911.14 114.533 911.14 115.44V122.78C911.14 123.207 911.033 123.54 910.82 123.78C910.607 124.02 910.293 124.14 909.88 124.14ZM914.978 124.16C914.151 124.16 913.738 123.733 913.738 122.88V115.32C913.738 114.48 914.144 114.06 914.958 114.06C915.771 114.06 916.178 114.48 916.178 115.32V115.74C916.511 115.18 916.958 114.753 917.518 114.46C918.091 114.167 918.731 114.02 919.438 114.02C921.744 114.02 922.898 115.36 922.898 118.04V122.88C922.898 123.733 922.484 124.16 921.658 124.16C920.818 124.16 920.398 123.733 920.398 122.88V118.16C920.398 117.4 920.251 116.847 919.958 116.5C919.678 116.153 919.238 115.98 918.638 115.98C917.904 115.98 917.318 116.213 916.878 116.68C916.451 117.133 916.238 117.74 916.238 118.5V122.88C916.238 123.733 915.818 124.16 914.978 124.16ZM929.997 127.8C929.277 127.8 928.577 127.733 927.897 127.6C927.23 127.467 926.623 127.26 926.077 126.98C925.757 126.82 925.563 126.613 925.497 126.36C925.443 126.12 925.47 125.887 925.577 125.66C925.683 125.433 925.843 125.267 926.057 125.16C926.283 125.067 926.523 125.08 926.777 125.2C927.363 125.493 927.917 125.68 928.437 125.76C928.97 125.853 929.423 125.9 929.797 125.9C931.583 125.9 932.477 125.04 932.477 123.32V121.98C932.197 122.527 931.763 122.96 931.177 123.28C930.603 123.6 929.963 123.76 929.257 123.76C928.377 123.76 927.61 123.56 926.957 123.16C926.303 122.747 925.797 122.173 925.437 121.44C925.077 120.707 924.897 119.853 924.897 118.88C924.897 117.907 925.077 117.06 925.437 116.34C925.797 115.607 926.303 115.04 926.957 114.64C927.61 114.227 928.377 114.02 929.257 114.02C929.963 114.02 930.603 114.173 931.177 114.48C931.75 114.787 932.17 115.207 932.437 115.74V115.32C932.437 114.907 932.543 114.593 932.757 114.38C932.983 114.167 933.29 114.06 933.677 114.06C934.503 114.06 934.917 114.48 934.917 115.32V123.02C934.917 124.607 934.497 125.8 933.657 126.6C932.817 127.4 931.597 127.8 929.997 127.8ZM929.937 121.86C930.71 121.86 931.323 121.593 931.777 121.06C932.23 120.527 932.457 119.8 932.457 118.88C932.457 117.96 932.23 117.24 931.777 116.72C931.323 116.187 930.71 115.92 929.937 115.92C929.163 115.92 928.55 116.187 928.097 116.72C927.643 117.24 927.417 117.96 927.417 118.88C927.417 119.8 927.643 120.527 928.097 121.06C928.55 121.593 929.163 121.86 929.937 121.86ZM938.747 112.22C938.28 112.22 937.914 112.107 937.647 111.88C937.394 111.64 937.267 111.313 937.267 110.9C937.267 110.473 937.394 110.147 937.647 109.92C937.914 109.693 938.28 109.58 938.747 109.58C939.734 109.58 940.227 110.02 940.227 110.9C940.227 111.78 939.734 112.22 938.747 112.22ZM938.747 124.14C938.347 124.14 938.04 124.02 937.827 123.78C937.614 123.54 937.507 123.207 937.507 122.78V115.44C937.507 114.533 937.92 114.08 938.747 114.08C939.587 114.08 940.007 114.533 940.007 115.44V122.78C940.007 123.207 939.9 123.54 939.687 123.78C939.474 124.02 939.16 124.14 938.747 124.14ZM943.205 124C942.858 124 942.598 123.893 942.425 123.68C942.251 123.453 942.178 123.187 942.205 122.88C942.231 122.573 942.371 122.28 942.625 122L947.325 116.1H943.085C942.445 116.1 942.125 115.787 942.125 115.16C942.125 114.533 942.445 114.22 943.085 114.22H949.005C949.405 114.22 949.698 114.327 949.885 114.54C950.085 114.753 950.171 115.013 950.145 115.32C950.131 115.613 949.998 115.9 949.745 116.18L944.985 122.12H949.465C950.105 122.12 950.425 122.433 950.425 123.06C950.425 123.687 950.105 124 949.465 124H943.205ZM956.442 127.8C955.722 127.8 955.022 127.733 954.342 127.6C953.675 127.467 953.069 127.26 952.522 126.98C952.202 126.82 952.009 126.613 951.942 126.36C951.889 126.12 951.915 125.887 952.022 125.66C952.129 125.433 952.289 125.267 952.502 125.16C952.729 125.067 952.969 125.08 953.222 125.2C953.809 125.493 954.362 125.68 954.882 125.76C955.415 125.853 955.869 125.9 956.242 125.9C958.029 125.9 958.922 125.04 958.922 123.32V121.98C958.642 122.527 958.209 122.96 957.622 123.28C957.049 123.6 956.409 123.76 955.702 123.76C954.822 123.76 954.055 123.56 953.402 123.16C952.749 122.747 952.242 122.173 951.882 121.44C951.522 120.707 951.342 119.853 951.342 118.88C951.342 117.907 951.522 117.06 951.882 116.34C952.242 115.607 952.749 115.04 953.402 114.64C954.055 114.227 954.822 114.02 955.702 114.02C956.409 114.02 957.049 114.173 957.622 114.48C958.195 114.787 958.615 115.207 958.882 115.74V115.32C958.882 114.907 958.989 114.593 959.202 114.38C959.429 114.167 959.735 114.06 960.122 114.06C960.949 114.06 961.362 114.48 961.362 115.32V123.02C961.362 124.607 960.942 125.8 960.102 126.6C959.262 127.4 958.042 127.8 956.442 127.8ZM956.382 121.86C957.155 121.86 957.769 121.593 958.222 121.06C958.675 120.527 958.902 119.8 958.902 118.88C958.902 117.96 958.675 117.24 958.222 116.72C957.769 116.187 957.155 115.92 956.382 115.92C955.609 115.92 954.995 116.187 954.542 116.72C954.089 117.24 953.862 117.96 953.862 118.88C953.862 119.8 954.089 120.527 954.542 121.06C954.995 121.593 955.609 121.86 956.382 121.86ZM967.172 124.2C966.466 124.2 965.832 124.067 965.272 123.8C964.726 123.52 964.292 123.147 963.972 122.68C963.666 122.213 963.512 121.687 963.512 121.1C963.512 120.38 963.699 119.813 964.072 119.4C964.446 118.973 965.052 118.667 965.892 118.48C966.732 118.293 967.859 118.2 969.272 118.2H969.972V117.78C969.972 117.113 969.826 116.633 969.532 116.34C969.239 116.047 968.746 115.9 968.052 115.9C967.666 115.9 967.246 115.947 966.792 116.04C966.352 116.133 965.886 116.293 965.392 116.52C965.072 116.667 964.806 116.687 964.592 116.58C964.379 116.46 964.232 116.28 964.152 116.04C964.086 115.787 964.099 115.533 964.192 115.28C964.299 115.027 964.506 114.84 964.812 114.72C965.426 114.467 966.012 114.287 966.572 114.18C967.146 114.073 967.666 114.02 968.132 114.02C969.559 114.02 970.619 114.353 971.312 115.02C972.006 115.673 972.352 116.693 972.352 118.08V122.88C972.352 123.733 971.966 124.16 971.192 124.16C970.406 124.16 970.012 123.733 970.012 122.88V122.44C969.786 122.987 969.426 123.42 968.932 123.74C968.439 124.047 967.852 124.2 967.172 124.2ZM967.692 122.48C968.346 122.48 968.886 122.253 969.312 121.8C969.752 121.347 969.972 120.773 969.972 120.08V119.64H969.292C968.039 119.64 967.166 119.74 966.672 119.94C966.192 120.127 965.952 120.473 965.952 120.98C965.952 121.42 966.106 121.78 966.412 122.06C966.719 122.34 967.146 122.48 967.692 122.48ZM987.28 124.16C986.88 124.16 986.566 124.053 986.34 123.84C986.113 123.613 986 123.293 986 122.88V121.32H981.06C980.646 121.32 980.313 121.233 980.06 121.06C979.82 120.887 979.7 120.62 979.7 120.26C979.7 120.033 979.753 119.793 979.86 119.54C979.98 119.287 980.186 118.953 980.48 118.54L985.96 110.6C986.146 110.32 986.353 110.107 986.58 109.96C986.806 109.813 987.066 109.74 987.36 109.74C987.706 109.74 987.993 109.847 988.22 110.06C988.446 110.26 988.56 110.58 988.56 111.02V119.2H989.54C990.313 119.2 990.7 119.553 990.7 120.26C990.7 120.967 990.313 121.32 989.54 121.32H988.56V122.88C988.56 123.293 988.446 123.613 988.22 123.84C987.993 124.053 987.68 124.16 987.28 124.16ZM986 119.2V113.82L982.32 119.2H986ZM997.012 124.2C995.372 124.2 994.085 123.847 993.152 123.14C992.232 122.433 991.772 121.453 991.772 120.2C991.772 119.347 991.992 118.62 992.432 118.02C992.885 117.42 993.472 117 994.192 116.76C993.552 116.48 993.045 116.053 992.672 115.48C992.312 114.907 992.132 114.247 992.132 113.5C992.132 112.313 992.572 111.387 993.452 110.72C994.332 110.04 995.518 109.7 997.012 109.7C998.518 109.7 999.712 110.04 1000.59 110.72C1001.47 111.387 1001.91 112.313 1001.91 113.5C1001.91 114.247 1001.73 114.913 1001.35 115.5C1000.99 116.073 1000.5 116.493 999.872 116.76C1000.59 117 1001.17 117.427 1001.59 118.04C1002.03 118.64 1002.25 119.36 1002.25 120.2C1002.25 121.453 1001.79 122.433 1000.85 123.14C999.932 123.847 998.652 124.2 997.012 124.2ZM997.012 115.86C997.798 115.86 998.412 115.673 998.852 115.3C999.305 114.927 999.532 114.413 999.532 113.76C999.532 113.12 999.305 112.62 998.852 112.26C998.412 111.887 997.798 111.7 997.012 111.7C996.225 111.7 995.612 111.887 995.172 112.26C994.732 112.62 994.512 113.12 994.512 113.76C994.512 114.413 994.732 114.927 995.172 115.3C995.612 115.673 996.225 115.86 997.012 115.86ZM997.012 122.2C998.918 122.2 999.872 121.473 999.872 120.02C999.872 118.58 998.918 117.86 997.012 117.86C996.078 117.86 995.365 118.04 994.872 118.4C994.392 118.76 994.152 119.3 994.152 120.02C994.152 120.74 994.392 121.287 994.872 121.66C995.365 122.02 996.078 122.2 997.012 122.2ZM1013.31 124.2C1012.74 124.2 1012.13 124.14 1011.49 124.02C1010.85 123.9 1010.28 123.693 1009.77 123.4C1009.49 123.24 1009.32 123.047 1009.25 122.82C1009.19 122.58 1009.19 122.36 1009.27 122.16C1009.37 121.947 1009.51 121.793 1009.71 121.7C1009.93 121.607 1010.17 121.627 1010.45 121.76C1010.99 122.013 1011.49 122.193 1011.95 122.3C1012.42 122.393 1012.88 122.44 1013.33 122.44C1013.97 122.44 1014.45 122.333 1014.75 122.12C1015.07 121.893 1015.23 121.6 1015.23 121.24C1015.23 120.68 1014.82 120.32 1013.99 120.16L1011.99 119.78C1010.3 119.46 1009.45 118.58 1009.45 117.14C1009.45 116.5 1009.63 115.947 1009.97 115.48C1010.33 115.013 1010.83 114.653 1011.45 114.4C1012.08 114.147 1012.8 114.02 1013.61 114.02C1014.79 114.02 1015.83 114.28 1016.75 114.8C1017.01 114.933 1017.15 115.12 1017.19 115.36C1017.25 115.587 1017.22 115.807 1017.11 116.02C1017.02 116.22 1016.87 116.367 1016.65 116.46C1016.44 116.54 1016.19 116.513 1015.91 116.38C1015.5 116.167 1015.1 116.013 1014.71 115.92C1014.34 115.827 1013.98 115.78 1013.63 115.78C1012.98 115.78 1012.49 115.893 1012.17 116.12C1011.87 116.347 1011.71 116.647 1011.71 117.02C1011.71 117.607 1012.09 117.967 1012.85 118.1L1014.85 118.48C1015.72 118.64 1016.37 118.933 1016.81 119.36C1017.27 119.787 1017.49 120.36 1017.49 121.08C1017.49 122.053 1017.11 122.82 1016.35 123.38C1015.59 123.927 1014.58 124.2 1013.31 124.2ZM1023.96 124.2C1022.95 124.2 1022.07 123.993 1021.32 123.58C1020.57 123.167 1019.99 122.58 1019.58 121.82C1019.17 121.047 1018.96 120.14 1018.96 119.1C1018.96 118.06 1019.17 117.16 1019.58 116.4C1019.99 115.64 1020.57 115.053 1021.32 114.64C1022.07 114.227 1022.95 114.02 1023.96 114.02C1024.97 114.02 1025.85 114.227 1026.6 114.64C1027.35 115.053 1027.93 115.64 1028.34 116.4C1028.75 117.16 1028.96 118.06 1028.96 119.1C1028.96 120.14 1028.75 121.047 1028.34 121.82C1027.93 122.58 1027.35 123.167 1026.6 123.58C1025.85 123.993 1024.97 124.2 1023.96 124.2ZM1023.96 122.3C1024.71 122.3 1025.31 122.033 1025.76 121.5C1026.21 120.953 1026.44 120.153 1026.44 119.1C1026.44 118.033 1026.21 117.24 1025.76 116.72C1025.31 116.187 1024.71 115.92 1023.96 115.92C1023.21 115.92 1022.61 116.187 1022.16 116.72C1021.71 117.24 1021.48 118.033 1021.48 119.1C1021.48 120.153 1021.71 120.953 1022.16 121.5C1022.61 122.033 1023.21 122.3 1023.96 122.3ZM1034.24 124.2C1033.54 124.2 1032.9 124.067 1032.34 123.8C1031.8 123.52 1031.36 123.147 1031.04 122.68C1030.74 122.213 1030.58 121.687 1030.58 121.1C1030.58 120.38 1030.77 119.813 1031.14 119.4C1031.52 118.973 1032.12 118.667 1032.96 118.48C1033.8 118.293 1034.93 118.2 1036.34 118.2H1037.04V117.78C1037.04 117.113 1036.9 116.633 1036.6 116.34C1036.31 116.047 1035.82 115.9 1035.12 115.9C1034.74 115.9 1034.32 115.947 1033.86 116.04C1033.42 116.133 1032.96 116.293 1032.46 116.52C1032.14 116.667 1031.88 116.687 1031.66 116.58C1031.45 116.46 1031.3 116.28 1031.22 116.04C1031.16 115.787 1031.17 115.533 1031.26 115.28C1031.37 115.027 1031.58 114.84 1031.88 114.72C1032.5 114.467 1033.08 114.287 1033.64 114.18C1034.22 114.073 1034.74 114.02 1035.2 114.02C1036.63 114.02 1037.69 114.353 1038.38 115.02C1039.08 115.673 1039.42 116.693 1039.42 118.08V122.88C1039.42 123.733 1039.04 124.16 1038.26 124.16C1037.48 124.16 1037.08 123.733 1037.08 122.88V122.44C1036.86 122.987 1036.5 123.42 1036 123.74C1035.51 124.047 1034.92 124.2 1034.24 124.2ZM1034.76 122.48C1035.42 122.48 1035.96 122.253 1036.38 121.8C1036.82 121.347 1037.04 120.773 1037.04 120.08V119.64H1036.36C1035.11 119.64 1034.24 119.74 1033.74 119.94C1033.26 120.127 1033.02 120.473 1033.02 120.98C1033.02 121.42 1033.18 121.78 1033.48 122.06C1033.79 122.34 1034.22 122.48 1034.76 122.48ZM1046.44 124.2C1043.85 124.2 1042.56 122.92 1042.56 120.36V116.1H1041.52C1040.85 116.1 1040.52 115.787 1040.52 115.16C1040.52 114.533 1040.85 114.22 1041.52 114.22H1042.56V112.4C1042.56 111.56 1042.98 111.14 1043.82 111.14C1044.65 111.14 1045.06 111.56 1045.06 112.4V114.22H1047.18C1047.85 114.22 1048.18 114.533 1048.18 115.16C1048.18 115.787 1047.85 116.1 1047.18 116.1H1045.06V120.22C1045.06 120.86 1045.2 121.34 1045.48 121.66C1045.76 121.98 1046.21 122.14 1046.84 122.14C1047.07 122.14 1047.27 122.12 1047.44 122.08C1047.61 122.04 1047.77 122.013 1047.9 122C1048.06 121.987 1048.19 122.04 1048.3 122.16C1048.41 122.267 1048.46 122.493 1048.46 122.84C1048.46 123.107 1048.41 123.347 1048.32 123.56C1048.24 123.76 1048.09 123.9 1047.86 123.98C1047.69 124.033 1047.46 124.08 1047.18 124.12C1046.9 124.173 1046.65 124.2 1046.44 124.2ZM1056.31 112.22C1055.84 112.22 1055.47 112.107 1055.21 111.88C1054.95 111.64 1054.83 111.313 1054.83 110.9C1054.83 110.473 1054.95 110.147 1055.21 109.92C1055.47 109.693 1055.84 109.58 1056.31 109.58C1057.29 109.58 1057.79 110.02 1057.79 110.9C1057.79 111.78 1057.29 112.22 1056.31 112.22ZM1056.31 124.14C1055.91 124.14 1055.6 124.02 1055.39 123.78C1055.17 123.54 1055.07 123.207 1055.07 122.78V115.44C1055.07 114.533 1055.48 114.08 1056.31 114.08C1057.15 114.08 1057.57 114.533 1057.57 115.44V122.78C1057.57 123.207 1057.46 123.54 1057.25 123.78C1057.03 124.02 1056.72 124.14 1056.31 124.14ZM1064.68 124.2C1063.66 124.2 1062.76 123.993 1062 123.58C1061.24 123.153 1060.66 122.553 1060.24 121.78C1059.83 121.007 1059.62 120.1 1059.62 119.06C1059.62 118.02 1059.83 117.127 1060.24 116.38C1060.66 115.62 1061.24 115.04 1062 114.64C1062.76 114.227 1063.66 114.02 1064.68 114.02C1065.12 114.02 1065.6 114.08 1066.1 114.2C1066.62 114.32 1067.11 114.52 1067.56 114.8C1067.83 114.96 1067.98 115.167 1068.02 115.42C1068.08 115.673 1068.04 115.907 1067.92 116.12C1067.82 116.333 1067.65 116.487 1067.42 116.58C1067.21 116.673 1066.96 116.64 1066.68 116.48C1066.07 116.133 1065.48 115.96 1064.9 115.96C1064.04 115.96 1063.36 116.233 1062.88 116.78C1062.42 117.313 1062.18 118.08 1062.18 119.08C1062.18 120.067 1062.42 120.847 1062.88 121.42C1063.36 121.98 1064.04 122.26 1064.9 122.26C1065.48 122.26 1066.07 122.093 1066.68 121.76C1066.96 121.6 1067.21 121.567 1067.42 121.66C1067.64 121.753 1067.79 121.913 1067.88 122.14C1067.98 122.353 1068 122.587 1067.94 122.84C1067.89 123.08 1067.74 123.28 1067.48 123.44C1067.04 123.707 1066.58 123.9 1066.08 124.02C1065.59 124.14 1065.12 124.2 1064.68 124.2ZM1070.84 124.16C1070.01 124.16 1069.6 123.733 1069.6 122.88V111C1069.6 110.16 1070.01 109.74 1070.84 109.74C1071.68 109.74 1072.1 110.16 1072.1 111V115.64C1072.43 115.107 1072.88 114.707 1073.44 114.44C1074 114.16 1074.62 114.02 1075.3 114.02C1077.6 114.02 1078.76 115.36 1078.76 118.04V122.88C1078.76 123.733 1078.34 124.16 1077.52 124.16C1076.68 124.16 1076.26 123.733 1076.26 122.88V118.16C1076.26 117.4 1076.11 116.847 1075.82 116.5C1075.54 116.153 1075.1 115.98 1074.5 115.98C1073.76 115.98 1073.18 116.213 1072.74 116.68C1072.31 117.133 1072.1 117.74 1072.1 118.5V122.88C1072.1 123.733 1071.68 124.16 1070.84 124.16ZM1082.54 112.22C1082.07 112.22 1081.7 112.107 1081.44 111.88C1081.18 111.64 1081.06 111.313 1081.06 110.9C1081.06 110.473 1081.18 110.147 1081.44 109.92C1081.7 109.693 1082.07 109.58 1082.54 109.58C1083.52 109.58 1084.02 110.02 1084.02 110.9C1084.02 111.78 1083.52 112.22 1082.54 112.22ZM1082.54 124.14C1082.14 124.14 1081.83 124.02 1081.62 123.78C1081.4 123.54 1081.3 123.207 1081.3 122.78V115.44C1081.3 114.533 1081.71 114.08 1082.54 114.08C1083.38 114.08 1083.8 114.533 1083.8 115.44V122.78C1083.8 123.207 1083.69 123.54 1083.48 123.78C1083.26 124.02 1082.95 124.14 1082.54 124.14ZM1090.15 124.2C1089.3 124.2 1088.55 123.993 1087.89 123.58C1087.25 123.167 1086.75 122.58 1086.39 121.82C1086.03 121.047 1085.85 120.14 1085.85 119.1C1085.85 118.047 1086.03 117.147 1086.39 116.4C1086.75 115.64 1087.25 115.053 1087.89 114.64C1088.55 114.227 1089.3 114.02 1090.15 114.02C1090.85 114.02 1091.47 114.173 1092.03 114.48C1092.59 114.787 1093.01 115.193 1093.29 115.7V111C1093.29 110.16 1093.71 109.74 1094.53 109.74C1095.37 109.74 1095.79 110.16 1095.79 111V122.88C1095.79 123.733 1095.38 124.16 1094.55 124.16C1093.73 124.16 1093.31 123.733 1093.31 122.88V122.46C1093.03 122.993 1092.61 123.42 1092.05 123.74C1091.49 124.047 1090.86 124.2 1090.15 124.2ZM1090.85 122.3C1091.6 122.3 1092.2 122.033 1092.65 121.5C1093.11 120.953 1093.33 120.153 1093.33 119.1C1093.33 118.033 1093.11 117.24 1092.65 116.72C1092.2 116.187 1091.6 115.92 1090.85 115.92C1090.11 115.92 1089.51 116.187 1089.05 116.72C1088.6 117.24 1088.37 118.033 1088.37 119.1C1088.37 120.153 1088.6 120.953 1089.05 121.5C1089.51 122.033 1090.11 122.3 1090.85 122.3ZM1101.61 124.2C1100.9 124.2 1100.27 124.067 1099.71 123.8C1099.16 123.52 1098.73 123.147 1098.41 122.68C1098.1 122.213 1097.95 121.687 1097.95 121.1C1097.95 120.38 1098.13 119.813 1098.51 119.4C1098.88 118.973 1099.49 118.667 1100.33 118.48C1101.17 118.293 1102.29 118.2 1103.71 118.2H1104.41V117.78C1104.41 117.113 1104.26 116.633 1103.97 116.34C1103.67 116.047 1103.18 115.9 1102.49 115.9C1102.1 115.9 1101.68 115.947 1101.23 116.04C1100.79 116.133 1100.32 116.293 1099.83 116.52C1099.51 116.667 1099.24 116.687 1099.03 116.58C1098.81 116.46 1098.67 116.28 1098.59 116.04C1098.52 115.787 1098.53 115.533 1098.63 115.28C1098.73 115.027 1098.94 114.84 1099.25 114.72C1099.86 114.467 1100.45 114.287 1101.01 114.18C1101.58 114.073 1102.1 114.02 1102.57 114.02C1103.99 114.02 1105.05 114.353 1105.75 115.02C1106.44 115.673 1106.79 116.693 1106.79 118.08V122.88C1106.79 123.733 1106.4 124.16 1105.63 124.16C1104.84 124.16 1104.45 123.733 1104.45 122.88V122.44C1104.22 122.987 1103.86 123.42 1103.37 123.74C1102.87 124.047 1102.29 124.2 1101.61 124.2ZM1102.13 122.48C1102.78 122.48 1103.32 122.253 1103.75 121.8C1104.19 121.347 1104.41 120.773 1104.41 120.08V119.64H1103.73C1102.47 119.64 1101.6 119.74 1101.11 119.94C1100.63 120.127 1100.39 120.473 1100.39 120.98C1100.39 121.42 1100.54 121.78 1100.85 122.06C1101.15 122.34 1101.58 122.48 1102.13 122.48ZM827.78 154.76C827.327 154.76 827.013 154.593 826.84 154.26C826.667 153.927 826.673 153.547 826.86 153.12L828 150.6L824.58 142.72C824.393 142.28 824.393 141.893 824.58 141.56C824.767 141.227 825.133 141.06 825.68 141.06C825.987 141.06 826.233 141.133 826.42 141.28C826.607 141.413 826.773 141.673 826.92 142.06L829.32 148.06L831.78 142.04C831.927 141.667 832.1 141.413 832.3 141.28C832.5 141.133 832.767 141.06 833.1 141.06C833.527 141.06 833.827 141.227 834 141.56C834.173 141.893 834.167 142.273 833.98 142.7L829.12 153.8C828.947 154.173 828.76 154.427 828.56 154.56C828.36 154.693 828.1 154.76 827.78 154.76ZM840.452 151.2C839.345 151.2 838.392 150.993 837.592 150.58C836.792 150.167 836.172 149.58 835.732 148.82C835.305 148.06 835.092 147.16 835.092 146.12C835.092 145.107 835.299 144.22 835.712 143.46C836.139 142.7 836.719 142.107 837.452 141.68C838.199 141.24 839.045 141.02 839.992 141.02C841.379 141.02 842.472 141.46 843.272 142.34C844.085 143.22 844.492 144.42 844.492 145.94C844.492 146.433 844.172 146.68 843.532 146.68H837.492C837.679 148.427 838.679 149.3 840.492 149.3C840.839 149.3 841.225 149.26 841.652 149.18C842.092 149.087 842.505 148.933 842.892 148.72C843.239 148.52 843.532 148.46 843.772 148.54C844.012 148.607 844.179 148.747 844.272 148.96C844.379 149.173 844.392 149.413 844.312 149.68C844.245 149.933 844.059 150.153 843.752 150.34C843.285 150.633 842.745 150.853 842.132 151C841.532 151.133 840.972 151.2 840.452 151.2ZM840.092 142.72C839.359 142.72 838.765 142.947 838.312 143.4C837.859 143.853 837.585 144.467 837.492 145.24H842.412C842.359 144.427 842.132 143.807 841.732 143.38C841.345 142.94 840.799 142.72 840.092 142.72ZM850.913 151.2C848.326 151.2 847.033 149.92 847.033 147.36V143.1H845.993C845.326 143.1 844.993 142.787 844.993 142.16C844.993 141.533 845.326 141.22 845.993 141.22H847.033V139.4C847.033 138.56 847.453 138.14 848.293 138.14C849.119 138.14 849.533 138.56 849.533 139.4V141.22H851.653C852.319 141.22 852.653 141.533 852.653 142.16C852.653 142.787 852.319 143.1 851.653 143.1H849.533V147.22C849.533 147.86 849.673 148.34 849.953 148.66C850.233 148.98 850.686 149.14 851.313 149.14C851.539 149.14 851.739 149.12 851.913 149.08C852.086 149.04 852.239 149.013 852.373 149C852.533 148.987 852.666 149.04 852.773 149.16C852.879 149.267 852.933 149.493 852.933 149.84C852.933 150.107 852.886 150.347 852.793 150.56C852.713 150.76 852.559 150.9 852.333 150.98C852.159 151.033 851.933 151.08 851.653 151.12C851.373 151.173 851.126 151.2 850.913 151.2ZM855.603 151.16C854.776 151.16 854.363 150.733 854.363 149.88V138C854.363 137.16 854.776 136.74 855.603 136.74C856.443 136.74 856.863 137.16 856.863 138V145.38H856.903L860.203 141.9C860.469 141.633 860.703 141.427 860.903 141.28C861.103 141.133 861.376 141.06 861.723 141.06C862.069 141.06 862.329 141.153 862.503 141.34C862.689 141.513 862.783 141.727 862.783 141.98C862.783 142.233 862.663 142.487 862.423 142.74L859.423 145.9L862.763 149.5C863.003 149.753 863.109 150.013 863.083 150.28C863.069 150.533 862.963 150.747 862.763 150.92C862.563 151.08 862.309 151.16 862.003 151.16C861.629 151.16 861.329 151.087 861.103 150.94C860.889 150.793 860.649 150.573 860.383 150.28L856.903 146.64H856.863V149.88C856.863 150.733 856.443 151.16 855.603 151.16ZM868.208 151.2C867.501 151.2 866.868 151.067 866.308 150.8C865.761 150.52 865.328 150.147 865.007 149.68C864.701 149.213 864.548 148.687 864.548 148.1C864.548 147.38 864.734 146.813 865.108 146.4C865.481 145.973 866.088 145.667 866.928 145.48C867.768 145.293 868.894 145.2 870.308 145.2H871.008V144.78C871.008 144.113 870.861 143.633 870.568 143.34C870.274 143.047 869.781 142.9 869.088 142.9C868.701 142.9 868.281 142.947 867.828 143.04C867.388 143.133 866.921 143.293 866.428 143.52C866.108 143.667 865.841 143.687 865.628 143.58C865.414 143.46 865.268 143.28 865.188 143.04C865.121 142.787 865.134 142.533 865.228 142.28C865.334 142.027 865.541 141.84 865.848 141.72C866.461 141.467 867.048 141.287 867.608 141.18C868.181 141.073 868.701 141.02 869.168 141.02C870.594 141.02 871.654 141.353 872.348 142.02C873.041 142.673 873.388 143.693 873.388 145.08V149.88C873.388 150.733 873.001 151.16 872.228 151.16C871.441 151.16 871.048 150.733 871.048 149.88V149.44C870.821 149.987 870.461 150.42 869.968 150.74C869.474 151.047 868.888 151.2 868.208 151.2ZM868.728 149.48C869.381 149.48 869.921 149.253 870.348 148.8C870.788 148.347 871.008 147.773 871.008 147.08V146.64H870.328C869.074 146.64 868.201 146.74 867.708 146.94C867.228 147.127 866.988 147.473 866.988 147.98C866.988 148.42 867.141 148.78 867.448 149.06C867.754 149.34 868.181 149.48 868.728 149.48ZM876.525 151C876.178 151 875.918 150.893 875.745 150.68C875.572 150.453 875.498 150.187 875.525 149.88C875.552 149.573 875.692 149.28 875.945 149L880.645 143.1H876.405C875.765 143.1 875.445 142.787 875.445 142.16C875.445 141.533 875.765 141.22 876.405 141.22H882.325C882.725 141.22 883.018 141.327 883.205 141.54C883.405 141.753 883.492 142.013 883.465 142.32C883.452 142.613 883.318 142.9 883.065 143.18L878.305 149.12H882.785C883.425 149.12 883.745 149.433 883.745 150.06C883.745 150.687 883.425 151 882.785 151H876.525ZM886.638 139.22C886.171 139.22 885.804 139.107 885.538 138.88C885.284 138.64 885.158 138.313 885.158 137.9C885.158 137.473 885.284 137.147 885.538 136.92C885.804 136.693 886.171 136.58 886.638 136.58C887.624 136.58 888.118 137.02 888.118 137.9C888.118 138.78 887.624 139.22 886.638 139.22ZM886.638 151.14C886.238 151.14 885.931 151.02 885.718 150.78C885.504 150.54 885.398 150.207 885.398 149.78V142.44C885.398 141.533 885.811 141.08 886.638 141.08C887.478 141.08 887.898 141.533 887.898 142.44V149.78C887.898 150.207 887.791 150.54 887.578 150.78C887.364 151.02 887.051 151.14 886.638 151.14ZM896.135 151.2C895.415 151.2 894.775 151.047 894.215 150.74C893.655 150.42 893.235 149.993 892.955 149.46V149.88C892.955 150.733 892.549 151.16 891.735 151.16C890.909 151.16 890.495 150.733 890.495 149.88V138C890.495 137.16 890.909 136.74 891.735 136.74C892.575 136.74 892.995 137.16 892.995 138V142.66C893.289 142.167 893.709 141.773 894.255 141.48C894.815 141.173 895.442 141.02 896.135 141.02C897.002 141.02 897.755 141.227 898.395 141.64C899.035 142.053 899.535 142.64 899.895 143.4C900.255 144.147 900.435 145.047 900.435 146.1C900.435 147.14 900.255 148.047 899.895 148.82C899.535 149.58 899.029 150.167 898.375 150.58C897.735 150.993 896.989 151.2 896.135 151.2ZM895.435 149.3C896.182 149.3 896.782 149.033 897.235 148.5C897.689 147.953 897.915 147.153 897.915 146.1C897.915 145.033 897.689 144.24 897.235 143.72C896.782 143.187 896.182 142.92 895.435 142.92C894.689 142.92 894.089 143.187 893.635 143.72C893.182 144.24 892.955 145.033 892.955 146.1C892.955 147.153 893.182 147.953 893.635 148.5C894.089 149.033 894.689 149.3 895.435 149.3ZM913.557 151.2C912.837 151.2 912.197 151.047 911.637 150.74C911.077 150.42 910.657 149.993 910.377 149.46V149.88C910.377 150.733 909.971 151.16 909.157 151.16C908.331 151.16 907.917 150.733 907.917 149.88V138C907.917 137.16 908.331 136.74 909.157 136.74C909.997 136.74 910.417 137.16 910.417 138V142.66C910.711 142.167 911.131 141.773 911.677 141.48C912.237 141.173 912.864 141.02 913.557 141.02C914.424 141.02 915.177 141.227 915.817 141.64C916.457 142.053 916.957 142.64 917.317 143.4C917.677 144.147 917.857 145.047 917.857 146.1C917.857 147.14 917.677 148.047 917.317 148.82C916.957 149.58 916.451 150.167 915.797 150.58C915.157 150.993 914.411 151.2 913.557 151.2ZM912.857 149.3C913.604 149.3 914.204 149.033 914.657 148.5C915.111 147.953 915.337 147.153 915.337 146.1C915.337 145.033 915.111 144.24 914.657 143.72C914.204 143.187 913.604 142.92 912.857 142.92C912.111 142.92 911.511 143.187 911.057 143.72C910.604 144.24 910.377 145.033 910.377 146.1C910.377 147.153 910.604 147.953 911.057 148.5C911.511 149.033 912.111 149.3 912.857 149.3ZM924.729 151.2C923.623 151.2 922.669 150.993 921.869 150.58C921.069 150.167 920.449 149.58 920.009 148.82C919.583 148.06 919.369 147.16 919.369 146.12C919.369 145.107 919.576 144.22 919.989 143.46C920.416 142.7 920.996 142.107 921.729 141.68C922.476 141.24 923.323 141.02 924.269 141.02C925.656 141.02 926.749 141.46 927.549 142.34C928.363 143.22 928.769 144.42 928.769 145.94C928.769 146.433 928.449 146.68 927.809 146.68H921.769C921.956 148.427 922.956 149.3 924.769 149.3C925.116 149.3 925.503 149.26 925.929 149.18C926.369 149.087 926.783 148.933 927.169 148.72C927.516 148.52 927.809 148.46 928.049 148.54C928.289 148.607 928.456 148.747 928.549 148.96C928.656 149.173 928.669 149.413 928.589 149.68C928.523 149.933 928.336 150.153 928.029 150.34C927.563 150.633 927.023 150.853 926.409 151C925.809 151.133 925.249 151.2 924.729 151.2ZM924.369 142.72C923.636 142.72 923.043 142.947 922.589 143.4C922.136 143.853 921.863 144.467 921.769 145.24H926.689C926.636 144.427 926.409 143.807 926.009 143.38C925.623 142.94 925.076 142.72 924.369 142.72ZM932.029 151.16C931.176 151.16 930.749 150.733 930.749 149.88V142.32C930.749 141.48 931.156 141.06 931.969 141.06C932.783 141.06 933.189 141.48 933.189 142.32V142.94C933.669 141.793 934.696 141.153 936.269 141.02C936.843 140.953 937.163 141.28 937.229 142C937.296 142.707 936.949 143.1 936.189 143.18L935.749 143.22C934.109 143.38 933.289 144.22 933.289 145.74V149.88C933.289 150.733 932.869 151.16 932.029 151.16ZM941.704 151.2C940.997 151.2 940.364 151.067 939.804 150.8C939.257 150.52 938.824 150.147 938.504 149.68C938.197 149.213 938.044 148.687 938.044 148.1C938.044 147.38 938.23 146.813 938.604 146.4C938.977 145.973 939.584 145.667 940.424 145.48C941.264 145.293 942.39 145.2 943.804 145.2H944.504V144.78C944.504 144.113 944.357 143.633 944.064 143.34C943.77 143.047 943.277 142.9 942.584 142.9C942.197 142.9 941.777 142.947 941.324 143.04C940.884 143.133 940.417 143.293 939.924 143.52C939.604 143.667 939.337 143.687 939.124 143.58C938.91 143.46 938.764 143.28 938.684 143.04C938.617 142.787 938.63 142.533 938.724 142.28C938.83 142.027 939.037 141.84 939.344 141.72C939.957 141.467 940.544 141.287 941.104 141.18C941.677 141.073 942.197 141.02 942.664 141.02C944.09 141.02 945.15 141.353 945.844 142.02C946.537 142.673 946.884 143.693 946.884 145.08V149.88C946.884 150.733 946.497 151.16 945.724 151.16C944.937 151.16 944.544 150.733 944.544 149.88V149.44C944.317 149.987 943.957 150.42 943.464 150.74C942.97 151.047 942.384 151.2 941.704 151.2ZM942.224 149.48C942.877 149.48 943.417 149.253 943.844 148.8C944.284 148.347 944.504 147.773 944.504 147.08V146.64H943.824C942.57 146.64 941.697 146.74 941.204 146.94C940.724 147.127 940.484 147.473 940.484 147.98C940.484 148.42 940.637 148.78 940.944 149.06C941.25 149.34 941.677 149.48 942.224 149.48ZM950.701 151.16C949.874 151.16 949.461 150.733 949.461 149.88V142.32C949.461 141.48 949.868 141.06 950.681 141.06C951.494 141.06 951.901 141.48 951.901 142.32V142.72C952.194 142.187 952.601 141.773 953.121 141.48C953.641 141.173 954.241 141.02 954.921 141.02C956.388 141.02 957.348 141.66 957.801 142.94C958.108 142.34 958.548 141.873 959.121 141.54C959.694 141.193 960.348 141.02 961.081 141.02C963.281 141.02 964.381 142.36 964.381 145.04V149.88C964.381 150.733 963.961 151.16 963.121 151.16C962.294 151.16 961.881 150.733 961.881 149.88V145.14C961.881 144.393 961.754 143.847 961.501 143.5C961.261 143.153 960.848 142.98 960.261 142.98C959.608 142.98 959.094 143.213 958.721 143.68C958.348 144.133 958.161 144.767 958.161 145.58V149.88C958.161 150.733 957.748 151.16 956.921 151.16C956.081 151.16 955.661 150.733 955.661 149.88V145.14C955.661 144.393 955.534 143.847 955.281 143.5C955.041 143.153 954.634 142.98 954.061 142.98C953.408 142.98 952.894 143.213 952.521 143.68C952.148 144.133 951.961 144.767 951.961 145.58V149.88C951.961 150.733 951.541 151.16 950.701 151.16ZM968.2 139.22C967.733 139.22 967.367 139.107 967.1 138.88C966.847 138.64 966.72 138.313 966.72 137.9C966.72 137.473 966.847 137.147 967.1 136.92C967.367 136.693 967.733 136.58 968.2 136.58C969.187 136.58 969.68 137.02 969.68 137.9C969.68 138.78 969.187 139.22 968.2 139.22ZM968.2 151.14C967.8 151.14 967.493 151.02 967.28 150.78C967.067 150.54 966.96 150.207 966.96 149.78V142.44C966.96 141.533 967.373 141.08 968.2 141.08C969.04 141.08 969.46 141.533 969.46 142.44V149.78C969.46 150.207 969.353 150.54 969.14 150.78C968.927 151.02 968.613 151.14 968.2 151.14ZM972.658 151C972.311 151 972.051 150.893 971.878 150.68C971.704 150.453 971.631 150.187 971.658 149.88C971.684 149.573 971.824 149.28 972.078 149L976.778 143.1H972.538C971.898 143.1 971.578 142.787 971.578 142.16C971.578 141.533 971.898 141.22 972.538 141.22H978.458C978.858 141.22 979.151 141.327 979.338 141.54C979.538 141.753 979.624 142.013 979.598 142.32C979.584 142.613 979.451 142.9 979.198 143.18L974.438 149.12H978.918C979.558 149.12 979.878 149.433 979.878 150.06C979.878 150.687 979.558 151 978.918 151H972.658Z" fill="white"/>
<g clip-path="url(#clip0_3_113)">
<rect width="380" height="182" rx="24" fill="url(#paint1_linear_3_113)"/>
<path d="M27.12 124C26.3867 124 26.02 123.64 26.02 122.92C26.02 122.227 26.3867 121.88 27.12 121.88H29.36V112.82L27.66 113.84C27.34 114.027 27.0467 114.073 26.78 113.98C26.5267 113.887 26.3333 113.72 26.2 113.48C26.0667 113.24 26.0267 112.98 26.08 112.7C26.1333 112.407 26.32 112.167 26.64 111.98L29.4 110.32C29.6667 110.16 29.9333 110.027 30.2 109.92C30.4667 109.8 30.7133 109.74 30.94 109.74C31.22 109.74 31.4533 109.82 31.64 109.98C31.8267 110.127 31.92 110.373 31.92 110.72V121.88H33.96C34.6933 121.88 35.06 122.227 35.06 122.92C35.06 123.64 34.6933 124 33.96 124H27.12ZM38.4922 124.1C38.0389 124.1 37.6722 123.96 37.3922 123.68C37.1255 123.4 36.9922 123.04 36.9922 122.6C36.9922 122.173 37.1255 121.827 37.3922 121.56C37.6722 121.28 38.0389 121.14 38.4922 121.14C38.9589 121.14 39.3189 121.28 39.5722 121.56C39.8389 121.827 39.9722 122.173 39.9722 122.6C39.9722 123.04 39.8389 123.4 39.5722 123.68C39.3189 123.96 38.9589 124.1 38.4922 124.1ZM52.7828 124.2C51.8895 124.2 51.0161 124.1 50.1628 123.9C49.3228 123.7 48.5895 123.4 47.9628 123C47.6561 122.8 47.4695 122.553 47.4028 122.26C47.3361 121.967 47.3561 121.693 47.4628 121.44C47.5828 121.173 47.7628 120.993 48.0028 120.9C48.2561 120.793 48.5428 120.84 48.8628 121.04C49.4495 121.387 50.0695 121.64 50.7228 121.8C51.3761 121.96 52.0628 122.04 52.7828 122.04C53.8361 122.04 54.6028 121.867 55.0828 121.52C55.5628 121.16 55.8028 120.7 55.8028 120.14C55.8028 119.673 55.6295 119.307 55.2828 119.04C54.9495 118.773 54.3695 118.553 53.5428 118.38L51.3428 117.92C48.8361 117.387 47.5828 116.1 47.5828 114.06C47.5828 113.18 47.8161 112.413 48.2828 111.76C48.7495 111.107 49.3961 110.6 50.2228 110.24C51.0495 109.88 52.0028 109.7 53.0828 109.7C53.8828 109.7 54.6428 109.8 55.3628 110C56.0828 110.2 56.7295 110.493 57.3028 110.88C57.5695 111.067 57.7295 111.3 57.7828 111.58C57.8361 111.847 57.8028 112.1 57.6828 112.34C57.5628 112.567 57.3695 112.727 57.1028 112.82C56.8495 112.9 56.5495 112.84 56.2028 112.64C55.7095 112.36 55.2095 112.16 54.7028 112.04C54.1961 111.92 53.6495 111.86 53.0628 111.86C52.1428 111.86 51.4228 112.053 50.9028 112.44C50.3828 112.827 50.1228 113.333 50.1228 113.96C50.1228 114.44 50.2828 114.827 50.6028 115.12C50.9228 115.4 51.4695 115.62 52.2428 115.78L54.4228 116.24C55.7428 116.52 56.7228 116.96 57.3628 117.56C58.0161 118.16 58.3428 118.96 58.3428 119.96C58.3428 120.8 58.1161 121.54 57.6628 122.18C57.2095 122.82 56.5628 123.32 55.7228 123.68C54.8961 124.027 53.9161 124.2 52.7828 124.2ZM63.52 124.2C62.8133 124.2 62.18 124.067 61.62 123.8C61.0733 123.52 60.64 123.147 60.32 122.68C60.0133 122.213 59.86 121.687 59.86 121.1C59.86 120.38 60.0467 119.813 60.42 119.4C60.7933 118.973 61.4 118.667 62.24 118.48C63.08 118.293 64.2067 118.2 65.62 118.2H66.32V117.78C66.32 117.113 66.1733 116.633 65.88 116.34C65.5867 116.047 65.0933 115.9 64.4 115.9C64.0133 115.9 63.5933 115.947 63.14 116.04C62.7 116.133 62.2333 116.293 61.74 116.52C61.42 116.667 61.1533 116.687 60.94 116.58C60.7267 116.46 60.58 116.28 60.5 116.04C60.4333 115.787 60.4467 115.533 60.54 115.28C60.6467 115.027 60.8533 114.84 61.16 114.72C61.7733 114.467 62.36 114.287 62.92 114.18C63.4933 114.073 64.0133 114.02 64.48 114.02C65.9067 114.02 66.9667 114.353 67.66 115.02C68.3533 115.673 68.7 116.693 68.7 118.08V122.88C68.7 123.733 68.3133 124.16 67.54 124.16C66.7533 124.16 66.36 123.733 66.36 122.88V122.44C66.1333 122.987 65.7733 123.42 65.28 123.74C64.7867 124.047 64.2 124.2 63.52 124.2ZM64.04 122.48C64.6933 122.48 65.2333 122.253 65.66 121.8C66.1 121.347 66.32 120.773 66.32 120.08V119.64H65.64C64.3867 119.64 63.5133 119.74 63.02 119.94C62.54 120.127 62.3 120.473 62.3 120.98C62.3 121.42 62.4533 121.78 62.76 122.06C63.0667 122.34 63.4933 122.48 64.04 122.48ZM73.6198 127.76C73.1665 127.76 72.8532 127.593 72.6798 127.26C72.5065 126.927 72.5132 126.547 72.6998 126.12L73.8398 123.6L70.4198 115.72C70.2332 115.28 70.2332 114.893 70.4198 114.56C70.6065 114.227 70.9732 114.06 71.5198 114.06C71.8265 114.06 72.0732 114.133 72.2598 114.28C72.4465 114.413 72.6132 114.673 72.7598 115.06L75.1598 121.06L77.6198 115.04C77.7665 114.667 77.9398 114.413 78.1398 114.28C78.3398 114.133 78.6065 114.06 78.9398 114.06C79.3665 114.06 79.6665 114.227 79.8398 114.56C80.0132 114.893 80.0065 115.273 79.8198 115.7L74.9598 126.8C74.7865 127.173 74.5998 127.427 74.3998 127.56C74.1998 127.693 73.9398 127.76 73.6198 127.76ZM86.4402 124.2C83.8535 124.2 82.5602 122.92 82.5602 120.36V116.1H81.5202C80.8535 116.1 80.5202 115.787 80.5202 115.16C80.5202 114.533 80.8535 114.22 81.5202 114.22H82.5602V112.4C82.5602 111.56 82.9802 111.14 83.8202 111.14C84.6468 111.14 85.0602 111.56 85.0602 112.4V114.22H87.1802C87.8468 114.22 88.1802 114.533 88.1802 115.16C88.1802 115.787 87.8468 116.1 87.1802 116.1H85.0602V120.22C85.0602 120.86 85.2002 121.34 85.4802 121.66C85.7602 121.98 86.2135 122.14 86.8402 122.14C87.0668 122.14 87.2668 122.12 87.4402 122.08C87.6135 122.04 87.7668 122.013 87.9002 122C88.0602 121.987 88.1935 122.04 88.3002 122.16C88.4068 122.267 88.4602 122.493 88.4602 122.84C88.4602 123.107 88.4135 123.347 88.3202 123.56C88.2402 123.76 88.0868 123.9 87.8602 123.98C87.6868 124.033 87.4602 124.08 87.1802 124.12C86.9002 124.173 86.6535 124.2 86.4402 124.2ZM93.2983 124.2C92.4449 124.2 91.6916 123.993 91.0383 123.58C90.3983 123.167 89.8983 122.58 89.5383 121.82C89.1783 121.047 88.9983 120.14 88.9983 119.1C88.9983 118.047 89.1783 117.147 89.5383 116.4C89.8983 115.64 90.3983 115.053 91.0383 114.64C91.6916 114.227 92.4449 114.02 93.2983 114.02C93.9916 114.02 94.6183 114.173 95.1783 114.48C95.7383 114.787 96.1583 115.193 96.4383 115.7V111C96.4383 110.16 96.8516 109.74 97.6783 109.74C98.5183 109.74 98.9383 110.16 98.9383 111V122.88C98.9383 123.733 98.5249 124.16 97.6983 124.16C96.8716 124.16 96.4583 123.733 96.4583 122.88V122.46C96.1783 122.993 95.7583 123.42 95.1983 123.74C94.6383 124.047 94.0049 124.2 93.2983 124.2ZM93.9983 122.3C94.7449 122.3 95.3449 122.033 95.7983 121.5C96.2516 120.953 96.4783 120.153 96.4783 119.1C96.4783 118.033 96.2516 117.24 95.7983 116.72C95.3449 116.187 94.7449 115.92 93.9983 115.92C93.2516 115.92 92.6516 116.187 92.1983 116.72C91.7449 117.24 91.5183 118.033 91.5183 119.1C91.5183 120.153 91.7449 120.953 92.1983 121.5C92.6516 122.033 93.2516 122.3 93.9983 122.3ZM104.75 124.2C104.044 124.2 103.41 124.067 102.85 123.8C102.304 123.52 101.87 123.147 101.55 122.68C101.244 122.213 101.09 121.687 101.09 121.1C101.09 120.38 101.277 119.813 101.65 119.4C102.024 118.973 102.63 118.667 103.47 118.48C104.31 118.293 105.437 118.2 106.85 118.2H107.55V117.78C107.55 117.113 107.404 116.633 107.11 116.34C106.817 116.047 106.324 115.9 105.63 115.9C105.244 115.9 104.824 115.947 104.37 116.04C103.93 116.133 103.464 116.293 102.97 116.52C102.65 116.667 102.384 116.687 102.17 116.58C101.957 116.46 101.81 116.28 101.73 116.04C101.664 115.787 101.677 115.533 101.77 115.28C101.877 115.027 102.084 114.84 102.39 114.72C103.004 114.467 103.59 114.287 104.15 114.18C104.724 114.073 105.244 114.02 105.71 114.02C107.137 114.02 108.197 114.353 108.89 115.02C109.584 115.673 109.93 116.693 109.93 118.08V122.88C109.93 123.733 109.544 124.16 108.77 124.16C107.984 124.16 107.59 123.733 107.59 122.88V122.44C107.364 122.987 107.004 123.42 106.51 123.74C106.017 124.047 105.43 124.2 104.75 124.2ZM105.27 122.48C105.924 122.48 106.464 122.253 106.89 121.8C107.33 121.347 107.55 120.773 107.55 120.08V119.64H106.87C105.617 119.64 104.744 119.74 104.25 119.94C103.77 120.127 103.53 120.473 103.53 120.98C103.53 121.42 103.684 121.78 103.99 122.06C104.297 122.34 104.724 122.48 105.27 122.48ZM119.498 124C118.591 124 118.138 123.547 118.138 122.64V111.26C118.138 110.353 118.591 109.9 119.498 109.9H124.298C125.778 109.9 126.924 110.227 127.738 110.88C128.551 111.52 128.958 112.413 128.958 113.56C128.958 114.32 128.764 114.973 128.378 115.52C127.991 116.067 127.458 116.467 126.778 116.72C127.578 116.947 128.198 117.347 128.638 117.92C129.091 118.48 129.318 119.193 129.318 120.06C129.318 121.313 128.891 122.287 128.038 122.98C127.198 123.66 126.024 124 124.518 124H119.498ZM120.598 115.88H123.858C125.604 115.88 126.478 115.207 126.478 113.86C126.478 112.513 125.604 111.84 123.858 111.84H120.598V115.88ZM120.598 122.06H124.198C125.958 122.06 126.838 121.353 126.838 119.94C126.838 118.527 125.958 117.82 124.198 117.82H120.598V122.06ZM135.207 124.2C132.807 124.2 131.607 122.853 131.607 120.16V115.32C131.607 114.48 132.021 114.06 132.847 114.06C133.687 114.06 134.107 114.48 134.107 115.32V120.2C134.107 120.893 134.247 121.407 134.527 121.74C134.807 122.073 135.254 122.24 135.867 122.24C136.534 122.24 137.081 122.013 137.507 121.56C137.934 121.093 138.147 120.48 138.147 119.72V115.32C138.147 114.48 138.561 114.06 139.387 114.06C140.227 114.06 140.647 114.48 140.647 115.32V122.88C140.647 123.733 140.241 124.16 139.427 124.16C138.614 124.16 138.207 123.733 138.207 122.88V122.54C137.554 123.647 136.554 124.2 135.207 124.2ZM145.729 127.76C145.276 127.76 144.963 127.593 144.789 127.26C144.616 126.927 144.623 126.547 144.809 126.12L145.949 123.6L142.529 115.72C142.343 115.28 142.343 114.893 142.529 114.56C142.716 114.227 143.083 114.06 143.629 114.06C143.936 114.06 144.183 114.133 144.369 114.28C144.556 114.413 144.723 114.673 144.869 115.06L147.269 121.06L149.729 115.04C149.876 114.667 150.049 114.413 150.249 114.28C150.449 114.133 150.716 114.06 151.049 114.06C151.476 114.06 151.776 114.227 151.949 114.56C152.123 114.893 152.116 115.273 151.929 115.7L147.069 126.8C146.896 127.173 146.709 127.427 146.509 127.56C146.309 127.693 146.049 127.76 145.729 127.76ZM157.317 124.2C154.917 124.2 153.717 122.853 153.717 120.16V115.32C153.717 114.48 154.13 114.06 154.957 114.06C155.797 114.06 156.217 114.48 156.217 115.32V120.2C156.217 120.893 156.357 121.407 156.637 121.74C156.917 122.073 157.363 122.24 157.977 122.24C158.643 122.24 159.19 122.013 159.617 121.56C160.043 121.093 160.257 120.48 160.257 119.72V115.32C160.257 114.48 160.67 114.06 161.497 114.06C162.337 114.06 162.757 114.48 162.757 115.32V122.88C162.757 123.733 162.35 124.16 161.537 124.16C160.723 124.16 160.317 123.733 160.317 122.88V122.54C159.663 123.647 158.663 124.2 157.317 124.2ZM166.639 124.16C165.785 124.16 165.359 123.733 165.359 122.88V115.32C165.359 114.48 165.765 114.06 166.579 114.06C167.392 114.06 167.799 114.48 167.799 115.32V115.94C168.279 114.793 169.305 114.153 170.879 114.02C171.452 113.953 171.772 114.28 171.839 115C171.905 115.707 171.559 116.1 170.799 116.18L170.359 116.22C168.719 116.38 167.899 117.22 167.899 118.74V122.88C167.899 123.733 167.479 124.16 166.639 124.16ZM178.237 124.2C175.65 124.2 174.357 122.92 174.357 120.36V116.1H173.317C172.65 116.1 172.317 115.787 172.317 115.16C172.317 114.533 172.65 114.22 173.317 114.22H174.357V112.4C174.357 111.56 174.777 111.14 175.617 111.14C176.444 111.14 176.857 111.56 176.857 112.4V114.22H178.977C179.644 114.22 179.977 114.533 179.977 115.16C179.977 115.787 179.644 116.1 178.977 116.1H176.857V120.22C176.857 120.86 176.997 121.34 177.277 121.66C177.557 121.98 178.01 122.14 178.637 122.14C178.864 122.14 179.064 122.12 179.237 122.08C179.41 122.04 179.564 122.013 179.697 122C179.857 121.987 179.99 122.04 180.097 122.16C180.204 122.267 180.257 122.493 180.257 122.84C180.257 123.107 180.21 123.347 180.117 123.56C180.037 123.76 179.884 123.9 179.657 123.98C179.484 124.033 179.257 124.08 178.977 124.12C178.697 124.173 178.45 124.2 178.237 124.2ZM182.713 124.16C181.886 124.16 181.473 123.733 181.473 122.88V115.32C181.473 114.48 181.879 114.06 182.693 114.06C183.506 114.06 183.913 114.48 183.913 115.32V115.72C184.206 115.187 184.613 114.773 185.133 114.48C185.653 114.173 186.253 114.02 186.933 114.02C188.399 114.02 189.359 114.66 189.813 115.94C190.119 115.34 190.559 114.873 191.133 114.54C191.706 114.193 192.359 114.02 193.093 114.02C195.293 114.02 196.393 115.36 196.393 118.04V122.88C196.393 123.733 195.973 124.16 195.133 124.16C194.306 124.16 193.893 123.733 193.893 122.88V118.14C193.893 117.393 193.766 116.847 193.513 116.5C193.273 116.153 192.859 115.98 192.273 115.98C191.619 115.98 191.106 116.213 190.733 116.68C190.359 117.133 190.173 117.767 190.173 118.58V122.88C190.173 123.733 189.759 124.16 188.933 124.16C188.093 124.16 187.673 123.733 187.673 122.88V118.14C187.673 117.393 187.546 116.847 187.293 116.5C187.053 116.153 186.646 115.98 186.073 115.98C185.419 115.98 184.906 116.213 184.533 116.68C184.159 117.133 183.973 117.767 183.973 118.58V122.88C183.973 123.733 183.553 124.16 182.713 124.16ZM202.192 124.2C201.485 124.2 200.852 124.067 200.292 123.8C199.745 123.52 199.312 123.147 198.992 122.68C198.685 122.213 198.532 121.687 198.532 121.1C198.532 120.38 198.719 119.813 199.092 119.4C199.465 118.973 200.072 118.667 200.912 118.48C201.752 118.293 202.879 118.2 204.292 118.2H204.992V117.78C204.992 117.113 204.845 116.633 204.552 116.34C204.259 116.047 203.765 115.9 203.072 115.9C202.685 115.9 202.265 115.947 201.812 116.04C201.372 116.133 200.905 116.293 200.412 116.52C200.092 116.667 199.825 116.687 199.612 116.58C199.399 116.46 199.252 116.28 199.172 116.04C199.105 115.787 199.119 115.533 199.212 115.28C199.319 115.027 199.525 114.84 199.832 114.72C200.445 114.467 201.032 114.287 201.592 114.18C202.165 114.073 202.685 114.02 203.152 114.02C204.579 114.02 205.639 114.353 206.332 115.02C207.025 115.673 207.372 116.693 207.372 118.08V122.88C207.372 123.733 206.985 124.16 206.212 124.16C205.425 124.16 205.032 123.733 205.032 122.88V122.44C204.805 122.987 204.445 123.42 203.952 123.74C203.459 124.047 202.872 124.2 202.192 124.2ZM202.712 122.48C203.365 122.48 203.905 122.253 204.332 121.8C204.772 121.347 204.992 120.773 204.992 120.08V119.64H204.312C203.059 119.64 202.185 119.74 201.692 119.94C201.212 120.127 200.972 120.473 200.972 120.98C200.972 121.42 201.125 121.78 201.432 122.06C201.739 122.34 202.165 122.48 202.712 122.48ZM33.44 154.76C32.6133 154.76 32.2 154.34 32.2 153.5V149.52C31.92 150.027 31.5 150.433 30.94 150.74C30.38 151.047 29.7533 151.2 29.06 151.2C28.2067 151.2 27.4533 150.993 26.8 150.58C26.16 150.167 25.66 149.58 25.3 148.82C24.94 148.047 24.76 147.14 24.76 146.1C24.76 145.047 24.94 144.147 25.3 143.4C25.66 142.64 26.16 142.053 26.8 141.64C27.4533 141.227 28.2067 141.02 29.06 141.02C29.7667 141.02 30.4 141.18 30.96 141.5C31.52 141.807 31.94 142.22 32.22 142.74V142.32C32.22 141.48 32.6333 141.06 33.46 141.06C34.2867 141.06 34.7 141.48 34.7 142.32V153.5C34.7 154.34 34.28 154.76 33.44 154.76ZM29.76 149.3C30.5067 149.3 31.1067 149.033 31.56 148.5C32.0133 147.953 32.24 147.153 32.24 146.1C32.24 145.033 32.0133 144.24 31.56 143.72C31.1067 143.187 30.5067 142.92 29.76 142.92C29.0133 142.92 28.4133 143.187 27.96 143.72C27.5067 144.24 27.28 145.033 27.28 146.1C27.28 147.153 27.5067 147.953 27.96 148.5C28.4133 149.033 29.0133 149.3 29.76 149.3ZM41.7522 151.2C40.7389 151.2 39.8589 150.993 39.1122 150.58C38.3655 150.167 37.7855 149.58 37.3722 148.82C36.9589 148.047 36.7522 147.14 36.7522 146.1C36.7522 145.06 36.9589 144.16 37.3722 143.4C37.7855 142.64 38.3655 142.053 39.1122 141.64C39.8589 141.227 40.7389 141.02 41.7522 141.02C42.7655 141.02 43.6455 141.227 44.3922 141.64C45.1389 142.053 45.7189 142.64 46.1322 143.4C46.5455 144.16 46.7522 145.06 46.7522 146.1C46.7522 147.14 46.5455 148.047 46.1322 148.82C45.7189 149.58 45.1389 150.167 44.3922 150.58C43.6455 150.993 42.7655 151.2 41.7522 151.2ZM41.7522 149.3C42.4989 149.3 43.0989 149.033 43.5522 148.5C44.0055 147.953 44.2322 147.153 44.2322 146.1C44.2322 145.033 44.0055 144.24 43.5522 143.72C43.0989 143.187 42.4989 142.92 41.7522 142.92C41.0055 142.92 40.4055 143.187 39.9522 143.72C39.4989 144.24 39.2722 145.033 39.2722 146.1C39.2722 147.153 39.4989 147.953 39.9522 148.5C40.4055 149.033 41.0055 149.3 41.7522 149.3ZM52.1556 151.2C49.929 151.2 48.8156 149.953 48.8156 147.46V138C48.8156 137.16 49.229 136.74 50.0556 136.74C50.8956 136.74 51.3156 137.16 51.3156 138V147.34C51.3156 148.54 51.8156 149.14 52.8156 149.14C52.9223 149.14 53.0223 149.14 53.1156 149.14C53.209 149.127 53.3023 149.113 53.3956 149.1C53.5823 149.073 53.709 149.127 53.7756 149.26C53.8423 149.38 53.8756 149.633 53.8756 150.02C53.8756 150.353 53.809 150.613 53.6756 150.8C53.5423 150.987 53.3223 151.1 53.0156 151.14C52.7356 151.18 52.449 151.2 52.1556 151.2ZM58.8647 151.2C58.0114 151.2 57.258 150.993 56.6047 150.58C55.9647 150.167 55.4647 149.58 55.1047 148.82C54.7447 148.047 54.5647 147.14 54.5647 146.1C54.5647 145.047 54.7447 144.147 55.1047 143.4C55.4647 142.64 55.9647 142.053 56.6047 141.64C57.258 141.227 58.0114 141.02 58.8647 141.02C59.558 141.02 60.1847 141.173 60.7447 141.48C61.3047 141.787 61.7247 142.193 62.0047 142.7V138C62.0047 137.16 62.418 136.74 63.2447 136.74C64.0847 136.74 64.5047 137.16 64.5047 138V149.88C64.5047 150.733 64.0914 151.16 63.2647 151.16C62.438 151.16 62.0247 150.733 62.0247 149.88V149.46C61.7447 149.993 61.3247 150.42 60.7647 150.74C60.2047 151.047 59.5714 151.2 58.8647 151.2ZM59.5647 149.3C60.3114 149.3 60.9114 149.033 61.3647 148.5C61.818 147.953 62.0447 147.153 62.0447 146.1C62.0447 145.033 61.818 144.24 61.3647 143.72C60.9114 143.187 60.3114 142.92 59.5647 142.92C58.818 142.92 58.218 143.187 57.7647 143.72C57.3114 144.24 57.0847 145.033 57.0847 146.1C57.0847 147.153 57.3114 147.953 57.7647 148.5C58.218 149.033 58.818 149.3 59.5647 149.3ZM68.3369 139.22C67.8702 139.22 67.5035 139.107 67.2369 138.88C66.9835 138.64 66.8569 138.313 66.8569 137.9C66.8569 137.473 66.9835 137.147 67.2369 136.92C67.5035 136.693 67.8702 136.58 68.3369 136.58C69.3235 136.58 69.8169 137.02 69.8169 137.9C69.8169 138.78 69.3235 139.22 68.3369 139.22ZM68.3369 151.14C67.9369 151.14 67.6302 151.02 67.4169 150.78C67.2035 150.54 67.0969 150.207 67.0969 149.78V142.44C67.0969 141.533 67.5102 141.08 68.3369 141.08C69.1769 141.08 69.5969 141.533 69.5969 142.44V149.78C69.5969 150.207 69.4902 150.54 69.2769 150.78C69.0635 151.02 68.7502 151.14 68.3369 151.14ZM73.4745 151.16C72.6212 151.16 72.1945 150.733 72.1945 149.88V142.32C72.1945 141.48 72.6012 141.06 73.4145 141.06C74.2279 141.06 74.6345 141.48 74.6345 142.32V142.94C75.1145 141.793 76.1412 141.153 77.7145 141.02C78.2879 140.953 78.6079 141.28 78.6745 142C78.7412 142.707 78.3945 143.1 77.6345 143.18L77.1945 143.22C75.5545 143.38 74.7345 144.22 74.7345 145.74V149.88C74.7345 150.733 74.3145 151.16 73.4745 151.16ZM81.2666 139.22C80.7999 139.22 80.4332 139.107 80.1666 138.88C79.9132 138.64 79.7866 138.313 79.7866 137.9C79.7866 137.473 79.9132 137.147 80.1666 136.92C80.4332 136.693 80.7999 136.58 81.2666 136.58C82.2532 136.58 82.7466 137.02 82.7466 137.9C82.7466 138.78 82.2532 139.22 81.2666 139.22ZM81.2666 151.14C80.8666 151.14 80.5599 151.02 80.3466 150.78C80.1332 150.54 80.0266 150.207 80.0266 149.78V142.44C80.0266 141.533 80.4399 141.08 81.2666 141.08C82.1066 141.08 82.5266 141.533 82.5266 142.44V149.78C82.5266 150.207 82.4199 150.54 82.2066 150.78C81.9932 151.02 81.6799 151.14 81.2666 151.14ZM86.3642 151.16C85.5376 151.16 85.1242 150.733 85.1242 149.88V142.32C85.1242 141.48 85.5309 141.06 86.3442 141.06C87.1576 141.06 87.5642 141.48 87.5642 142.32V142.74C87.8976 142.18 88.3442 141.753 88.9042 141.46C89.4776 141.167 90.1176 141.02 90.8242 141.02C93.1309 141.02 94.2842 142.36 94.2842 145.04V149.88C94.2842 150.733 93.8709 151.16 93.0442 151.16C92.2042 151.16 91.7842 150.733 91.7842 149.88V145.16C91.7842 144.4 91.6376 143.847 91.3442 143.5C91.0642 143.153 90.6242 142.98 90.0242 142.98C89.2909 142.98 88.7042 143.213 88.2642 143.68C87.8376 144.133 87.6242 144.74 87.6242 145.5V149.88C87.6242 150.733 87.2042 151.16 86.3642 151.16ZM101.383 154.8C100.663 154.8 99.9634 154.733 99.2834 154.6C98.6168 154.467 98.0101 154.26 97.4634 153.98C97.1434 153.82 96.9501 153.613 96.8834 153.36C96.8301 153.12 96.8568 152.887 96.9634 152.66C97.0701 152.433 97.2301 152.267 97.4434 152.16C97.6701 152.067 97.9101 152.08 98.1634 152.2C98.7501 152.493 99.3034 152.68 99.8234 152.76C100.357 152.853 100.81 152.9 101.183 152.9C102.97 152.9 103.863 152.04 103.863 150.32V148.98C103.583 149.527 103.15 149.96 102.563 150.28C101.99 150.6 101.35 150.76 100.643 150.76C99.7634 150.76 98.9968 150.56 98.3434 150.16C97.6901 149.747 97.1834 149.173 96.8234 148.44C96.4634 147.707 96.2834 146.853 96.2834 145.88C96.2834 144.907 96.4634 144.06 96.8234 143.34C97.1834 142.607 97.6901 142.04 98.3434 141.64C98.9968 141.227 99.7634 141.02 100.643 141.02C101.35 141.02 101.99 141.173 102.563 141.48C103.137 141.787 103.557 142.207 103.823 142.74V142.32C103.823 141.907 103.93 141.593 104.143 141.38C104.37 141.167 104.677 141.06 105.063 141.06C105.89 141.06 106.303 141.48 106.303 142.32V150.02C106.303 151.607 105.883 152.8 105.043 153.6C104.203 154.4 102.983 154.8 101.383 154.8ZM101.323 148.86C102.097 148.86 102.71 148.593 103.163 148.06C103.617 147.527 103.843 146.8 103.843 145.88C103.843 144.96 103.617 144.24 103.163 143.72C102.71 143.187 102.097 142.92 101.323 142.92C100.55 142.92 99.9368 143.187 99.4834 143.72C99.0301 144.24 98.8034 144.96 98.8034 145.88C98.8034 146.8 99.0301 147.527 99.4834 148.06C99.9368 148.593 100.55 148.86 101.323 148.86Z" fill="white"/>
<path d="M54.7752 42.5702L48.1476 49.1978M77.3711 65.1639L46.831 34.6238L34.6189 46.8359L65.159 77.376H77.3744L77.3711 65.1639Z" stroke="white" stroke-width="2" stroke-miterlimit="10" stroke-linecap="round" stroke-linejoin="round"/>
<g opacity="0.32">
<path d="M315.964 97.2577L302.002 111.255M363.686 144.858L299.187 80.5163L273.458 106.308L337.958 170.649L363.725 170.618L363.686 144.858Z" stroke="white" stroke-width="4" stroke-miterlimit="10" stroke-linecap="round" stroke-linejoin="round"/>
</g>
</g>
<g clip-path="url(#clip1_3_113)">
<rect x="400" width="380" height="182" rx="24" fill="url(#paint2_linear_3_113)"/>
<path d="M426.66 124C426.233 124 425.92 123.907 425.72 123.72C425.533 123.52 425.44 123.233 425.44 122.86C425.44 122.633 425.5 122.413 425.62 122.2C425.74 121.987 425.913 121.76 426.14 121.52L430.16 117.24C430.773 116.6 431.213 116.02 431.48 115.5C431.747 114.967 431.88 114.433 431.88 113.9C431.88 112.54 431.06 111.86 429.42 111.86C428.967 111.86 428.513 111.927 428.06 112.06C427.607 112.18 427.147 112.393 426.68 112.7C426.387 112.9 426.113 112.96 425.86 112.88C425.607 112.8 425.413 112.64 425.28 112.4C425.147 112.147 425.1 111.88 425.14 111.6C425.193 111.32 425.367 111.08 425.66 110.88C426.233 110.493 426.873 110.2 427.58 110C428.3 109.8 429.02 109.7 429.74 109.7C431.247 109.7 432.4 110.04 433.2 110.72C434.013 111.4 434.42 112.373 434.42 113.64C434.42 114.493 434.213 115.313 433.8 116.1C433.4 116.887 432.767 117.733 431.9 118.64L428.8 121.88H434.02C434.753 121.88 435.12 122.227 435.12 122.92C435.12 123.64 434.753 124 434.02 124H426.66ZM438.492 124.1C438.039 124.1 437.672 123.96 437.392 123.68C437.126 123.4 436.992 123.04 436.992 122.6C436.992 122.173 437.126 121.827 437.392 121.56C437.672 121.28 438.039 121.14 438.492 121.14C438.959 121.14 439.319 121.28 439.572 121.56C439.839 121.827 439.972 122.173 439.972 122.6C439.972 123.04 439.839 123.4 439.572 123.68C439.319 123.96 438.959 124.1 438.492 124.1ZM449.283 124C448.376 124 447.923 123.547 447.923 122.64V111.26C447.923 110.353 448.376 109.9 449.283 109.9H454.083C455.563 109.9 456.709 110.227 457.523 110.88C458.336 111.52 458.743 112.413 458.743 113.56C458.743 114.32 458.549 114.973 458.163 115.52C457.776 116.067 457.243 116.467 456.563 116.72C457.363 116.947 457.983 117.347 458.423 117.92C458.876 118.48 459.103 119.193 459.103 120.06C459.103 121.313 458.676 122.287 457.823 122.98C456.983 123.66 455.809 124 454.303 124H449.283ZM450.383 115.88H453.643C455.389 115.88 456.263 115.207 456.263 113.86C456.263 112.513 455.389 111.84 453.643 111.84H450.383V115.88ZM450.383 122.06H453.983C455.743 122.06 456.623 121.353 456.623 119.94C456.623 118.527 455.743 117.82 453.983 117.82H450.383V122.06ZM462.692 112.22C462.226 112.22 461.859 112.107 461.592 111.88C461.339 111.64 461.212 111.313 461.212 110.9C461.212 110.473 461.339 110.147 461.592 109.92C461.859 109.693 462.226 109.58 462.692 109.58C463.679 109.58 464.172 110.02 464.172 110.9C464.172 111.78 463.679 112.22 462.692 112.22ZM462.692 124.14C462.292 124.14 461.986 124.02 461.772 123.78C461.559 123.54 461.452 123.207 461.452 122.78V115.44C461.452 114.533 461.866 114.08 462.692 114.08C463.532 114.08 463.952 114.533 463.952 115.44V122.78C463.952 123.207 463.846 123.54 463.632 123.78C463.419 124.02 463.106 124.14 462.692 124.14ZM467.15 124C466.803 124 466.543 123.893 466.37 123.68C466.197 123.453 466.123 123.187 466.15 122.88C466.177 122.573 466.317 122.28 466.57 122L471.27 116.1H467.03C466.39 116.1 466.07 115.787 466.07 115.16C466.07 114.533 466.39 114.22 467.03 114.22H472.95C473.35 114.22 473.643 114.327 473.83 114.54C474.03 114.753 474.117 115.013 474.09 115.32C474.077 115.613 473.943 115.9 473.69 116.18L468.93 122.12H473.41C474.05 122.12 474.37 122.433 474.37 123.06C474.37 123.687 474.05 124 473.41 124H467.15ZM485.032 124.2C484.459 124.2 483.852 124.14 483.212 124.02C482.572 123.9 481.999 123.693 481.492 123.4C481.212 123.24 481.039 123.047 480.972 122.82C480.906 122.58 480.912 122.36 480.992 122.16C481.086 121.947 481.232 121.793 481.432 121.7C481.646 121.607 481.892 121.627 482.172 121.76C482.706 122.013 483.206 122.193 483.672 122.3C484.139 122.393 484.599 122.44 485.052 122.44C485.692 122.44 486.166 122.333 486.472 122.12C486.792 121.893 486.952 121.6 486.952 121.24C486.952 120.68 486.539 120.32 485.712 120.16L483.712 119.78C482.019 119.46 481.172 118.58 481.172 117.14C481.172 116.5 481.346 115.947 481.692 115.48C482.052 115.013 482.546 114.653 483.172 114.4C483.799 114.147 484.519 114.02 485.332 114.02C486.506 114.02 487.552 114.28 488.472 114.8C488.726 114.933 488.872 115.12 488.912 115.36C488.966 115.587 488.939 115.807 488.832 116.02C488.739 116.22 488.586 116.367 488.372 116.46C488.159 116.54 487.912 116.513 487.632 116.38C487.219 116.167 486.819 116.013 486.432 115.92C486.059 115.827 485.699 115.78 485.352 115.78C484.699 115.78 484.212 115.893 483.892 116.12C483.586 116.347 483.432 116.647 483.432 117.02C483.432 117.607 483.812 117.967 484.572 118.1L486.572 118.48C487.439 118.64 488.092 118.933 488.532 119.36C488.986 119.787 489.212 120.36 489.212 121.08C489.212 122.053 488.832 122.82 488.072 123.38C487.312 123.927 486.299 124.2 485.032 124.2ZM492.458 112.22C491.991 112.22 491.625 112.107 491.358 111.88C491.105 111.64 490.978 111.313 490.978 110.9C490.978 110.473 491.105 110.147 491.358 109.92C491.625 109.693 491.991 109.58 492.458 109.58C493.445 109.58 493.938 110.02 493.938 110.9C493.938 111.78 493.445 112.22 492.458 112.22ZM492.458 124.14C492.058 124.14 491.751 124.02 491.538 123.78C491.325 123.54 491.218 123.207 491.218 122.78V115.44C491.218 114.533 491.631 114.08 492.458 114.08C493.298 114.08 493.718 114.533 493.718 115.44V122.78C493.718 123.207 493.611 123.54 493.398 123.78C493.185 124.02 492.871 124.14 492.458 124.14ZM496.916 124C496.569 124 496.309 123.893 496.136 123.68C495.962 123.453 495.889 123.187 495.916 122.88C495.942 122.573 496.082 122.28 496.336 122L501.036 116.1H496.796C496.156 116.1 495.836 115.787 495.836 115.16C495.836 114.533 496.156 114.22 496.796 114.22H502.716C503.116 114.22 503.409 114.327 503.596 114.54C503.796 114.753 503.882 115.013 503.856 115.32C503.842 115.613 503.709 115.9 503.456 116.18L498.696 122.12H503.176C503.816 122.12 504.136 122.433 504.136 123.06C504.136 123.687 503.816 124 503.176 124H496.916ZM516.858 124.2C516.138 124.2 515.498 124.047 514.938 123.74C514.378 123.42 513.958 122.993 513.678 122.46V122.88C513.678 123.733 513.271 124.16 512.458 124.16C511.631 124.16 511.218 123.733 511.218 122.88V111C511.218 110.16 511.631 109.74 512.458 109.74C513.298 109.74 513.718 110.16 513.718 111V115.66C514.011 115.167 514.431 114.773 514.978 114.48C515.538 114.173 516.165 114.02 516.858 114.02C517.725 114.02 518.478 114.227 519.118 114.64C519.758 115.053 520.258 115.64 520.618 116.4C520.978 117.147 521.158 118.047 521.158 119.1C521.158 120.14 520.978 121.047 520.618 121.82C520.258 122.58 519.751 123.167 519.098 123.58C518.458 123.993 517.711 124.2 516.858 124.2ZM516.158 122.3C516.905 122.3 517.505 122.033 517.958 121.5C518.411 120.953 518.638 120.153 518.638 119.1C518.638 118.033 518.411 117.24 517.958 116.72C517.505 116.187 516.905 115.92 516.158 115.92C515.411 115.92 514.811 116.187 514.358 116.72C513.905 117.24 513.678 118.033 513.678 119.1C513.678 120.153 513.905 120.953 514.358 121.5C514.811 122.033 515.411 122.3 516.158 122.3ZM524.45 112.22C523.983 112.22 523.617 112.107 523.35 111.88C523.097 111.64 522.97 111.313 522.97 110.9C522.97 110.473 523.097 110.147 523.35 109.92C523.617 109.693 523.983 109.58 524.45 109.58C525.437 109.58 525.93 110.02 525.93 110.9C525.93 111.78 525.437 112.22 524.45 112.22ZM524.45 124.14C524.05 124.14 523.743 124.02 523.53 123.78C523.317 123.54 523.21 123.207 523.21 122.78V115.44C523.21 114.533 523.623 114.08 524.45 114.08C525.29 114.08 525.71 114.533 525.71 115.44V122.78C525.71 123.207 525.603 123.54 525.39 123.78C525.177 124.02 524.863 124.14 524.45 124.14ZM531.648 124.2C529.421 124.2 528.308 122.953 528.308 120.46V111C528.308 110.16 528.721 109.74 529.548 109.74C530.388 109.74 530.808 110.16 530.808 111V120.34C530.808 121.54 531.308 122.14 532.308 122.14C532.414 122.14 532.514 122.14 532.608 122.14C532.701 122.127 532.794 122.113 532.888 122.1C533.074 122.073 533.201 122.127 533.268 122.26C533.334 122.38 533.368 122.633 533.368 123.02C533.368 123.353 533.301 123.613 533.168 123.8C533.034 123.987 532.814 124.1 532.508 124.14C532.228 124.18 531.941 124.2 531.648 124.2ZM537.915 124.2C537.208 124.2 536.575 124.067 536.015 123.8C535.468 123.52 535.035 123.147 534.715 122.68C534.408 122.213 534.255 121.687 534.255 121.1C534.255 120.38 534.441 119.813 534.815 119.4C535.188 118.973 535.795 118.667 536.635 118.48C537.475 118.293 538.601 118.2 540.015 118.2H540.715V117.78C540.715 117.113 540.568 116.633 540.275 116.34C539.981 116.047 539.488 115.9 538.795 115.9C538.408 115.9 537.988 115.947 537.535 116.04C537.095 116.133 536.628 116.293 536.135 116.52C535.815 116.667 535.548 116.687 535.335 116.58C535.121 116.46 534.975 116.28 534.895 116.04C534.828 115.787 534.841 115.533 534.935 115.28C535.041 115.027 535.248 114.84 535.555 114.72C536.168 114.467 536.755 114.287 537.315 114.18C537.888 114.073 538.408 114.02 538.875 114.02C540.301 114.02 541.361 114.353 542.055 115.02C542.748 115.673 543.095 116.693 543.095 118.08V122.88C543.095 123.733 542.708 124.16 541.935 124.16C541.148 124.16 540.755 123.733 540.755 122.88V122.44C540.528 122.987 540.168 123.42 539.675 123.74C539.181 124.047 538.595 124.2 537.915 124.2ZM538.435 122.48C539.088 122.48 539.628 122.253 540.055 121.8C540.495 121.347 540.715 120.773 540.715 120.08V119.64H540.035C538.781 119.64 537.908 119.74 537.415 119.94C536.935 120.127 536.695 120.473 536.695 120.98C536.695 121.42 536.848 121.78 537.155 122.06C537.461 122.34 537.888 122.48 538.435 122.48ZM546.872 124.16C546.045 124.16 545.632 123.733 545.632 122.88V115.32C545.632 114.48 546.039 114.06 546.852 114.06C547.665 114.06 548.072 114.48 548.072 115.32V115.74C548.405 115.18 548.852 114.753 549.412 114.46C549.985 114.167 550.625 114.02 551.332 114.02C553.639 114.02 554.792 115.36 554.792 118.04V122.88C554.792 123.733 554.379 124.16 553.552 124.16C552.712 124.16 552.292 123.733 552.292 122.88V118.16C552.292 117.4 552.145 116.847 551.852 116.5C551.572 116.153 551.132 115.98 550.532 115.98C549.799 115.98 549.212 116.213 548.772 116.68C548.345 117.133 548.132 117.74 548.132 118.5V122.88C548.132 123.733 547.712 124.16 546.872 124.16ZM430.94 151.2C430.22 151.2 429.58 151.047 429.02 150.74C428.46 150.42 428.04 149.993 427.76 149.46V149.88C427.76 150.733 427.353 151.16 426.54 151.16C425.713 151.16 425.3 150.733 425.3 149.88V138C425.3 137.16 425.713 136.74 426.54 136.74C427.38 136.74 427.8 137.16 427.8 138V142.66C428.093 142.167 428.513 141.773 429.06 141.48C429.62 141.173 430.247 141.02 430.94 141.02C431.807 141.02 432.56 141.227 433.2 141.64C433.84 142.053 434.34 142.64 434.7 143.4C435.06 144.147 435.24 145.047 435.24 146.1C435.24 147.14 435.06 148.047 434.7 148.82C434.34 149.58 433.833 150.167 433.18 150.58C432.54 150.993 431.793 151.2 430.94 151.2ZM430.24 149.3C430.987 149.3 431.587 149.033 432.04 148.5C432.493 147.953 432.72 147.153 432.72 146.1C432.72 145.033 432.493 144.24 432.04 143.72C431.587 143.187 430.987 142.92 430.24 142.92C429.493 142.92 428.893 143.187 428.44 143.72C427.987 144.24 427.76 145.033 427.76 146.1C427.76 147.153 427.987 147.953 428.44 148.5C428.893 149.033 429.493 149.3 430.24 149.3ZM441.752 151.2C440.739 151.2 439.859 150.993 439.112 150.58C438.366 150.167 437.786 149.58 437.372 148.82C436.959 148.047 436.752 147.14 436.752 146.1C436.752 145.06 436.959 144.16 437.372 143.4C437.786 142.64 438.366 142.053 439.112 141.64C439.859 141.227 440.739 141.02 441.752 141.02C442.766 141.02 443.646 141.227 444.392 141.64C445.139 142.053 445.719 142.64 446.132 143.4C446.546 144.16 446.752 145.06 446.752 146.1C446.752 147.14 446.546 148.047 446.132 148.82C445.719 149.58 445.139 150.167 444.392 150.58C443.646 150.993 442.766 151.2 441.752 151.2ZM441.752 149.3C442.499 149.3 443.099 149.033 443.552 148.5C444.006 147.953 444.232 147.153 444.232 146.1C444.232 145.033 444.006 144.24 443.552 143.72C443.099 143.187 442.499 142.92 441.752 142.92C441.006 142.92 440.406 143.187 439.952 143.72C439.499 144.24 439.272 145.033 439.272 146.1C439.272 147.153 439.499 147.953 439.952 148.5C440.406 149.033 441.006 149.3 441.752 149.3ZM453.376 154.8C452.656 154.8 451.956 154.733 451.276 154.6C450.609 154.467 450.002 154.26 449.456 153.98C449.136 153.82 448.942 153.613 448.876 153.36C448.822 153.12 448.849 152.887 448.956 152.66C449.062 152.433 449.222 152.267 449.436 152.16C449.662 152.067 449.902 152.08 450.156 152.2C450.742 152.493 451.296 152.68 451.816 152.76C452.349 152.853 452.802 152.9 453.176 152.9C454.962 152.9 455.856 152.04 455.856 150.32V148.98C455.576 149.527 455.142 149.96 454.556 150.28C453.982 150.6 453.342 150.76 452.636 150.76C451.756 150.76 450.989 150.56 450.336 150.16C449.682 149.747 449.176 149.173 448.816 148.44C448.456 147.707 448.276 146.853 448.276 145.88C448.276 144.907 448.456 144.06 448.816 143.34C449.176 142.607 449.682 142.04 450.336 141.64C450.989 141.227 451.756 141.02 452.636 141.02C453.342 141.02 453.982 141.173 454.556 141.48C455.129 141.787 455.549 142.207 455.816 142.74V142.32C455.816 141.907 455.922 141.593 456.136 141.38C456.362 141.167 456.669 141.06 457.056 141.06C457.882 141.06 458.296 141.48 458.296 142.32V150.02C458.296 151.607 457.876 152.8 457.036 153.6C456.196 154.4 454.976 154.8 453.376 154.8ZM453.316 148.86C454.089 148.86 454.702 148.593 455.156 148.06C455.609 147.527 455.836 146.8 455.836 145.88C455.836 144.96 455.609 144.24 455.156 143.72C454.702 143.187 454.089 142.92 453.316 142.92C452.542 142.92 451.929 143.187 451.476 143.72C451.022 144.24 450.796 144.96 450.796 145.88C450.796 146.8 451.022 147.527 451.476 148.06C451.929 148.593 452.542 148.86 453.316 148.86ZM463.666 139.8L461.726 137C461.539 136.72 461.493 136.46 461.586 136.22C461.679 135.98 461.846 135.793 462.086 135.66C462.326 135.527 462.579 135.487 462.846 135.54C463.113 135.58 463.326 135.753 463.486 136.06L464.986 139.04C465.093 139.253 465.113 139.447 465.046 139.62C464.979 139.793 464.859 139.927 464.686 140.02C464.513 140.113 464.333 140.147 464.146 140.12C463.959 140.093 463.799 139.987 463.666 139.8ZM474.226 151.2C471.999 151.2 470.886 149.953 470.886 147.46V138C470.886 137.16 471.299 136.74 472.126 136.74C472.966 136.74 473.386 137.16 473.386 138V147.34C473.386 148.54 473.886 149.14 474.886 149.14C474.993 149.14 475.093 149.14 475.186 149.14C475.279 149.127 475.373 149.113 475.466 149.1C475.653 149.073 475.779 149.127 475.846 149.26C475.913 149.38 475.946 149.633 475.946 150.02C475.946 150.353 475.879 150.613 475.746 150.8C475.613 150.987 475.393 151.1 475.086 151.14C474.806 151.18 474.519 151.2 474.226 151.2ZM480.493 151.2C479.786 151.2 479.153 151.067 478.593 150.8C478.046 150.52 477.613 150.147 477.293 149.68C476.986 149.213 476.833 148.687 476.833 148.1C476.833 147.38 477.019 146.813 477.393 146.4C477.766 145.973 478.373 145.667 479.213 145.48C480.053 145.293 481.179 145.2 482.593 145.2H483.293V144.78C483.293 144.113 483.146 143.633 482.853 143.34C482.559 143.047 482.066 142.9 481.373 142.9C480.986 142.9 480.566 142.947 480.113 143.04C479.673 143.133 479.206 143.293 478.713 143.52C478.393 143.667 478.126 143.687 477.913 143.58C477.699 143.46 477.553 143.28 477.473 143.04C477.406 142.787 477.419 142.533 477.513 142.28C477.619 142.027 477.826 141.84 478.133 141.72C478.746 141.467 479.333 141.287 479.893 141.18C480.466 141.073 480.986 141.02 481.453 141.02C482.879 141.02 483.939 141.353 484.633 142.02C485.326 142.673 485.673 143.693 485.673 145.08V149.88C485.673 150.733 485.286 151.16 484.513 151.16C483.726 151.16 483.333 150.733 483.333 149.88V149.44C483.106 149.987 482.746 150.42 482.253 150.74C481.759 151.047 481.173 151.2 480.493 151.2ZM481.013 149.48C481.666 149.48 482.206 149.253 482.633 148.8C483.073 148.347 483.293 147.773 483.293 147.08V146.64H482.613C481.359 146.64 480.486 146.74 479.993 146.94C479.513 147.127 479.273 147.473 479.273 147.98C479.273 148.42 479.426 148.78 479.733 149.06C480.039 149.34 480.466 149.48 481.013 149.48ZM489.45 151.16C488.623 151.16 488.21 150.733 488.21 149.88V142.32C488.21 141.48 488.617 141.06 489.43 141.06C490.243 141.06 490.65 141.48 490.65 142.32V142.74C490.983 142.18 491.43 141.753 491.99 141.46C492.563 141.167 493.203 141.02 493.91 141.02C496.217 141.02 497.37 142.36 497.37 145.04V149.88C497.37 150.733 496.957 151.16 496.13 151.16C495.29 151.16 494.87 150.733 494.87 149.88V145.16C494.87 144.4 494.723 143.847 494.43 143.5C494.15 143.153 493.71 142.98 493.11 142.98C492.377 142.98 491.79 143.213 491.35 143.68C490.923 144.133 490.71 144.74 490.71 145.5V149.88C490.71 150.733 490.29 151.16 489.45 151.16ZM503.129 151.2C502.423 151.2 501.789 151.067 501.229 150.8C500.683 150.52 500.249 150.147 499.929 149.68C499.623 149.213 499.469 148.687 499.469 148.1C499.469 147.38 499.656 146.813 500.029 146.4C500.403 145.973 501.009 145.667 501.849 145.48C502.689 145.293 503.816 145.2 505.229 145.2H505.929V144.78C505.929 144.113 505.783 143.633 505.489 143.34C505.196 143.047 504.703 142.9 504.009 142.9C503.623 142.9 503.203 142.947 502.749 143.04C502.309 143.133 501.843 143.293 501.349 143.52C501.029 143.667 500.763 143.687 500.549 143.58C500.336 143.46 500.189 143.28 500.109 143.04C500.043 142.787 500.056 142.533 500.149 142.28C500.256 142.027 500.463 141.84 500.769 141.72C501.383 141.467 501.969 141.287 502.529 141.18C503.103 141.073 503.623 141.02 504.089 141.02C505.516 141.02 506.576 141.353 507.269 142.02C507.963 142.673 508.309 143.693 508.309 145.08V149.88C508.309 150.733 507.923 151.16 507.149 151.16C506.363 151.16 505.969 150.733 505.969 149.88V149.44C505.743 149.987 505.383 150.42 504.889 150.74C504.396 151.047 503.809 151.2 503.129 151.2ZM503.649 149.48C504.303 149.48 504.843 149.253 505.269 148.8C505.709 148.347 505.929 147.773 505.929 147.08V146.64H505.249C503.996 146.64 503.123 146.74 502.629 146.94C502.149 147.127 501.909 147.473 501.909 147.98C501.909 148.42 502.063 148.78 502.369 149.06C502.676 149.34 503.103 149.48 503.649 149.48ZM512.127 151.16C511.3 151.16 510.887 150.733 510.887 149.88V142.32C510.887 141.48 511.294 141.06 512.107 141.06C512.92 141.06 513.327 141.48 513.327 142.32V142.72C513.62 142.187 514.027 141.773 514.547 141.48C515.067 141.173 515.667 141.02 516.347 141.02C517.814 141.02 518.774 141.66 519.227 142.94C519.534 142.34 519.974 141.873 520.547 141.54C521.12 141.193 521.774 141.02 522.507 141.02C524.707 141.02 525.807 142.36 525.807 145.04V149.88C525.807 150.733 525.387 151.16 524.547 151.16C523.72 151.16 523.307 150.733 523.307 149.88V145.14C523.307 144.393 523.18 143.847 522.927 143.5C522.687 143.153 522.274 142.98 521.687 142.98C521.034 142.98 520.52 143.213 520.147 143.68C519.774 144.133 519.587 144.767 519.587 145.58V149.88C519.587 150.733 519.174 151.16 518.347 151.16C517.507 151.16 517.087 150.733 517.087 149.88V145.14C517.087 144.393 516.96 143.847 516.707 143.5C516.467 143.153 516.06 142.98 515.487 142.98C514.834 142.98 514.32 143.213 513.947 143.68C513.574 144.133 513.387 144.767 513.387 145.58V149.88C513.387 150.733 512.967 151.16 512.127 151.16ZM529.626 139.22C529.159 139.22 528.793 139.107 528.526 138.88C528.273 138.64 528.146 138.313 528.146 137.9C528.146 137.473 528.273 137.147 528.526 136.92C528.793 136.693 529.159 136.58 529.626 136.58C530.613 136.58 531.106 137.02 531.106 137.9C531.106 138.78 530.613 139.22 529.626 139.22ZM529.626 151.14C529.226 151.14 528.919 151.02 528.706 150.78C528.493 150.54 528.386 150.207 528.386 149.78V142.44C528.386 141.533 528.799 141.08 529.626 141.08C530.466 141.08 530.886 141.533 530.886 142.44V149.78C530.886 150.207 530.779 150.54 530.566 150.78C530.353 151.02 530.039 151.14 529.626 151.14ZM534.084 151C533.737 151 533.477 150.893 533.304 150.68C533.13 150.453 533.057 150.187 533.084 149.88C533.11 149.573 533.25 149.28 533.504 149L538.204 143.1H533.964C533.324 143.1 533.004 142.787 533.004 142.16C533.004 141.533 533.324 141.22 533.964 141.22H539.884C540.284 141.22 540.577 141.327 540.764 141.54C540.964 141.753 541.05 142.013 541.024 142.32C541.01 142.613 540.877 142.9 540.624 143.18L535.864 149.12H540.344C540.984 149.12 541.304 149.433 541.304 150.06C541.304 150.687 540.984 151 540.344 151H534.084Z" fill="white"/>
<path d="M477.315 48.8881H463.112V34.6854M463.131 48.8694L479.661 32.3388M449.616 62.3068C452.016 64.6081 454.829 66.4801 457.939 67.8081L459.323 68.3974L463.576 64.0774C464.632 63.0054 466.16 62.5414 467.635 62.8508L477.939 65.0081C479.683 65.3788 480.928 66.9174 480.928 68.6988V76.1174C480.928 78.7708 478.779 80.9201 476.125 80.9201H473.845C463.355 80.9201 453.003 77.4454 445.173 70.4641C444.528 69.8908 443.901 69.2961 443.291 68.6881L443.389 68.7868C442.779 68.1761 442.187 67.5494 441.613 66.9041C434.629 59.0774 431.155 48.7254 431.155 38.2348V35.9548C431.155 33.3014 433.304 31.1521 435.957 31.1521H443.376C445.157 31.1521 446.696 32.3974 447.067 34.1414L449.227 44.4454C449.533 45.9174 449.072 47.4481 448 48.5041L443.68 52.7574L444.269 54.1414C445.597 57.2481 447.312 59.9068 449.616 62.3068Z" stroke="white" stroke-width="2" stroke-miterlimit="10" stroke-linecap="round" stroke-linejoin="round"/>
<g opacity="0.32">
<path d="M774.461 116.498H744.502V86.5393M744.541 116.459L779.411 81.5893M716.034 144.803C721.096 149.657 727.031 153.606 733.589 156.407L736.509 157.651L745.481 148.538C747.708 146.277 750.931 145.298 754.042 145.951L775.777 150.501C779.456 151.283 782.083 154.529 782.083 158.286V173.935C782.083 179.532 777.549 184.066 771.952 184.066H767.143C745.014 184.066 723.178 176.736 706.663 162.01C705.301 160.801 703.979 159.546 702.691 158.264L702.899 158.472C701.611 157.184 700.363 155.862 699.153 154.501C684.421 137.991 677.092 116.155 677.092 94.0262V89.2168C677.092 83.6199 681.626 79.0862 687.223 79.0862H702.871C706.629 79.0862 709.874 81.7131 710.656 85.3918L715.213 107.127C715.859 110.232 714.886 113.461 712.625 115.688L703.513 124.66L704.756 127.579C707.557 134.132 711.174 139.741 716.034 144.803Z" stroke="white" stroke-width="4" stroke-miterlimit="10" stroke-linecap="round" stroke-linejoin="round"/>
</g>
</g>
<defs>
<linearGradient id="paint0_linear_3_113" x1="990" y1="-27.625" x2="990" y2="207.187" gradientUnits="userSpaceOnUse">
<stop stop-color="#8F2ADC"/>
<stop offset="1" stop-color="#D351B9"/>
</linearGradient>
<linearGradient id="paint1_linear_3_113" x1="190" y1="-26.8125" x2="190" y2="222.219" gradientUnits="userSpaceOnUse">
<stop stop-color="#FF9C25"/>
<stop offset="1" stop-color="#FB445B"/>
</linearGradient>
<linearGradient id="paint2_linear_3_113" x1="590" y1="-58.5" x2="590" y2="296" gradientUnits="userSpaceOnUse">
<stop stop-color="#6868AC"/>
<stop offset="1" stop-color="#1878F3"/>
</linearGradient>
<clipPath id="clip0_3_113">
<rect width="380" height="182" fill="white"/>
</clipPath>
<clipPath id="clip1_3_113">
<rect width="380" height="182" fill="white" transform="translate(400)"/>
</clipPath>
</defs>
</svg>
