<svg width="114" height="114" viewBox="0 0 114 114" fill="none" xmlns="http://www.w3.org/2000/svg">
<circle cx="57" cy="57" r="57" fill="#F2C94C"/>
<path d="M50.2 65.24C48.2 65.24 46.672 64.488 45.616 62.984C44.56 61.464 44.032 59.304 44.032 56.504C44.032 53.672 44.56 51.52 45.616 50.048C46.672 48.576 48.2 47.84 50.2 47.84C52.216 47.84 53.744 48.576 54.784 50.048C55.84 51.52 56.368 53.664 56.368 56.48C56.368 59.296 55.84 61.464 54.784 62.984C53.728 64.488 52.2 65.24 50.2 65.24ZM50.2 62.72C51.288 62.72 52.088 62.216 52.6 61.208C53.128 60.2 53.392 58.624 53.392 56.48C53.392 54.336 53.128 52.784 52.6 51.824C52.088 50.848 51.288 50.36 50.2 50.36C49.128 50.36 48.328 50.848 47.8 51.824C47.272 52.784 47.008 54.336 47.008 56.48C47.008 58.624 47.272 60.2 47.8 61.208C48.328 62.216 49.128 62.72 50.2 62.72ZM64.2546 65.24C63.3906 65.24 62.4946 65.128 61.5666 64.904C60.6386 64.68 59.8306 64.344 59.1426 63.896C58.7426 63.624 58.5026 63.32 58.4226 62.984C58.3426 62.632 58.3826 62.32 58.5426 62.048C58.7026 61.76 58.9426 61.568 59.2626 61.472C59.5986 61.376 59.9746 61.44 60.3906 61.664C61.0466 62.016 61.6786 62.272 62.2866 62.432C62.8946 62.576 63.5186 62.648 64.1586 62.648C66.3186 62.648 67.3986 61.8 67.3986 60.104C67.3986 59.304 67.1266 58.712 66.5826 58.328C66.0546 57.928 65.2786 57.728 64.2546 57.728H62.7186C62.2706 57.728 61.9266 57.616 61.6866 57.392C61.4626 57.168 61.3506 56.856 61.3506 56.456C61.3506 56.056 61.4626 55.744 61.6866 55.52C61.9266 55.296 62.2706 55.184 62.7186 55.184H63.9666C64.8626 55.184 65.5746 54.968 66.1026 54.536C66.6306 54.088 66.8946 53.472 66.8946 52.688C66.8946 51.952 66.6466 51.392 66.1506 51.008C65.6706 50.624 64.9666 50.432 64.0386 50.432C63.4466 50.432 62.8866 50.504 62.3586 50.648C61.8466 50.776 61.2786 51.024 60.6546 51.392C60.2866 51.616 59.9506 51.68 59.6466 51.584C59.3426 51.472 59.1026 51.28 58.9266 51.008C58.7666 50.72 58.7186 50.408 58.7826 50.072C58.8466 49.736 59.0706 49.448 59.4546 49.208C60.8626 48.296 62.4786 47.84 64.3026 47.84C66.0626 47.84 67.4306 48.24 68.4066 49.04C69.3826 49.824 69.8706 50.92 69.8706 52.328C69.8706 53.24 69.6386 54.04 69.1746 54.728C68.7106 55.416 68.0786 55.912 67.2786 56.216C68.2546 56.488 69.0146 56.992 69.5586 57.728C70.1026 58.448 70.3746 59.328 70.3746 60.368C70.3746 61.872 69.8306 63.064 68.7426 63.944C67.6546 64.808 66.1586 65.24 64.2546 65.24Z" fill="white"/>
</svg>
