<svg width="187" height="76" viewBox="0 0 187 76" fill="none" xmlns="http://www.w3.org/2000/svg">
<path d="M8.8892 66.2784C7.56345 66.2784 6.37689 66.0298 5.32955 65.5327C4.2822 65.0289 3.45028 64.3395 2.83381 63.4645C2.22396 62.5895 1.89915 61.5885 1.85938 60.4616H5.43892C5.50521 61.2969 5.86648 61.9796 6.52273 62.5099C7.17898 63.0336 7.9678 63.2955 8.8892 63.2955C9.61174 63.2955 10.2547 63.1297 10.8182 62.7983C11.3816 62.4669 11.8258 62.0062 12.1506 61.4162C12.4754 60.8262 12.6345 60.1534 12.6278 59.3977C12.6345 58.6288 12.4721 57.946 12.1406 57.3494C11.8092 56.7528 11.3551 56.2855 10.7784 55.9474C10.2017 55.6027 9.53883 55.4304 8.78977 55.4304C8.17992 55.4238 7.58002 55.5365 6.99006 55.7685C6.40009 56.0005 5.93277 56.3054 5.58807 56.6832L2.2571 56.1364L3.32102 45.6364H15.1335V48.7188H6.37358L5.78693 54.1179H5.90625C6.28409 53.6738 6.81771 53.3059 7.5071 53.0142C8.1965 52.7159 8.95218 52.5668 9.77415 52.5668C11.0071 52.5668 12.1075 52.8584 13.0753 53.4418C14.0431 54.0185 14.8054 54.8139 15.3622 55.8281C15.919 56.8423 16.1974 58.0024 16.1974 59.3082C16.1974 60.6539 15.8859 61.8537 15.2628 62.9077C14.6463 63.955 13.7879 64.7803 12.6875 65.3835C11.5938 65.9801 10.3277 66.2784 8.8892 66.2784ZM26.8366 66.2784C25.4048 66.2784 24.1321 66.0331 23.0185 65.5426C21.9115 65.0521 21.0365 64.3693 20.3935 63.4943C19.7505 62.6193 19.4091 61.6084 19.3693 60.4616H23.108C23.1411 61.0118 23.3234 61.4924 23.6548 61.9034C23.9863 62.3078 24.4271 62.6226 24.9773 62.848C25.5275 63.0734 26.1439 63.1861 26.8267 63.1861C27.5559 63.1861 28.2022 63.0601 28.7656 62.8082C29.3291 62.5497 29.7699 62.1918 30.0881 61.7344C30.4063 61.277 30.562 60.75 30.5554 60.1534C30.562 59.5369 30.4029 58.9934 30.0781 58.5227C29.7533 58.0521 29.2827 57.6842 28.6662 57.419C28.0563 57.1539 27.3205 57.0213 26.4588 57.0213H24.6591V54.1776H26.4588C27.1681 54.1776 27.7879 54.0549 28.3182 53.8097C28.8551 53.5644 29.276 53.2197 29.581 52.7756C29.8859 52.3248 30.035 51.8045 30.0284 51.2145C30.035 50.6378 29.9058 50.1373 29.6406 49.7131C29.3821 49.2822 29.0142 48.9474 28.5369 48.7088C28.0663 48.4702 27.5128 48.3509 26.8764 48.3509C26.2533 48.3509 25.6766 48.4635 25.1463 48.6889C24.616 48.9143 24.1884 49.2358 23.8636 49.6534C23.5388 50.0644 23.3665 50.5549 23.3466 51.125H19.7969C19.8234 49.9848 20.1515 48.9839 20.7812 48.1222C21.4176 47.2538 22.2661 46.5777 23.3267 46.0938C24.3873 45.6032 25.5772 45.358 26.8963 45.358C28.2552 45.358 29.4351 45.6132 30.4361 46.1236C31.4437 46.6274 32.2225 47.3068 32.7727 48.1619C33.3229 49.017 33.598 49.9616 33.598 50.9957C33.6046 52.1425 33.2666 53.1037 32.5838 53.8793C31.9077 54.6548 31.0194 55.1619 29.919 55.4006V55.5597C31.3509 55.7585 32.4479 56.2888 33.2102 57.1506C33.9792 58.0057 34.3603 59.0696 34.3537 60.3423C34.3537 61.4825 34.0289 62.5033 33.3793 63.4048C32.7363 64.2997 31.848 65.0024 30.7145 65.5128C29.5876 66.0232 28.295 66.2784 26.8366 66.2784ZM45.0749 66.2784C43.6431 66.2784 42.3704 66.0331 41.2567 65.5426C40.1497 65.0521 39.2747 64.3693 38.6317 63.4943C37.9888 62.6193 37.6474 61.6084 37.6076 60.4616H41.3462C41.3794 61.0118 41.5617 61.4924 41.8931 61.9034C42.2246 62.3078 42.6654 62.6226 43.2156 62.848C43.7657 63.0734 44.3822 63.1861 45.065 63.1861C45.7942 63.1861 46.4405 63.0601 47.0039 62.8082C47.5674 62.5497 48.0082 62.1918 48.3263 61.7344C48.6445 61.277 48.8003 60.75 48.7937 60.1534C48.8003 59.5369 48.6412 58.9934 48.3164 58.5227C47.9916 58.0521 47.521 57.6842 46.9045 57.419C46.2946 57.1539 45.5588 57.0213 44.6971 57.0213H42.8974V54.1776H44.6971C45.4064 54.1776 46.0262 54.0549 46.5565 53.8097C47.0934 53.5644 47.5143 53.2197 47.8192 52.7756C48.1242 52.3248 48.2733 51.8045 48.2667 51.2145C48.2733 50.6378 48.1441 50.1373 47.8789 49.7131C47.6204 49.2822 47.2525 48.9474 46.7752 48.7088C46.3046 48.4702 45.7511 48.3509 45.1147 48.3509C44.4916 48.3509 43.9149 48.4635 43.3846 48.6889C42.8543 48.9143 42.4267 49.2358 42.1019 49.6534C41.7771 50.0644 41.6048 50.5549 41.5849 51.125H38.0352C38.0617 49.9848 38.3898 48.9839 39.0195 48.1222C39.6559 47.2538 40.5044 46.5777 41.565 46.0938C42.6256 45.6032 43.8155 45.358 45.1346 45.358C46.4935 45.358 47.6734 45.6132 48.6744 46.1236C49.6819 46.6274 50.4608 47.3068 51.011 48.1619C51.5612 49.017 51.8363 49.9616 51.8363 50.9957C51.8429 52.1425 51.5049 53.1037 50.8221 53.8793C50.146 54.6548 49.2577 55.1619 48.1573 55.4006V55.5597C49.5891 55.7585 50.6862 56.2888 51.4485 57.1506C52.2174 58.0057 52.5986 59.0696 52.592 60.3423C52.592 61.4825 52.2672 62.5033 51.6175 63.4048C50.9746 64.2997 50.0863 65.0024 48.9528 65.5128C47.8259 66.0232 46.5333 66.2784 45.0749 66.2784ZM57.6605 66.2188C57.0573 66.2188 56.5402 66.0066 56.1094 65.5824C55.6785 65.1581 55.4664 64.6411 55.473 64.0312C55.4664 63.4347 55.6785 62.9242 56.1094 62.5C56.5402 62.0758 57.0573 61.8636 57.6605 61.8636C58.2438 61.8636 58.7509 62.0758 59.1818 62.5C59.6193 62.9242 59.8414 63.4347 59.848 64.0312C59.8414 64.4356 59.7353 64.8035 59.5298 65.1349C59.331 65.4664 59.0658 65.7315 58.7344 65.9304C58.4096 66.1226 58.0516 66.2188 57.6605 66.2188ZM70.2585 66.3878C68.6212 66.3878 67.2159 65.9735 66.0426 65.1449C64.8759 64.3097 63.9777 63.1065 63.348 61.5355C62.7249 59.9579 62.4134 58.0587 62.4134 55.8381C62.42 53.6174 62.7348 51.7282 63.358 50.1705C63.9877 48.6061 64.8859 47.4129 66.0526 46.5909C67.2259 45.7689 68.6278 45.358 70.2585 45.358C71.8892 45.358 73.2912 45.7689 74.4645 46.5909C75.6378 47.4129 76.536 48.6061 77.1591 50.1705C77.7888 51.7348 78.1037 53.6241 78.1037 55.8381C78.1037 58.0653 77.7888 59.9678 77.1591 61.5455C76.536 63.1165 75.6378 64.3163 74.4645 65.1449C73.2978 65.9735 71.8958 66.3878 70.2585 66.3878ZM70.2585 63.2756C71.5313 63.2756 72.5355 62.6491 73.2713 61.3963C74.0137 60.1368 74.3849 58.2841 74.3849 55.8381C74.3849 54.2206 74.2159 52.8617 73.8778 51.7614C73.5398 50.661 73.0625 49.8324 72.446 49.2756C71.8295 48.7121 71.1004 48.4304 70.2585 48.4304C68.9924 48.4304 67.9915 49.0601 67.2557 50.3196C66.5199 51.5724 66.1487 53.4119 66.142 55.8381C66.1354 57.4621 66.2978 58.8277 66.6293 59.9347C66.9673 61.0417 67.4446 61.8769 68.0611 62.4403C68.6776 62.9972 69.41 63.2756 70.2585 63.2756ZM88.9343 66.3878C87.297 66.3878 85.8917 65.9735 84.7184 65.1449C83.5517 64.3097 82.6535 63.1065 82.0238 61.5355C81.4007 59.9579 81.0891 58.0587 81.0891 55.8381C81.0958 53.6174 81.4106 51.7282 82.0337 50.1705C82.6635 48.6061 83.5617 47.4129 84.7283 46.5909C85.9016 45.7689 87.3036 45.358 88.9343 45.358C90.565 45.358 91.967 45.7689 93.1403 46.5909C94.3136 47.4129 95.2118 48.6061 95.8349 50.1705C96.4646 51.7348 96.7795 53.6241 96.7795 55.8381C96.7795 58.0653 96.4646 59.9678 95.8349 61.5455C95.2118 63.1165 94.3136 64.3163 93.1403 65.1449C91.9736 65.9735 90.5716 66.3878 88.9343 66.3878ZM88.9343 63.2756C90.207 63.2756 91.2113 62.6491 91.9471 61.3963C92.6895 60.1368 93.0607 58.2841 93.0607 55.8381C93.0607 54.2206 92.8917 52.8617 92.5536 51.7614C92.2156 50.661 91.7383 49.8324 91.1218 49.2756C90.5053 48.7121 89.7762 48.4304 88.9343 48.4304C87.6682 48.4304 86.6673 49.0601 85.9315 50.3196C85.1957 51.5724 84.8245 53.4119 84.8178 55.8381C84.8112 57.4621 84.9736 58.8277 85.305 59.9347C85.6431 61.0417 86.1204 61.8769 86.7369 62.4403C87.3533 62.9972 88.0858 63.2756 88.9343 63.2756ZM107.61 66.3878C105.973 66.3878 104.567 65.9735 103.394 65.1449C102.228 64.3097 101.329 63.1065 100.7 61.5355C100.076 59.9579 99.7649 58.0587 99.7649 55.8381C99.7715 53.6174 100.086 51.7282 100.71 50.1705C101.339 48.6061 102.237 47.4129 103.404 46.5909C104.577 45.7689 105.979 45.358 107.61 45.358C109.241 45.358 110.643 45.7689 111.816 46.5909C112.989 47.4129 113.888 48.6061 114.511 50.1705C115.14 51.7348 115.455 53.6241 115.455 55.8381C115.455 58.0653 115.14 59.9678 114.511 61.5455C113.888 63.1165 112.989 64.3163 111.816 65.1449C110.649 65.9735 109.247 66.3878 107.61 66.3878ZM107.61 63.2756C108.883 63.2756 109.887 62.6491 110.623 61.3963C111.365 60.1368 111.737 58.2841 111.737 55.8381C111.737 54.2206 111.567 52.8617 111.229 51.7614C110.891 50.661 110.414 49.8324 109.798 49.2756C109.181 48.7121 108.452 48.4304 107.61 48.4304C106.344 48.4304 105.343 49.0601 104.607 50.3196C103.871 51.5724 103.5 53.4119 103.494 55.8381C103.487 57.4621 103.649 58.8277 103.981 59.9347C104.319 61.0417 104.796 61.8769 105.413 62.4403C106.029 62.9972 106.762 63.2756 107.61 63.2756ZM137.815 54.7642L134.534 55.1222C134.441 54.7907 134.279 54.4792 134.047 54.1875C133.821 53.8958 133.516 53.6605 133.132 53.4815C132.747 53.3026 132.277 53.2131 131.72 53.2131C130.971 53.2131 130.341 53.3755 129.831 53.7003C129.327 54.0251 129.078 54.446 129.085 54.9631C129.078 55.4072 129.241 55.7685 129.572 56.0469C129.91 56.3253 130.467 56.554 131.243 56.733L133.848 57.2898C135.293 57.6013 136.367 58.0952 137.069 58.7713C137.779 59.4474 138.136 60.3324 138.143 61.4261C138.136 62.3873 137.855 63.2358 137.298 63.9716C136.748 64.7008 135.982 65.2708 135.001 65.6818C134.02 66.0928 132.893 66.2983 131.62 66.2983C129.751 66.2983 128.246 65.9072 127.106 65.125C125.966 64.3362 125.287 63.2391 125.068 61.8338L128.578 61.4957C128.737 62.1851 129.075 62.7055 129.592 63.0568C130.109 63.4081 130.782 63.5838 131.61 63.5838C132.466 63.5838 133.152 63.4081 133.669 63.0568C134.192 62.7055 134.454 62.2713 134.454 61.7543C134.454 61.3168 134.285 60.9555 133.947 60.6705C133.616 60.3854 133.099 60.1667 132.396 60.0142L129.791 59.4673C128.326 59.1624 127.242 58.6487 126.539 57.9261C125.837 57.197 125.489 56.2756 125.495 55.1619C125.489 54.2206 125.744 53.4053 126.261 52.7159C126.785 52.0199 127.511 51.483 128.439 51.1051C129.373 50.7206 130.45 50.5284 131.67 50.5284C133.46 50.5284 134.868 50.9096 135.896 51.6719C136.93 52.4342 137.57 53.465 137.815 54.7642ZM147.773 66.2983C146.282 66.2983 144.989 65.9702 143.895 65.3139C142.801 64.6577 141.953 63.7396 141.35 62.5597C140.753 61.3797 140.455 60.0009 140.455 58.4233C140.455 56.8456 140.753 55.4635 141.35 54.277C141.953 53.0904 142.801 52.169 143.895 51.5128C144.989 50.8565 146.282 50.5284 147.773 50.5284C149.265 50.5284 150.557 50.8565 151.651 51.5128C152.745 52.169 153.59 53.0904 154.186 54.277C154.79 55.4635 155.091 56.8456 155.091 58.4233C155.091 60.0009 154.79 61.3797 154.186 62.5597C153.59 63.7396 152.745 64.6577 151.651 65.3139C150.557 65.9702 149.265 66.2983 147.773 66.2983ZM147.793 63.4148C148.602 63.4148 149.278 63.1927 149.821 62.7486C150.365 62.2978 150.769 61.6946 151.034 60.9389C151.306 60.1832 151.442 59.3414 151.442 58.4134C151.442 57.4787 151.306 56.6335 151.034 55.8778C150.769 55.1155 150.365 54.509 149.821 54.0582C149.278 53.6075 148.602 53.3821 147.793 53.3821C146.964 53.3821 146.275 53.6075 145.725 54.0582C145.181 54.509 144.774 55.1155 144.502 55.8778C144.237 56.6335 144.104 57.4787 144.104 58.4134C144.104 59.3414 144.237 60.1832 144.502 60.9389C144.774 61.6946 145.181 62.2978 145.725 62.7486C146.275 63.1927 146.964 63.4148 147.793 63.4148ZM161.199 45.6364V47.6648C161.199 48.2481 161.086 48.8546 160.861 49.4844C160.642 50.1075 160.34 50.7041 159.956 51.2741C159.571 51.8376 159.134 52.3215 158.643 52.7259L156.973 51.642C157.338 51.0919 157.656 50.4986 157.928 49.8622C158.199 49.2192 158.335 48.4934 158.335 47.6847V45.6364H161.199ZM163.533 66V50.7273H166.973V53.3224H167.152C167.471 52.4474 167.998 51.7647 168.733 51.2741C169.469 50.777 170.347 50.5284 171.368 50.5284C172.402 50.5284 173.274 50.7803 173.983 51.2841C174.699 51.7812 175.203 52.4607 175.495 53.3224H175.654C175.992 52.474 176.562 51.7978 177.364 51.294C178.173 50.7836 179.131 50.5284 180.238 50.5284C181.643 50.5284 182.79 50.9725 183.678 51.8608C184.566 52.7491 185.01 54.045 185.01 55.7486V66H181.401V56.3054C181.401 55.3575 181.149 54.6648 180.645 54.2273C180.141 53.7831 179.525 53.5611 178.796 53.5611C177.927 53.5611 177.248 53.8329 176.757 54.3764C176.274 54.9134 176.032 55.6127 176.032 56.4744V66H172.502V56.1562C172.502 55.3674 172.263 54.7377 171.786 54.267C171.315 53.7964 170.699 53.5611 169.936 53.5611C169.419 53.5611 168.949 53.6937 168.525 53.9588C168.1 54.2173 167.762 54.5852 167.51 55.0625C167.258 55.5331 167.132 56.0833 167.132 56.7131V66H163.533Z" fill="url(#paint0_linear_3_34)"/>
<g opacity="0.56">
<path d="M8.30114 7.54545V25H5.65909V10.1875H5.55682L1.38068 12.9148V10.392L5.7358 7.54545H8.30114ZM13.728 25.1619C13.2621 25.1619 12.8615 24.9972 12.5263 24.6676C12.1911 24.3324 12.0234 23.929 12.0234 23.4574C12.0234 22.9915 12.1911 22.5937 12.5263 22.2642C12.8615 21.929 13.2621 21.7614 13.728 21.7614C14.1939 21.7614 14.5945 21.929 14.9297 22.2642C15.2649 22.5937 15.4325 22.9915 15.4325 23.4574C15.4325 23.7699 15.353 24.0568 15.1939 24.3182C15.0405 24.5739 14.8359 24.7784 14.5803 24.9318C14.3246 25.0852 14.0405 25.1619 13.728 25.1619ZM18.8118 25V23.0909L24.718 16.9716C25.3487 16.3068 25.8686 15.7244 26.2777 15.2244C26.6925 14.7187 27.0021 14.2386 27.2067 13.7841C27.4112 13.3295 27.5135 12.8466 27.5135 12.3352C27.5135 11.7557 27.3771 11.2557 27.1044 10.8352C26.8317 10.4091 26.4595 10.0824 25.9879 9.85511C25.5163 9.62216 24.9851 9.50568 24.3942 9.50568C23.7692 9.50568 23.2237 9.63352 22.7578 9.8892C22.2919 10.1449 21.9339 10.5057 21.6839 10.9716C21.4339 11.4375 21.3089 11.983 21.3089 12.608H18.7947C18.7947 11.5455 19.0391 10.6165 19.5277 9.82102C20.0163 9.02557 20.6868 8.40909 21.5391 7.97159C22.3913 7.52841 23.3601 7.30682 24.4453 7.30682C25.5419 7.30682 26.5078 7.52557 27.343 7.96307C28.1839 8.39489 28.8402 8.98579 29.3118 9.73579C29.7834 10.4801 30.0192 11.321 30.0192 12.2585C30.0192 12.9062 29.897 13.5398 29.6527 14.1591C29.4141 14.7784 28.9964 15.4687 28.3999 16.2301C27.8033 16.9858 26.9737 17.9034 25.9112 18.983L22.4425 22.6136V22.7415H30.3004V25H18.8118ZM39.6072 25.2898C38.2607 25.2841 37.1101 24.929 36.1555 24.2244C35.201 23.5199 34.4709 22.4943 33.9652 21.1477C33.4595 19.8011 33.2067 18.179 33.2067 16.2812C33.2067 14.3892 33.4595 12.7727 33.9652 11.4318C34.4766 10.0909 35.2095 9.06818 36.1641 8.36364C37.1243 7.65909 38.272 7.30682 39.6072 7.30682C40.9425 7.30682 42.0874 7.66193 43.0419 8.37216C43.9964 9.0767 44.7266 10.0994 45.2322 11.4403C45.7436 12.7756 45.9993 14.3892 45.9993 16.2812C45.9993 18.1847 45.7464 19.8097 45.2408 21.1562C44.7351 22.4972 44.005 23.5227 43.0504 24.233C42.0959 24.9375 40.9482 25.2898 39.6072 25.2898ZM39.6072 23.0142C40.7891 23.0142 41.7124 22.4375 42.3771 21.2841C43.0476 20.1307 43.3828 18.4631 43.3828 16.2812C43.3828 14.8324 43.2294 13.608 42.9226 12.608C42.6214 11.6023 42.1868 10.8409 41.6186 10.3239C41.0561 9.80114 40.3857 9.53977 39.6072 9.53977C38.4311 9.53977 37.5078 10.1193 36.8374 11.2784C36.1669 12.4375 35.8288 14.1051 35.8232 16.2812C35.8232 17.7358 35.9737 18.9659 36.2749 19.9716C36.5817 20.9716 37.0163 21.7301 37.5788 22.2472C38.1413 22.7585 38.8175 23.0142 39.6072 23.0142ZM55.0994 25.2898C53.7528 25.2841 52.6023 24.929 51.6477 24.2244C50.6932 23.5199 49.9631 22.4943 49.4574 21.1477C48.9517 19.8011 48.6989 18.179 48.6989 16.2812C48.6989 14.3892 48.9517 12.7727 49.4574 11.4318C49.9688 10.0909 50.7017 9.06818 51.6562 8.36364C52.6165 7.65909 53.7642 7.30682 55.0994 7.30682C56.4347 7.30682 57.5795 7.66193 58.5341 8.37216C59.4886 9.0767 60.2188 10.0994 60.7244 11.4403C61.2358 12.7756 61.4915 14.3892 61.4915 16.2812C61.4915 18.1847 61.2386 19.8097 60.733 21.1562C60.2273 22.4972 59.4972 23.5227 58.5426 24.233C57.5881 24.9375 56.4403 25.2898 55.0994 25.2898ZM55.0994 23.0142C56.2813 23.0142 57.2045 22.4375 57.8693 21.2841C58.5398 20.1307 58.875 18.4631 58.875 16.2812C58.875 14.8324 58.7216 13.608 58.4148 12.608C58.1136 11.6023 57.679 10.8409 57.1108 10.3239C56.5483 9.80114 55.8778 9.53977 55.0994 9.53977C53.9233 9.53977 53 10.1193 52.3295 11.2784C51.6591 12.4375 51.321 14.1051 51.3153 16.2812C51.3153 17.7358 51.4659 18.9659 51.767 19.9716C52.0739 20.9716 52.5085 21.7301 53.071 22.2472C53.6335 22.7585 54.3097 23.0142 55.0994 23.0142ZM65.5952 25.1619C65.1293 25.1619 64.7287 24.9972 64.3935 24.6676C64.0582 24.3324 63.8906 23.929 63.8906 23.4574C63.8906 22.9915 64.0582 22.5937 64.3935 22.2642C64.7287 21.929 65.1293 21.7614 65.5952 21.7614C66.0611 21.7614 66.4616 21.929 66.7969 22.2642C67.1321 22.5937 67.2997 22.9915 67.2997 23.4574C67.2997 23.7699 67.2202 24.0568 67.0611 24.3182C66.9077 24.5739 66.7031 24.7784 66.4474 24.9318C66.1918 25.0852 65.9077 25.1619 65.5952 25.1619ZM76.1229 25.2898C74.7763 25.2841 73.6257 24.929 72.6712 24.2244C71.7166 23.5199 70.9865 22.4943 70.4808 21.1477C69.9751 19.8011 69.7223 18.179 69.7223 16.2812C69.7223 14.3892 69.9751 12.7727 70.4808 11.4318C70.9922 10.0909 71.7251 9.06818 72.6797 8.36364C73.6399 7.65909 74.7876 7.30682 76.1229 7.30682C77.4581 7.30682 78.603 7.66193 79.5575 8.37216C80.5121 9.0767 81.2422 10.0994 81.7479 11.4403C82.2592 12.7756 82.5149 14.3892 82.5149 16.2812C82.5149 18.1847 82.2621 19.8097 81.7564 21.1562C81.2507 22.4972 80.5206 23.5227 79.5661 24.233C78.6115 24.9375 77.4638 25.2898 76.1229 25.2898ZM76.1229 23.0142C77.3047 23.0142 78.228 22.4375 78.8928 21.2841C79.5632 20.1307 79.8984 18.4631 79.8984 16.2812C79.8984 14.8324 79.745 13.608 79.4382 12.608C79.1371 11.6023 78.7024 10.8409 78.1342 10.3239C77.5717 9.80114 76.9013 9.53977 76.1229 9.53977C74.9467 9.53977 74.0234 10.1193 73.353 11.2784C72.6825 12.4375 72.3445 14.1051 72.3388 16.2812C72.3388 17.7358 72.4893 18.9659 72.7905 19.9716C73.0973 20.9716 73.532 21.7301 74.0945 22.2472C74.657 22.7585 75.3331 23.0142 76.1229 23.0142ZM91.6151 25.2898C90.2685 25.2841 89.1179 24.929 88.1634 24.2244C87.2088 23.5199 86.4787 22.4943 85.973 21.1477C85.4673 19.8011 85.2145 18.179 85.2145 16.2812C85.2145 14.3892 85.4673 12.7727 85.973 11.4318C86.4844 10.0909 87.2173 9.06818 88.1719 8.36364C89.1321 7.65909 90.2798 7.30682 91.6151 7.30682C92.9503 7.30682 94.0952 7.66193 95.0497 8.37216C96.0043 9.0767 96.7344 10.0994 97.2401 11.4403C97.7514 12.7756 98.0071 14.3892 98.0071 16.2812C98.0071 18.1847 97.7543 19.8097 97.2486 21.1562C96.7429 22.4972 96.0128 23.5227 95.0582 24.233C94.1037 24.9375 92.956 25.2898 91.6151 25.2898ZM91.6151 23.0142C92.7969 23.0142 93.7202 22.4375 94.3849 21.2841C95.0554 20.1307 95.3906 18.4631 95.3906 16.2812C95.3906 14.8324 95.2372 13.608 94.9304 12.608C94.6293 11.6023 94.1946 10.8409 93.6264 10.3239C93.0639 9.80114 92.3935 9.53977 91.6151 9.53977C90.4389 9.53977 89.5156 10.1193 88.8452 11.2784C88.1747 12.4375 87.8366 14.1051 87.831 16.2812C87.831 17.7358 87.9815 18.9659 88.2827 19.9716C88.5895 20.9716 89.0241 21.7301 89.5866 22.2472C90.1491 22.7585 90.8253 23.0142 91.6151 23.0142ZM107.107 25.2898C105.761 25.2841 104.61 24.929 103.656 24.2244C102.701 23.5199 101.971 22.4943 101.465 21.1477C100.96 19.8011 100.707 18.179 100.707 16.2812C100.707 14.3892 100.96 12.7727 101.465 11.4318C101.977 10.0909 102.71 9.06818 103.664 8.36364C104.624 7.65909 105.772 7.30682 107.107 7.30682C108.442 7.30682 109.587 7.66193 110.542 8.37216C111.496 9.0767 112.227 10.0994 112.732 11.4403C113.244 12.7756 113.499 14.3892 113.499 16.2812C113.499 18.1847 113.246 19.8097 112.741 21.1562C112.235 22.4972 111.505 23.5227 110.55 24.233C109.596 24.9375 108.448 25.2898 107.107 25.2898ZM107.107 23.0142C108.289 23.0142 109.212 22.4375 109.877 21.2841C110.548 20.1307 110.883 18.4631 110.883 16.2812C110.883 14.8324 110.729 13.608 110.423 12.608C110.121 11.6023 109.687 10.8409 109.119 10.3239C108.556 9.80114 107.886 9.53977 107.107 9.53977C105.931 9.53977 105.008 10.1193 104.337 11.2784C103.667 12.4375 103.329 14.1051 103.323 16.2812C103.323 17.7358 103.474 18.9659 103.775 19.9716C104.082 20.9716 104.516 21.7301 105.079 22.2472C105.641 22.7585 106.317 23.0142 107.107 23.0142ZM132.718 15.1051L130.408 15.5142C130.312 15.2187 130.158 14.9375 129.948 14.6705C129.744 14.4034 129.465 14.1847 129.113 14.0142C128.761 13.8437 128.32 13.7585 127.792 13.7585C127.07 13.7585 126.468 13.9205 125.985 14.2443C125.502 14.5625 125.261 14.9744 125.261 15.4801C125.261 15.9176 125.423 16.2699 125.746 16.5369C126.07 16.804 126.593 17.0227 127.315 17.1932L129.394 17.6705C130.599 17.9489 131.496 18.3778 132.087 18.9574C132.678 19.5369 132.974 20.2898 132.974 21.2159C132.974 22 132.746 22.6989 132.292 23.3125C131.843 23.9205 131.215 24.3977 130.408 24.7443C129.607 25.0909 128.678 25.2642 127.621 25.2642C126.156 25.2642 124.96 24.9517 124.033 24.3267C123.107 23.696 122.539 22.8011 122.329 21.642L124.792 21.267C124.945 21.9091 125.261 22.3949 125.738 22.7244C126.215 23.0483 126.837 23.2102 127.604 23.2102C128.44 23.2102 129.107 23.0369 129.607 22.6903C130.107 22.3381 130.357 21.9091 130.357 21.4034C130.357 20.9943 130.204 20.6506 129.897 20.3722C129.596 20.0937 129.133 19.8835 128.508 19.7415L126.292 19.2557C125.07 18.9773 124.167 18.5341 123.582 17.9261C123.002 17.3182 122.712 16.5483 122.712 15.6165C122.712 14.8437 122.928 14.1676 123.36 13.5881C123.792 13.0085 124.388 12.5568 125.15 12.233C125.911 11.9034 126.783 11.7386 127.766 11.7386C129.181 11.7386 130.295 12.0455 131.107 12.6591C131.92 13.267 132.457 14.0824 132.718 15.1051ZM141.29 25.2642C140.063 25.2642 138.991 24.983 138.077 24.4205C137.162 23.858 136.452 23.071 135.946 22.0597C135.44 21.0483 135.188 19.8665 135.188 18.5142C135.188 17.1562 135.44 15.9687 135.946 14.9517C136.452 13.9347 137.162 13.1449 138.077 12.5824C138.991 12.0199 140.063 11.7386 141.29 11.7386C142.517 11.7386 143.588 12.0199 144.503 12.5824C145.418 13.1449 146.128 13.9347 146.634 14.9517C147.139 15.9687 147.392 17.1562 147.392 18.5142C147.392 19.8665 147.139 21.0483 146.634 22.0597C146.128 23.071 145.418 23.858 144.503 24.4205C143.588 24.983 142.517 25.2642 141.29 25.2642ZM141.298 23.125C142.094 23.125 142.753 22.9148 143.276 22.4943C143.798 22.0739 144.185 21.5142 144.435 20.8153C144.69 20.1165 144.818 19.3466 144.818 18.5057C144.818 17.6705 144.69 16.9034 144.435 16.2045C144.185 15.5 143.798 14.9347 143.276 14.5085C142.753 14.0824 142.094 13.8693 141.298 13.8693C140.497 13.8693 139.832 14.0824 139.304 14.5085C138.781 14.9347 138.392 15.5 138.136 16.2045C137.886 16.9034 137.761 17.6705 137.761 18.5057C137.761 19.3466 137.886 20.1165 138.136 20.8153C138.392 21.5142 138.781 22.0739 139.304 22.4943C139.832 22.9148 140.497 23.125 141.298 23.125ZM152.427 7.54545V9.18182C152.427 9.66477 152.336 10.1733 152.154 10.7074C151.978 11.2358 151.728 11.7443 151.404 12.233C151.08 12.7216 150.7 13.142 150.262 13.4943L149.001 12.5909C149.336 12.1023 149.626 11.5824 149.87 11.0312C150.12 10.4801 150.245 9.87216 150.245 9.20739V7.54545H152.427ZM154.502 25V11.9091H156.948V14.0398H157.11C157.383 13.3182 157.829 12.7557 158.448 12.3523C159.067 11.9432 159.809 11.7386 160.673 11.7386C161.548 11.7386 162.281 11.9432 162.871 12.3523C163.468 12.7614 163.908 13.3239 164.192 14.0398H164.329C164.641 13.3409 165.138 12.7841 165.82 12.3693C166.502 11.9489 167.315 11.7386 168.258 11.7386C169.445 11.7386 170.414 12.1108 171.164 12.8551C171.92 13.5994 172.298 14.7216 172.298 16.2216V25H169.749V16.4602C169.749 15.5739 169.508 14.9318 169.025 14.5341C168.542 14.1364 167.965 13.9375 167.295 13.9375C166.465 13.9375 165.82 14.1932 165.36 14.7045C164.9 15.2102 164.67 15.8608 164.67 16.6562V25H162.13V16.2983C162.13 15.5881 161.908 15.017 161.465 14.5852C161.022 14.1534 160.445 13.9375 159.735 13.9375C159.252 13.9375 158.806 14.0653 158.397 14.321C157.994 14.571 157.667 14.9205 157.417 15.3693C157.173 15.8182 157.05 16.3381 157.05 16.929V25H154.502Z" fill="url(#paint1_linear_3_34)"/>
<path d="M0 17.142H173.994V18.7784H0V17.142Z" fill="url(#paint2_linear_3_34)"/>
</g>
<defs>
<linearGradient id="paint0_linear_3_34" x1="93.5" y1="30.1071" x2="93.5" y2="84.8393" gradientUnits="userSpaceOnUse">
<stop stop-color="#FF9C25"/>
<stop offset="1" stop-color="#FB445B"/>
</linearGradient>
<linearGradient id="paint1_linear_3_34" x1="87" y1="-4.71429" x2="87" y2="39.0714" gradientUnits="userSpaceOnUse">
<stop stop-color="#FF9C25"/>
<stop offset="1" stop-color="#FB445B"/>
</linearGradient>
<linearGradient id="paint2_linear_3_34" x1="87" y1="-4.71429" x2="87" y2="39.0714" gradientUnits="userSpaceOnUse">
<stop stop-color="#FF9C25"/>
<stop offset="1" stop-color="#FB445B"/>
</linearGradient>
</defs>
</svg>
